<svg width="524" height="559" viewBox="0 0 524 559" fill="none" xmlns="http://www.w3.org/2000/svg">
<path fill-rule="evenodd" clip-rule="evenodd" d="M368.065 194.807C366.664 192.398 363.162 192.398 361.761 194.807L346.493 221.059C345.092 223.467 346.843 226.478 349.645 226.478H361.564C360.367 225.432 359.924 223.622 360.83 222.069L372.393 202.248L368.065 194.807Z" fill="#F9322C"/>
<path d="M377.739 200.565C378.899 198.594 381.797 198.594 382.956 200.565L395.592 222.044C396.751 224.015 395.302 226.478 392.983 226.478H367.712C365.394 226.478 363.944 224.015 365.104 222.044L377.739 200.565Z" fill="#F9322C"/>
<path fill-rule="evenodd" clip-rule="evenodd" d="M336 117C329.333 117 325.167 120.314 323.5 126.941C326 123.627 328.917 122.385 332.25 123.213C334.152 123.685 335.512 125.057 337.016 126.575C339.467 129.048 342.304 131.91 348.5 131.91C355.167 131.91 359.333 128.596 361 121.97C358.501 125.284 355.584 126.526 352.251 125.697C350.348 125.225 348.988 123.853 347.484 122.336C345.033 119.861 342.196 117 336 117ZM323.5 131.91C316.833 131.91 312.667 135.224 311 141.851C313.5 138.537 316.417 137.295 319.749 138.123C321.652 138.595 323.012 139.967 324.516 141.485C326.967 143.958 329.804 146.82 336 146.82C342.667 146.82 346.834 143.507 348.5 136.88C346 140.194 343.083 141.436 339.75 140.608C337.848 140.135 336.488 138.763 334.984 137.246C332.533 134.773 329.696 131.91 323.5 131.91Z" fill="#F9322C"/>
<path fill-rule="evenodd" clip-rule="evenodd" d="M508.972 181.644C508.99 181.713 509 181.784 509 181.855V192.903C509 193.045 508.963 193.184 508.892 193.307C508.82 193.43 508.718 193.532 508.595 193.602L499.322 198.941V209.523C499.322 209.811 499.169 210.077 498.919 210.222L479.562 221.365C479.518 221.39 479.47 221.407 479.421 221.424C479.403 221.43 479.386 221.441 479.367 221.446C479.232 221.482 479.089 221.482 478.954 221.446C478.932 221.44 478.912 221.428 478.891 221.42C478.846 221.404 478.8 221.389 478.758 221.365L459.405 210.222C459.282 210.152 459.18 210.05 459.109 209.927C459.038 209.804 459 209.665 459 209.523V176.378C459 176.306 459.01 176.235 459.028 176.167C459.034 176.143 459.048 176.122 459.056 176.099C459.071 176.057 459.086 176.013 459.108 175.974C459.123 175.948 459.145 175.927 459.163 175.903C459.186 175.87 459.207 175.837 459.235 175.809C459.258 175.786 459.288 175.769 459.314 175.749C459.343 175.724 459.37 175.698 459.403 175.679H459.404L469.081 170.108C469.203 170.037 469.342 170 469.484 170C469.625 170 469.764 170.037 469.886 170.108L479.563 175.679H479.565C479.598 175.699 479.625 175.724 479.654 175.748C479.68 175.768 479.709 175.786 479.732 175.808C479.761 175.837 479.781 175.87 479.805 175.903C479.822 175.927 479.845 175.948 479.859 175.974C479.883 176.014 479.896 176.057 479.912 176.099C479.92 176.122 479.934 176.143 479.94 176.168C479.958 176.236 479.968 176.307 479.968 176.378V197.08L488.032 192.437V181.854C488.032 181.783 488.042 181.712 488.06 181.644C488.067 181.62 488.08 181.599 488.088 181.576C488.104 181.534 488.118 181.49 488.141 181.451C488.156 181.425 488.178 181.404 488.195 181.38C488.219 181.347 488.239 181.314 488.268 181.286C488.291 181.263 488.32 181.246 488.346 181.226C488.376 181.201 488.402 181.175 488.435 181.156H488.436L498.114 175.585C498.236 175.514 498.375 175.477 498.516 175.477C498.658 175.477 498.797 175.514 498.919 175.585L508.596 181.156C508.63 181.176 508.657 181.201 508.687 181.225C508.712 181.245 508.741 181.263 508.764 181.285C508.793 181.314 508.813 181.347 508.837 181.38C508.855 181.404 508.877 181.425 508.891 181.451C508.914 181.49 508.928 181.534 508.944 181.576C508.953 181.599 508.966 181.62 508.972 181.644ZM507.387 192.437V183.25L504 185.199L499.322 187.893V197.08L507.388 192.437H507.387ZM497.71 209.057V199.864L493.108 202.492L479.967 209.992V219.272L497.71 209.057ZM460.613 177.773V209.057L478.354 219.271V209.993L469.086 204.747L469.083 204.745L469.079 204.743C469.048 204.725 469.021 204.699 468.992 204.677C468.967 204.657 468.938 204.641 468.916 204.618L468.914 204.615C468.887 204.59 468.869 204.559 468.847 204.531C468.827 204.504 468.803 204.48 468.787 204.452L468.786 204.449C468.768 204.419 468.757 204.383 468.743 204.349C468.73 204.318 468.713 204.29 468.705 204.258V204.257C468.695 204.219 468.693 204.178 468.689 204.139C468.685 204.109 468.677 204.079 468.677 204.048V204.046V182.416L464 179.721L460.613 177.774V177.773ZM469.485 171.737L461.422 176.378L469.483 181.019L477.544 176.377L469.483 171.737H469.485ZM473.678 200.701L478.355 198.009V177.773L474.969 179.722L470.29 182.416V202.652L473.678 200.701ZM498.516 177.214L490.455 181.855L498.516 186.496L506.577 181.854L498.516 177.214ZM497.71 187.893L493.032 185.199L489.645 183.25V192.437L494.322 195.13L497.71 197.08V187.893ZM479.16 208.597L490.984 201.846L496.895 198.473L488.839 193.835L479.564 199.175L471.111 204.041L479.16 208.597Z" fill="#F9322C"/>
<path fill-rule="evenodd" clip-rule="evenodd" d="M91.875 260H138.125C139.161 260 140 260.807 140 261.803V306.274C140 307.27 139.161 308.077 138.125 308.077H91.875C90.8395 308.077 90 307.27 90 306.274V261.803C90 260.807 90.8395 260 91.875 260ZM117.795 285.578V281.635H100V285.578H106.353V303.134H111.411V285.578H117.795ZM119.811 302.671C120.627 303.07 121.591 303.37 122.705 303.57C123.818 303.77 124.992 303.87 126.226 303.87C127.428 303.87 128.57 303.76 129.653 303.54C130.735 303.32 131.684 302.958 132.499 302.453C133.315 301.948 133.961 301.289 134.436 300.474C134.912 299.659 135.15 298.652 135.15 297.453C135.15 296.583 135.014 295.821 134.742 295.166C134.47 294.512 134.078 293.929 133.566 293.42C133.054 292.91 132.439 292.452 131.723 292.048C131.007 291.643 130.199 291.261 129.3 290.901C128.641 290.641 128.05 290.388 127.528 290.143C127.005 289.899 126.56 289.649 126.194 289.394C125.828 289.139 125.546 288.869 125.347 288.584C125.149 288.299 125.05 287.977 125.05 287.617C125.05 287.287 125.138 286.99 125.316 286.725C125.494 286.46 125.745 286.233 126.069 286.043C126.393 285.853 126.79 285.705 127.261 285.6C127.731 285.496 128.254 285.443 128.829 285.443C129.248 285.443 129.689 285.473 130.155 285.533C130.62 285.593 131.088 285.685 131.558 285.81C132.029 285.935 132.486 286.093 132.931 286.283C133.375 286.473 133.785 286.692 134.162 286.942V282.459C133.398 282.179 132.565 281.972 131.66 281.837C130.756 281.702 129.718 281.635 128.547 281.635C127.355 281.635 126.226 281.757 125.159 282.002C124.093 282.247 123.154 282.629 122.344 283.149C121.534 283.669 120.893 284.331 120.423 285.136C119.952 285.94 119.717 286.902 119.717 288.022C119.717 289.451 120.148 290.671 121.011 291.68C121.874 292.69 123.183 293.545 124.94 294.244C125.63 294.514 126.273 294.779 126.869 295.039C127.465 295.299 127.98 295.569 128.414 295.849C128.848 296.129 129.19 296.433 129.441 296.763C129.692 297.093 129.817 297.468 129.817 297.888C129.817 298.198 129.739 298.485 129.582 298.75C129.425 299.015 129.187 299.245 128.868 299.44C128.55 299.634 128.152 299.787 127.677 299.897C127.201 300.007 126.644 300.062 126.006 300.062C124.919 300.062 123.842 299.879 122.775 299.515C121.709 299.15 120.721 298.602 119.811 297.873V302.671Z" fill="#F9322C"/>
<path d="M0.940101 191.14C0.317155 188.89 0 186.554 0 184.2C0 173.456 6.80427 163.633 16.9328 159.759L18.2608 163.167C9.54239 166.502 3.68671 174.954 3.68671 184.2C3.68671 186.228 3.95853 188.237 4.4937 190.172L0.940101 191.14Z" fill="#F9322C"/>
<path d="M46.7294 173.821C42.788 166.317 35.0295 161.655 26.4866 161.655C23.4596 161.655 21.0301 162.031 18.2608 163.167L16.9328 159.759C20.1523 158.438 22.9697 158 26.4866 158C36.4113 158 45.4213 163.414 50 172.132L46.7294 173.821Z" fill="#F9322C"/>
<path d="M18.5781 178.795C20.7158 178.795 22.4573 179.925 23.3521 181.897L23.4229 182.051L27.0132 180.842L26.9368 180.66C25.5465 177.302 22.344 175.215 18.5781 175.215C15.9304 175.215 13.7785 176.057 12.0003 177.785C10.2333 179.502 9.3386 181.662 9.3386 184.206C9.3386 186.728 10.2333 188.876 12.0003 190.593C13.7785 192.321 15.9304 193.163 18.5781 193.163C22.344 193.163 25.5465 191.076 26.9368 187.721L27.0132 187.538L23.4171 186.327L23.3492 186.486C22.5478 188.425 20.764 189.583 18.5781 189.583C17.0886 189.583 15.8314 189.067 14.8346 188.052C13.8266 187.022 13.3169 185.729 13.3169 184.209C13.3169 182.677 13.8153 181.409 14.8346 180.332C15.8285 179.311 17.0886 178.795 18.5781 178.795Z" fill="#F9322C"/>
<path d="M41.0662 175.546L35.9496 188.386L30.799 175.546H26.5856L33.8089 193.07L28.6697 205.43L32.3536 206.156L45.0474 175.546H41.0662Z" fill="#F9322C"/>
<path d="M29.3288 203.836L28.4312 205.991C28.2528 206.417 27.845 206.706 27.3863 206.726C27.0834 206.737 26.7776 206.745 26.469 206.745C15.9043 206.74 6.55733 199.354 4.2411 189.177L0.644988 189.982C1.94468 195.69 5.20667 200.871 9.83062 204.574C14.5084 208.319 20.4008 210.386 26.4293 210.398C26.4378 210.398 26.483 210.398 26.483 210.398C26.8371 210.398 27.1881 210.389 27.5392 210.375C29.4307 210.297 31.1212 209.121 31.8432 207.379L33.0155 204.563L29.3288 203.836Z" fill="#F9322C"/>
<path d="M434.843 58H426L451 100.969L476 58H467.157L451 85.7697L434.843 58Z" fill="#F9322C"/>
<path d="M466 58H456.781L451 67.9219L445.219 58H436L451 83.7813L466 58Z" fill="#F9322C"/>
<path d="M456.781 58L451 67.9219L445.219 58H436L451 83.7813L466 58H456.781Z" fill="#F9322C"/>
<path fill-rule="evenodd" clip-rule="evenodd" d="M461 448H507C508.105 448 509 448.895 509 450V496C509 497.105 508.105 498 507 498H461C459.895 498 459 497.105 459 496V450C459 448.895 459.895 448 461 448ZM496.375 489.366C493.843 489.366 492.412 488.023 491.312 486.195L487.14 488.66C488.647 491.689 491.727 494 496.494 494C501.37 494 505 491.425 505 486.724C505 482.363 502.538 480.424 498.176 478.521L496.893 477.962C494.691 476.992 493.737 476.358 493.737 474.791C493.737 473.524 494.69 472.554 496.193 472.554C497.667 472.554 498.617 473.186 499.497 474.791L503.494 472.181C501.803 469.155 499.457 468 496.193 468C491.609 468 488.676 470.981 488.676 474.897C488.676 479.148 491.136 481.159 494.841 482.764L496.124 483.324C498.465 484.366 499.861 485 499.861 486.791C499.861 488.285 498.502 489.366 496.375 489.366ZM476.482 489.333C474.718 489.333 473.985 488.103 473.178 486.648L469 489.221C470.21 491.827 472.591 493.99 476.7 493.99C481.249 493.99 484.365 491.53 484.365 486.123V468.298H479.232V486.052C479.232 488.662 478.168 489.333 476.482 489.333Z" fill="#F9322C"/>
<path d="M106.5 481.747C124.443 481.747 138.241 489.254 138.241 497.5C138.241 505.746 124.433 513.253 106.5 513.253C88.5566 513.253 74.7587 505.746 74.7587 497.5C74.7587 489.254 88.567 481.747 106.5 481.747ZM106.5 480C88.0017 480 73 487.83 73 497.5C73 507.17 88.0017 515 106.5 515C124.998 515 140 507.17 140 497.5C140 487.83 124.998 480 106.5 480ZM95.8428 496.096C95.0158 500.307 92.095 499.871 88.5042 499.871L89.9384 492.53C93.9166 492.53 96.6175 492.103 95.8428 496.096ZM83.1966 507.305H87.0386L87.9494 502.647C92.252 502.647 94.9216 502.959 97.3922 500.661C100.125 498.165 100.836 493.725 98.8892 491.5C97.8737 490.336 96.2406 489.764 94.0212 489.764H86.6198L83.1966 507.305ZM102.637 485.095H106.458L105.547 489.753C108.845 489.753 111.902 489.514 113.378 490.866C114.927 492.28 114.184 494.089 112.509 502.626H108.636C110.248 494.37 110.551 493.684 109.965 493.06C109.4 492.457 108.112 492.582 105.003 492.582L103.035 502.626H99.2137L102.637 485.095ZM125.867 496.096C125.03 500.37 122.025 499.871 118.529 499.871L119.963 492.53C123.962 492.53 126.642 492.103 125.867 496.096ZM113.221 507.305H117.073L117.984 502.647C122.507 502.647 125.009 502.907 127.427 500.661C130.159 498.165 130.871 493.725 128.924 491.5C127.909 490.336 126.275 489.764 124.056 489.764H116.655L113.221 507.305Z" fill="#F9322C"/>
<path fill-rule="evenodd" clip-rule="evenodd" d="M227.385 0C224.532 0 222.421 2.49703 222.516 5.20508C222.606 7.80678 222.489 11.1763 221.64 13.9242C220.789 16.6801 219.35 18.4258 217 18.65V21.1805C219.35 21.4047 220.789 23.1504 221.64 25.9064C222.489 28.6542 222.606 32.0237 222.516 34.6254C222.421 37.3331 224.532 39.8305 227.386 39.8305H256.619C259.472 39.8305 261.582 37.3335 261.488 34.6254C261.397 32.0237 261.515 28.6542 262.363 25.9064C263.214 23.1504 264.65 21.4047 267 21.1805V18.65C264.65 18.4258 263.214 16.6801 262.363 13.9242C261.515 11.1767 261.397 7.80678 261.488 5.20508C261.582 2.49746 259.472 0 256.619 0H227.385H227.385ZM250.898 24.5182C250.898 28.247 248.117 30.5085 243.501 30.5085H235.644C235.419 30.5085 235.204 30.4192 235.045 30.2603C234.886 30.1013 234.797 29.8858 234.797 29.661V10.1695C234.797 9.94473 234.886 9.72918 235.045 9.57025C235.204 9.41132 235.419 9.32203 235.644 9.32203H243.456C247.305 9.32203 249.831 11.4068 249.831 14.6076C249.831 16.8542 248.132 18.8657 245.967 19.2178V19.3352C248.914 19.6585 250.898 21.6992 250.898 24.5182ZM242.644 12.0085H238.164V18.3364H241.938C244.855 18.3364 246.463 17.1619 246.463 15.0623C246.463 13.0949 245.08 12.0085 242.644 12.0085ZM238.164 20.8475V27.8212H242.809C245.846 27.8212 247.455 26.6025 247.455 24.3123C247.455 22.0216 245.801 20.847 242.614 20.847H238.164V20.8475Z" fill="#F9322C"/>
<path d="M316.507 493.544C316.371 493.436 315.105 492.481 312.436 492.481C311.731 492.484 311.027 492.544 310.332 492.661C309.815 489.12 306.887 487.393 306.756 487.316L306.039 486.902L305.568 487.583C304.977 488.497 304.546 489.504 304.293 490.562C303.815 492.584 304.106 494.483 305.133 496.106C303.893 496.797 301.903 496.967 301.501 496.982H268.565C267.705 496.984 267.007 497.679 267.002 498.539C266.964 501.424 267.453 504.292 268.445 507.002C269.579 509.978 271.267 512.169 273.463 513.511C275.924 515.018 279.922 515.879 284.454 515.879C286.501 515.885 288.545 515.7 290.558 515.325C293.356 514.812 296.048 513.834 298.523 512.432C300.563 511.251 302.399 509.748 303.96 507.982C306.569 505.028 308.123 501.738 309.28 498.815H309.74C312.597 498.815 314.354 497.671 315.323 496.713C315.967 496.102 316.469 495.358 316.795 494.532L317 493.934L316.507 493.544Z" fill="#F9322C"/>
<path d="M271.618 496.018H276.032C276.244 496.018 276.417 495.845 276.417 495.633V491.701C276.418 491.488 276.247 491.315 276.034 491.314C276.033 491.314 276.032 491.314 276.032 491.314H271.618C271.405 491.314 271.233 491.486 271.233 491.699V491.701V495.633C271.233 495.845 271.405 496.018 271.618 496.018Z" fill="#F9322C"/>
<path d="M277.7 496.018H282.114C282.326 496.018 282.499 495.845 282.499 495.633V491.701C282.5 491.488 282.329 491.315 282.116 491.314C282.115 491.314 282.114 491.314 282.114 491.314H277.7C277.486 491.314 277.312 491.487 277.312 491.701V495.633C277.314 495.846 277.487 496.018 277.7 496.018Z" fill="#F9322C"/>
<path d="M283.875 496.018H288.288C288.501 496.018 288.674 495.845 288.674 495.633V491.701C288.675 491.488 288.503 491.315 288.29 491.314C288.29 491.314 288.289 491.314 288.288 491.314H283.875C283.662 491.314 283.489 491.486 283.489 491.699V491.701V495.633C283.489 495.845 283.662 496.018 283.875 496.018Z" fill="#F9322C"/>
<path d="M289.976 496.018H294.39C294.603 496.018 294.776 495.846 294.777 495.633V491.701C294.777 491.487 294.604 491.314 294.39 491.314H289.976C289.763 491.314 289.591 491.486 289.591 491.699V491.701V495.633C289.591 495.845 289.763 496.018 289.976 496.018Z" fill="#F9322C"/>
<path d="M277.7 490.362H282.114C282.327 490.361 282.499 490.188 282.499 489.975V486.043C282.499 485.83 282.326 485.658 282.114 485.658H277.7C277.487 485.658 277.314 485.83 277.312 486.043V489.975C277.314 490.188 277.486 490.361 277.7 490.362Z" fill="#F9322C"/>
<path d="M283.875 490.362H288.288C288.501 490.361 288.673 490.188 288.673 489.975V486.043C288.673 485.83 288.501 485.658 288.288 485.658H283.875C283.662 485.658 283.489 485.831 283.489 486.043V489.975C283.489 490.188 283.661 490.361 283.875 490.362Z" fill="#F9322C"/>
<path d="M289.976 490.362H294.39C294.603 490.361 294.776 490.188 294.777 489.975V486.043C294.776 485.83 294.603 485.658 294.39 485.658H289.976C289.763 485.658 289.591 485.831 289.591 486.043V489.975C289.591 490.188 289.763 490.361 289.976 490.362Z" fill="#F9322C"/>
<path d="M289.976 484.704H294.39C294.603 484.704 294.776 484.532 294.777 484.319V480.385C294.776 480.172 294.603 480 294.39 480H289.976C289.763 480 289.591 480.172 289.591 480.385V484.319C289.591 484.532 289.763 484.704 289.976 484.704Z" fill="#F9322C"/>
<path d="M296.131 496.018H300.545C300.758 496.018 300.931 495.846 300.933 495.633V491.701C300.933 491.487 300.759 491.314 300.545 491.314H296.131C295.919 491.314 295.746 491.486 295.746 491.699V491.701V495.633C295.746 495.845 295.919 496.018 296.131 496.018Z" fill="#F9322C"/>
<g filter="url(#filter0_d_2463_5739)">
<path d="M128.661 441C116.239 441 106.613 438.229 99.7816 432.688C93.2605 426.82 90 418.671 90 408.24C90 397.483 93.4158 389.171 100.247 383.304C107.389 377.11 117.171 374.014 129.592 374.014C149.776 374.014 167.942 369.124 184.089 359.345C200.547 349.566 213.279 336.365 222.284 319.74C231.6 303.116 236.258 284.699 236.258 264.489C236.258 243.627 231.6 224.721 222.284 207.771C212.968 190.82 200.392 177.619 184.555 168.166C168.718 158.713 151.174 153.986 131.921 153.986C119.189 153.986 109.097 151.052 101.645 145.185C94.5026 138.992 90.9316 130.354 90.9316 119.271C90.9316 109.166 94.1921 101.343 100.713 95.8011C107.545 89.9337 116.861 87 128.661 87C160.645 87 189.679 94.9862 215.763 110.959C241.847 126.605 262.342 148.119 277.247 175.5C292.463 202.555 300.071 232.218 300.071 264.489C300.071 297.086 292.463 326.912 277.247 353.967C262.342 380.696 241.847 401.884 215.763 417.53C189.679 433.177 160.645 441 128.661 441ZM272.589 407.751C272.589 399.276 275.539 392.105 281.439 386.238C287.339 380.044 294.326 376.948 302.4 376.948L375.529 376.948L375.529 300.182C375.529 289.099 378.789 279.972 385.311 272.801C391.832 265.63 400.061 262.044 409.997 262.044C419.934 262.37 428.008 266.119 434.218 273.29C440.739 280.135 444 288.936 444 299.693L444 439.533L302.4 439.533C294.326 439.533 287.339 436.436 281.439 430.243C275.539 423.724 272.589 416.227 272.589 407.751Z" fill="url(#paint0_linear_2463_5739)"/>
</g>
<path d="M128.661 441C116.239 441 106.613 438.229 99.7816 432.688C93.2605 426.82 90 418.671 90 408.24C90 397.483 93.4158 389.171 100.247 383.304C107.389 377.11 117.171 374.014 129.592 374.014C149.776 374.014 167.942 369.124 184.089 359.345C200.547 349.566 213.279 336.365 222.284 319.74C231.6 303.116 236.258 284.699 236.258 264.489C236.258 243.627 231.6 224.721 222.284 207.771C212.968 190.82 200.392 177.619 184.555 168.166C168.718 158.713 151.174 153.986 131.921 153.986C119.189 153.986 109.097 151.052 101.645 145.185C94.5026 138.992 90.9316 130.354 90.9316 119.271C90.9316 109.166 94.1921 101.343 100.713 95.8011C107.545 89.9337 116.861 87 128.661 87C160.645 87 189.679 94.9862 215.763 110.959C241.847 126.605 262.342 148.119 277.247 175.5C292.463 202.555 300.071 232.218 300.071 264.489C300.071 297.086 292.463 326.912 277.247 353.967C262.342 380.696 241.847 401.884 215.763 417.53C189.679 433.177 160.645 441 128.661 441ZM272.589 407.751C272.589 399.276 275.539 392.105 281.439 386.238C287.339 380.044 294.326 376.948 302.4 376.948L375.529 376.948L375.529 300.182C375.529 289.099 378.789 279.972 385.311 272.801C391.832 265.63 400.061 262.044 409.997 262.044C419.934 262.37 428.008 266.119 434.218 273.29C440.739 280.135 444 288.936 444 299.693L444 439.533L302.4 439.533C294.326 439.533 287.339 436.436 281.439 430.243C275.539 423.724 272.589 416.227 272.589 407.751Z" fill="#F4322C"/>
<defs>
<filter id="filter0_d_2463_5739" x="10" y="45" width="514" height="514" filterUnits="userSpaceOnUse" color-interpolation-filters="sRGB">
<feFlood flood-opacity="0" result="BackgroundImageFix"/>
<feColorMatrix in="SourceAlpha" type="matrix" values="0 0 0 0 0 0 0 0 0 0 0 0 0 0 0 0 0 0 127 0" result="hardAlpha"/>
<feOffset dy="38"/>
<feGaussianBlur stdDeviation="40"/>
<feComposite in2="hardAlpha" operator="out"/>
<feColorMatrix type="matrix" values="0 0 0 0 0.956863 0 0 0 0 0.196079 0 0 0 0 0.172549 0 0 0 0.56 0"/>
<feBlend mode="normal" in2="BackgroundImageFix" result="effect1_dropShadow_2463_5739"/>
<feBlend mode="normal" in="SourceGraphic" in2="effect1_dropShadow_2463_5739" result="shape"/>
</filter>
<linearGradient id="paint0_linear_2463_5739" x1="444" y1="264" x2="90" y2="264" gradientUnits="userSpaceOnUse">
<stop stop-color="#FBFCFE"/>
<stop offset="1" stop-color="#F0F0F0"/>
</linearGradient>
</defs>
</svg>
