<svg width="370" height="370" viewBox="0 0 370 370" fill="none" xmlns="http://www.w3.org/2000/svg">
<path d="M40.4078 370C27.4254 370 17.364 367.104 10.2236 361.312C3.40782 355.18 -4.56707e-05 346.662 -4.51941e-05 335.76C-4.47026e-05 324.517 3.57012 315.829 10.7105 309.696C18.1754 303.223 28.3991 299.986 41.3815 299.986C62.478 299.986 81.4649 294.876 98.3421 284.655C115.544 274.434 128.851 260.635 138.263 243.26C148 225.884 152.868 206.634 152.868 185.511C152.868 163.706 148 143.946 138.263 126.229C128.526 108.513 115.382 94.7145 98.8289 84.8343C82.2763 74.9539 63.9386 70.0138 43.8158 70.0138C30.5087 70.0138 19.9605 66.9475 12.171 60.8149C4.70608 54.3416 0.973631 45.313 0.973631 33.7293C0.973632 23.1676 4.38153 14.9908 11.1973 9.19888C18.3377 3.06628 28.0745 -1.51004e-05 40.4078 -1.44069e-05C73.8377 -1.25272e-05 104.184 8.34713 131.447 25.0414C158.71 41.395 180.132 63.8812 195.71 92.5C211.614 120.778 219.566 151.782 219.566 185.511C219.566 219.581 211.614 250.755 195.71 279.033C180.132 306.971 158.71 329.116 131.447 345.47C104.184 361.823 73.8377 370 40.4078 370ZM190.842 335.249C190.842 326.39 193.925 318.895 200.092 312.762C206.259 306.289 213.561 303.052 222 303.052L298.434 303.052L298.434 222.818C298.434 211.234 301.842 201.694 308.658 194.199C315.474 186.704 324.075 182.956 334.461 182.956C344.846 183.297 353.285 187.215 359.776 194.71C366.592 201.865 370 211.064 370 222.307L370 368.467L222 368.467C213.561 368.467 206.259 365.23 200.092 358.757C193.925 351.943 190.842 344.107 190.842 335.249Z" fill="#F4322C"/>
</svg>
