<svg width="165" height="242" viewBox="0 0 165 242" fill="none" xmlns="http://www.w3.org/2000/svg">
<rect x="1" y="45" width="107" height="26" rx="13" fill="#F4322C"/>
<path d="M12.104 62V53.24H14.924C15.74 53.24 16.388 53.476 16.868 53.948C17.356 54.412 17.6 55.036 17.6 55.82C17.6 56.604 17.356 57.232 16.868 57.704C16.388 58.168 15.74 58.4 14.924 58.4H13.184V62H12.104ZM13.184 57.428H14.924C15.396 57.428 15.772 57.284 16.052 56.996C16.34 56.7 16.484 56.308 16.484 55.82C16.484 55.324 16.34 54.932 16.052 54.644C15.772 54.356 15.396 54.212 14.924 54.212H13.184V57.428ZM19.3113 62V53.24H20.3913V56.984H23.1993V53.24H24.2793V62H23.1993V57.968H20.3913V62H19.3113ZM26.4946 62V53.24H29.3146C30.1306 53.24 30.7786 53.476 31.2586 53.948C31.7466 54.412 31.9906 55.036 31.9906 55.82C31.9906 56.604 31.7466 57.232 31.2586 57.704C30.7786 58.168 30.1306 58.4 29.3146 58.4H27.5746V62H26.4946ZM27.5746 57.428H29.3146C29.7866 57.428 30.1626 57.284 30.4426 56.996C30.7306 56.7 30.8746 56.308 30.8746 55.82C30.8746 55.324 30.7306 54.932 30.4426 54.644C30.1626 54.356 29.7866 54.212 29.3146 54.212H27.5746V57.428ZM34.5659 63.92L35.5259 60.188H37.0859L35.5259 63.92H34.5659ZM48.5366 62V53.24H49.6166V61.016H53.5766V62H48.5366ZM57.1959 62.12C56.4999 62.12 55.9519 61.944 55.5519 61.592C55.1519 61.232 54.9519 60.748 54.9519 60.14C54.9519 59.524 55.1519 59.04 55.5519 58.688C55.9519 58.336 56.4919 58.16 57.1719 58.16H59.2119V57.5C59.2119 57.1 59.0879 56.788 58.8399 56.564C58.5999 56.34 58.2639 56.228 57.8319 56.228C57.4479 56.228 57.1239 56.312 56.8599 56.48C56.5959 56.648 56.4319 56.868 56.3679 57.14H55.2879C55.3279 56.772 55.4599 56.448 55.6839 56.168C55.9159 55.888 56.2159 55.672 56.5839 55.52C56.9599 55.36 57.3759 55.28 57.8319 55.28C58.5919 55.28 59.1919 55.476 59.6319 55.868C60.0719 56.26 60.2919 56.792 60.2919 57.464V62H59.2359V60.74H59.2239C59.1759 61.164 58.9679 61.5 58.5999 61.748C58.2399 61.996 57.7719 62.12 57.1959 62.12ZM57.4599 61.268C57.9719 61.268 58.3919 61.14 58.7199 60.884C59.0479 60.628 59.2119 60.3 59.2119 59.9V58.964H57.1959C56.8359 58.964 56.5519 59.064 56.3439 59.264C56.1359 59.464 56.0319 59.736 56.0319 60.08C56.0319 60.448 56.1559 60.74 56.4039 60.956C56.6599 61.164 57.0119 61.268 57.4599 61.268ZM62.6752 62V55.4H63.7552V56.66H63.7672C63.8232 56.22 64.0032 55.88 64.3072 55.64C64.6112 55.4 65.0152 55.28 65.5192 55.28C66.2072 55.28 66.7552 55.5 67.1632 55.94C67.5712 56.372 67.7752 56.96 67.7752 57.704V58.16H66.6952V57.8C66.6952 57.296 66.5672 56.908 66.3112 56.636C66.0552 56.356 65.6832 56.216 65.1952 56.216C64.2352 56.216 63.7552 56.744 63.7552 57.8V62H62.6752ZM71.5865 62.12C70.8905 62.12 70.3425 61.944 69.9425 61.592C69.5425 61.232 69.3425 60.748 69.3425 60.14C69.3425 59.524 69.5425 59.04 69.9425 58.688C70.3425 58.336 70.8825 58.16 71.5625 58.16H73.6025V57.5C73.6025 57.1 73.4785 56.788 73.2305 56.564C72.9905 56.34 72.6545 56.228 72.2225 56.228C71.8385 56.228 71.5145 56.312 71.2505 56.48C70.9865 56.648 70.8225 56.868 70.7585 57.14H69.6785C69.7185 56.772 69.8505 56.448 70.0745 56.168C70.3065 55.888 70.6065 55.672 70.9745 55.52C71.3505 55.36 71.7665 55.28 72.2225 55.28C72.9825 55.28 73.5825 55.476 74.0225 55.868C74.4625 56.26 74.6825 56.792 74.6825 57.464V62H73.6265V60.74H73.6145C73.5665 61.164 73.3585 61.5 72.9905 61.748C72.6305 61.996 72.1625 62.12 71.5865 62.12ZM71.8505 61.268C72.3625 61.268 72.7825 61.14 73.1105 60.884C73.4385 60.628 73.6025 60.3 73.6025 59.9V58.964H71.5865C71.2265 58.964 70.9425 59.064 70.7345 59.264C70.5265 59.464 70.4225 59.736 70.4225 60.08C70.4225 60.448 70.5465 60.74 70.7945 60.956C71.0505 61.164 71.4025 61.268 71.8505 61.268ZM78.6498 62L76.3578 55.4H77.4738L79.0098 59.84C79.0978 60.104 79.1738 60.36 79.2378 60.608C79.3018 60.848 79.3498 61.036 79.3818 61.172C79.4218 61.036 79.4698 60.848 79.5258 60.608C79.5818 60.36 79.6538 60.104 79.7418 59.84L81.2298 55.4H82.3578L80.0658 62H78.6498ZM86.5531 62.12C86.0331 62.12 85.5771 62.016 85.1851 61.808C84.8011 61.6 84.5011 61.308 84.2851 60.932C84.0771 60.548 83.9731 60.104 83.9731 59.6V57.8C83.9731 57.288 84.0771 56.844 84.2851 56.468C84.5011 56.092 84.8011 55.8 85.1851 55.592C85.5771 55.384 86.0331 55.28 86.5531 55.28C87.0731 55.28 87.5251 55.384 87.9091 55.592C88.3011 55.8 88.6011 56.092 88.8091 56.468C89.0251 56.844 89.1331 57.288 89.1331 57.8V58.964H85.0291V59.6C85.0291 60.12 85.1611 60.52 85.4251 60.8C85.6891 61.072 86.0651 61.208 86.5531 61.208C86.9691 61.208 87.3051 61.136 87.5611 60.992C87.8171 60.84 87.9731 60.616 88.0291 60.32H89.1091C89.0371 60.872 88.7651 61.312 88.2931 61.64C87.8291 61.96 87.2491 62.12 86.5531 62.12ZM85.0291 58.148H88.0771V57.8C88.0771 57.28 87.9451 56.88 87.6811 56.6C87.4251 56.32 87.0491 56.18 86.5531 56.18C86.0651 56.18 85.6891 56.32 85.4251 56.6C85.1611 56.88 85.0291 57.28 85.0291 57.8V58.148ZM94.7084 62C94.1244 62 93.6564 61.832 93.3044 61.496C92.9604 61.152 92.7884 60.7 92.7884 60.14V54.224H90.5084V53.24H93.8684V60.14C93.8684 60.412 93.9444 60.628 94.0964 60.788C94.2484 60.94 94.4524 61.016 94.7084 61.016H96.7484V62H94.7084Z" fill="#DDDDDD"/>
<rect y="176" width="78" height="26" rx="13" fill="#F4322C"/>
<path d="M11.116 193V184.24H13.6C14.4 184.24 15.024 184.44 15.472 184.84C15.928 185.24 16.156 185.796 16.156 186.508C16.156 186.988 16.04 187.392 15.808 187.72C15.576 188.04 15.252 188.256 14.836 188.368C15.308 188.504 15.68 188.764 15.952 189.148C16.224 189.524 16.36 189.996 16.36 190.564C16.36 191.316 16.128 191.912 15.664 192.352C15.208 192.784 14.58 193 13.78 193H11.116ZM12.172 187.972H13.588C14.052 187.972 14.416 187.848 14.68 187.6C14.952 187.352 15.088 187.016 15.088 186.592C15.088 186.168 14.956 185.832 14.692 185.584C14.428 185.336 14.064 185.212 13.6 185.212H12.172V187.972ZM12.172 192.028H13.66C14.164 192.028 14.56 191.896 14.848 191.632C15.144 191.36 15.292 190.992 15.292 190.528C15.292 190.048 15.144 189.66 14.848 189.364C14.56 189.06 14.164 188.908 13.66 188.908H12.172V192.028ZM20.7953 193.096C19.9953 193.096 19.3633 192.872 18.8993 192.424C18.4433 191.968 18.2153 191.352 18.2153 190.576V188.824C18.2153 188.04 18.4433 187.424 18.8993 186.976C19.3633 186.528 19.9953 186.304 20.7953 186.304C21.5953 186.304 22.2233 186.528 22.6793 186.976C23.1433 187.424 23.3753 188.036 23.3753 188.812V190.576C23.3753 191.352 23.1433 191.968 22.6793 192.424C22.2233 192.872 21.5953 193.096 20.7953 193.096ZM20.7953 192.136C21.2673 192.136 21.6353 192.004 21.8993 191.74C22.1633 191.476 22.2953 191.088 22.2953 190.576V188.824C22.2953 188.312 22.1633 187.924 21.8993 187.66C21.6353 187.396 21.2673 187.264 20.7953 187.264C20.3313 187.264 19.9633 187.396 19.6913 187.66C19.4273 187.924 19.2953 188.312 19.2953 188.824V190.576C19.2953 191.088 19.4273 191.476 19.6913 191.74C19.9633 192.004 20.3313 192.136 20.7953 192.136ZM27.9906 193.096C27.1906 193.096 26.5586 192.872 26.0946 192.424C25.6386 191.968 25.4106 191.352 25.4106 190.576V188.824C25.4106 188.04 25.6386 187.424 26.0946 186.976C26.5586 186.528 27.1906 186.304 27.9906 186.304C28.7906 186.304 29.4186 186.528 29.8746 186.976C30.3386 187.424 30.5706 188.036 30.5706 188.812V190.576C30.5706 191.352 30.3386 191.968 29.8746 192.424C29.4186 192.872 28.7906 193.096 27.9906 193.096ZM27.9906 192.136C28.4626 192.136 28.8306 192.004 29.0946 191.74C29.3586 191.476 29.4906 191.088 29.4906 190.576V188.824C29.4906 188.312 29.3586 187.924 29.0946 187.66C28.8306 187.396 28.4626 187.264 27.9906 187.264C27.5266 187.264 27.1586 187.396 26.8866 187.66C26.6226 187.924 26.4906 188.312 26.4906 188.824V190.576C26.4906 191.088 26.6226 191.476 26.8866 191.74C27.1586 192.004 27.5266 192.136 27.9906 192.136ZM34.9819 193.096C34.3019 193.096 33.7459 192.94 33.3139 192.628C32.8819 192.316 32.6659 191.888 32.6659 191.344H33.7699C33.7699 191.592 33.8859 191.788 34.1179 191.932C34.3579 192.068 34.6539 192.136 35.0059 192.136H35.5099C35.9339 192.136 36.2499 192.052 36.4579 191.884C36.6659 191.708 36.7699 191.476 36.7699 191.188C36.7699 190.908 36.6699 190.688 36.4699 190.528C36.2779 190.36 35.9979 190.248 35.6299 190.192L34.7419 190.048C34.0859 189.936 33.6019 189.728 33.2899 189.424C32.9779 189.12 32.8219 188.7 32.8219 188.164C32.8219 187.564 33.0139 187.104 33.3979 186.784C33.7899 186.464 34.3499 186.304 35.0779 186.304H35.5339C36.2059 186.304 36.7419 186.456 37.1419 186.76C37.5499 187.056 37.7539 187.452 37.7539 187.948H36.6499C36.6499 187.74 36.5459 187.576 36.3379 187.456C36.1379 187.328 35.8619 187.264 35.5099 187.264H35.0539C34.6779 187.264 34.3859 187.344 34.1779 187.504C33.9779 187.656 33.8779 187.876 33.8779 188.164C33.8779 188.644 34.2179 188.94 34.8979 189.052L35.7859 189.196C36.4979 189.308 37.0139 189.516 37.3339 189.82C37.6619 190.124 37.8259 190.564 37.8259 191.14C37.8259 191.748 37.6299 192.228 37.2379 192.58C36.8539 192.924 36.2699 193.096 35.4859 193.096H34.9819ZM43.1013 193C42.5573 193 42.1213 192.844 41.7933 192.532C41.4653 192.212 41.3013 191.788 41.3013 191.26V187.384H39.4413V186.4H41.3013V184.54H42.3813V186.4H45.0213V187.384H42.3813V191.26C42.3813 191.484 42.4453 191.668 42.5733 191.812C42.7093 191.948 42.8853 192.016 43.1013 192.016H44.9013V193H43.1013ZM47.2846 193V186.4H48.3646V187.66H48.3766C48.4326 187.22 48.6126 186.88 48.9166 186.64C49.2206 186.4 49.6246 186.28 50.1286 186.28C50.8166 186.28 51.3646 186.5 51.7726 186.94C52.1806 187.372 52.3846 187.96 52.3846 188.704V189.16H51.3046V188.8C51.3046 188.296 51.1766 187.908 50.9206 187.636C50.6646 187.356 50.2926 187.216 49.8046 187.216C48.8446 187.216 48.3646 187.744 48.3646 188.8V193H47.2846ZM56.1959 193.12C55.4999 193.12 54.9519 192.944 54.5519 192.592C54.1519 192.232 53.9519 191.748 53.9519 191.14C53.9519 190.524 54.1519 190.04 54.5519 189.688C54.9519 189.336 55.4919 189.16 56.1719 189.16H58.2119V188.5C58.2119 188.1 58.0879 187.788 57.8399 187.564C57.5999 187.34 57.2639 187.228 56.8319 187.228C56.4479 187.228 56.1239 187.312 55.8599 187.48C55.5959 187.648 55.4319 187.868 55.3679 188.14H54.2879C54.3279 187.772 54.4599 187.448 54.6839 187.168C54.9159 186.888 55.2159 186.672 55.5839 186.52C55.9599 186.36 56.3759 186.28 56.8319 186.28C57.5919 186.28 58.1919 186.476 58.6319 186.868C59.0719 187.26 59.2919 187.792 59.2919 188.464V193H58.2359V191.74H58.2239C58.1759 192.164 57.9679 192.5 57.5999 192.748C57.2399 192.996 56.7719 193.12 56.1959 193.12ZM56.4599 192.268C56.9719 192.268 57.3919 192.14 57.7199 191.884C58.0479 191.628 58.2119 191.3 58.2119 190.9V189.964H56.1959C55.8359 189.964 55.5519 190.064 55.3439 190.264C55.1359 190.464 55.0319 190.736 55.0319 191.08C55.0319 191.448 55.1559 191.74 55.4039 191.956C55.6599 192.164 56.0119 192.268 56.4599 192.268ZM61.4832 195.16V186.4H62.5632V187.66H62.5752C62.6312 187.228 62.8192 186.892 63.1392 186.652C63.4672 186.404 63.8792 186.28 64.3752 186.28C65.0392 186.28 65.5672 186.5 65.9592 186.94C66.3592 187.372 66.5592 187.968 66.5592 188.728V190.66C66.5592 191.42 66.3592 192.02 65.9592 192.46C65.5672 192.9 65.0392 193.12 64.3752 193.12C63.8792 193.12 63.4712 192.996 63.1512 192.748C62.8312 192.5 62.6392 192.164 62.5752 191.74H62.5392L62.5632 193.24V195.16H61.4832ZM64.0152 192.184C64.4712 192.184 64.8272 192.048 65.0832 191.776C65.3472 191.504 65.4792 191.112 65.4792 190.6V188.8C65.4792 188.288 65.3472 187.896 65.0832 187.624C64.8272 187.352 64.4712 187.216 64.0152 187.216C63.5752 187.216 63.2232 187.356 62.9592 187.636C62.6952 187.916 62.5632 188.304 62.5632 188.8V190.6C62.5632 191.096 62.6952 191.484 62.9592 191.764C63.2232 192.044 63.5752 192.184 64.0152 192.184Z" fill="#DDDDDD"/>
<rect x="1" y="216" width="71" height="26" rx="13" fill="#F4322C"/>
<path d="M14.648 233.12C13.848 233.12 13.216 232.896 12.752 232.448C12.288 232 12.056 231.384 12.056 230.6V226.64C12.056 225.856 12.288 225.24 12.752 224.792C13.216 224.344 13.848 224.12 14.648 224.12C15.432 224.12 16.056 224.348 16.52 224.804C16.984 225.252 17.216 225.864 17.216 226.64H16.136C16.136 226.144 16.004 225.764 15.74 225.5C15.484 225.228 15.12 225.092 14.648 225.092C14.176 225.092 13.804 225.224 13.532 225.488C13.268 225.752 13.136 226.132 13.136 226.628V230.6C13.136 231.096 13.268 231.48 13.532 231.752C13.804 232.016 14.176 232.148 14.648 232.148C15.12 232.148 15.484 232.016 15.74 231.752C16.004 231.48 16.136 231.096 16.136 230.6H17.216C17.216 231.376 16.984 231.992 16.52 232.448C16.056 232.896 15.432 233.12 14.648 233.12ZM20.3433 235.16L21.3153 232.592L18.7953 226.4H19.9713L21.5793 230.48C21.6353 230.616 21.6873 230.78 21.7353 230.972C21.7913 231.156 21.8353 231.312 21.8673 231.44C21.8993 231.312 21.9433 231.156 21.9993 230.972C22.0553 230.78 22.1113 230.616 22.1673 230.48L23.6673 226.4H24.7953L21.4713 235.16H20.3433ZM26.5066 235.16V226.4H27.5866V227.66H27.5986C27.6546 227.228 27.8426 226.892 28.1626 226.652C28.4906 226.404 28.9026 226.28 29.3986 226.28C30.0626 226.28 30.5906 226.5 30.9826 226.94C31.3826 227.372 31.5826 227.968 31.5826 228.728V230.66C31.5826 231.42 31.3826 232.02 30.9826 232.46C30.5906 232.9 30.0626 233.12 29.3986 233.12C28.9026 233.12 28.4946 232.996 28.1746 232.748C27.8546 232.5 27.6626 232.164 27.5986 231.74H27.5626L27.5866 233.24V235.16H26.5066ZM29.0386 232.184C29.4946 232.184 29.8506 232.048 30.1066 231.776C30.3706 231.504 30.5026 231.112 30.5026 230.6V228.8C30.5026 228.288 30.3706 227.896 30.1066 227.624C29.8506 227.352 29.4946 227.216 29.0386 227.216C28.5986 227.216 28.2466 227.356 27.9826 227.636C27.7186 227.916 27.5866 228.304 27.5866 228.8V230.6C27.5866 231.096 27.7186 231.484 27.9826 231.764C28.2466 232.044 28.5986 232.184 29.0386 232.184ZM33.8939 233V226.4H34.9739V227.66H34.9859C35.0419 227.22 35.2219 226.88 35.5259 226.64C35.8299 226.4 36.2339 226.28 36.7379 226.28C37.4259 226.28 37.9739 226.5 38.3819 226.94C38.7899 227.372 38.9939 227.96 38.9939 228.704V229.16H37.9139V228.8C37.9139 228.296 37.7859 227.908 37.5299 227.636C37.2739 227.356 36.9019 227.216 36.4139 227.216C35.4539 227.216 34.9739 227.744 34.9739 228.8V233H33.8939ZM43.3813 233.12C42.8613 233.12 42.4053 233.016 42.0133 232.808C41.6293 232.6 41.3293 232.308 41.1133 231.932C40.9053 231.548 40.8013 231.104 40.8013 230.6V228.8C40.8013 228.288 40.9053 227.844 41.1133 227.468C41.3293 227.092 41.6293 226.8 42.0133 226.592C42.4053 226.384 42.8613 226.28 43.3813 226.28C43.9013 226.28 44.3533 226.384 44.7373 226.592C45.1293 226.8 45.4293 227.092 45.6373 227.468C45.8533 227.844 45.9613 228.288 45.9613 228.8V229.964H41.8573V230.6C41.8573 231.12 41.9893 231.52 42.2533 231.8C42.5173 232.072 42.8933 232.208 43.3813 232.208C43.7973 232.208 44.1333 232.136 44.3893 231.992C44.6453 231.84 44.8013 231.616 44.8573 231.32H45.9373C45.8653 231.872 45.5933 232.312 45.1213 232.64C44.6573 232.96 44.0773 233.12 43.3813 233.12ZM41.8573 229.148H44.9053V228.8C44.9053 228.28 44.7733 227.88 44.5093 227.6C44.2533 227.32 43.8773 227.18 43.3813 227.18C42.8933 227.18 42.5173 227.32 42.2533 227.6C41.9893 227.88 41.8573 228.28 41.8573 228.8V229.148ZM50.3726 233.096C49.6926 233.096 49.1366 232.94 48.7046 232.628C48.2726 232.316 48.0566 231.888 48.0566 231.344H49.1606C49.1606 231.592 49.2766 231.788 49.5086 231.932C49.7486 232.068 50.0446 232.136 50.3966 232.136H50.9006C51.3246 232.136 51.6406 232.052 51.8486 231.884C52.0566 231.708 52.1606 231.476 52.1606 231.188C52.1606 230.908 52.0606 230.688 51.8606 230.528C51.6686 230.36 51.3886 230.248 51.0206 230.192L50.1326 230.048C49.4766 229.936 48.9926 229.728 48.6806 229.424C48.3686 229.12 48.2126 228.7 48.2126 228.164C48.2126 227.564 48.4046 227.104 48.7886 226.784C49.1806 226.464 49.7406 226.304 50.4686 226.304H50.9246C51.5966 226.304 52.1326 226.456 52.5326 226.76C52.9406 227.056 53.1446 227.452 53.1446 227.948H52.0406C52.0406 227.74 51.9366 227.576 51.7286 227.456C51.5286 227.328 51.2526 227.264 50.9006 227.264H50.4446C50.0686 227.264 49.7766 227.344 49.5686 227.504C49.3686 227.656 49.2686 227.876 49.2686 228.164C49.2686 228.644 49.6086 228.94 50.2886 229.052L51.1766 229.196C51.8886 229.308 52.4046 229.516 52.7246 229.82C53.0526 230.124 53.2166 230.564 53.2166 231.14C53.2166 231.748 53.0206 232.228 52.6286 232.58C52.2446 232.924 51.6606 233.096 50.8766 233.096H50.3726ZM57.5679 233.096C56.8879 233.096 56.3319 232.94 55.8999 232.628C55.4679 232.316 55.2519 231.888 55.2519 231.344H56.3559C56.3559 231.592 56.4719 231.788 56.7039 231.932C56.9439 232.068 57.2399 232.136 57.5919 232.136H58.0959C58.5199 232.136 58.8359 232.052 59.0439 231.884C59.2519 231.708 59.3559 231.476 59.3559 231.188C59.3559 230.908 59.2559 230.688 59.0559 230.528C58.8639 230.36 58.5839 230.248 58.2159 230.192L57.3279 230.048C56.6719 229.936 56.1879 229.728 55.8759 229.424C55.5639 229.12 55.4079 228.7 55.4079 228.164C55.4079 227.564 55.5999 227.104 55.9839 226.784C56.3759 226.464 56.9359 226.304 57.6639 226.304H58.1199C58.7919 226.304 59.3279 226.456 59.7279 226.76C60.1359 227.056 60.3399 227.452 60.3399 227.948H59.2359C59.2359 227.74 59.1319 227.576 58.9239 227.456C58.7239 227.328 58.4479 227.264 58.0959 227.264H57.6399C57.2639 227.264 56.9719 227.344 56.7639 227.504C56.5639 227.656 56.4639 227.876 56.4639 228.164C56.4639 228.644 56.8039 228.94 57.4839 229.052L58.3719 229.196C59.0839 229.308 59.5999 229.516 59.9199 229.82C60.2479 230.124 60.4119 230.564 60.4119 231.14C60.4119 231.748 60.2159 232.228 59.8239 232.58C59.4399 232.924 58.8559 233.096 58.0719 233.096H57.5679Z" fill="#DDDDDD"/>
<rect x="1" width="164" height="26" rx="13" fill="#F4322C"/>
<path d="M14.648 17.12C13.848 17.12 13.216 16.896 12.752 16.448C12.288 16 12.056 15.384 12.056 14.6V10.64C12.056 9.856 12.288 9.24 12.752 8.792C13.216 8.344 13.848 8.12 14.648 8.12C15.432 8.12 16.056 8.348 16.52 8.804C16.984 9.252 17.216 9.864 17.216 10.64H16.136C16.136 10.144 16.004 9.764 15.74 9.5C15.484 9.228 15.12 9.092 14.648 9.092C14.176 9.092 13.804 9.224 13.532 9.488C13.268 9.752 13.136 10.132 13.136 10.628V14.6C13.136 15.096 13.268 15.48 13.532 15.752C13.804 16.016 14.176 16.148 14.648 16.148C15.12 16.148 15.484 16.016 15.74 15.752C16.004 15.48 16.136 15.096 16.136 14.6H17.216C17.216 15.376 16.984 15.992 16.52 16.448C16.056 16.896 15.432 17.12 14.648 17.12ZM21.7833 17.12C21.0233 17.12 20.4153 16.896 19.9593 16.448C19.5033 15.992 19.2753 15.376 19.2753 14.6V10.4H20.3553V14.6C20.3553 15.096 20.4833 15.484 20.7393 15.764C20.9953 16.036 21.3433 16.172 21.7833 16.172C22.2313 16.172 22.5833 16.036 22.8393 15.764C23.1033 15.484 23.2353 15.096 23.2353 14.6V10.4H24.3153V14.6C24.3153 15.376 24.0833 15.992 23.6193 16.448C23.1553 16.896 22.5433 17.12 21.7833 17.12ZM28.7866 17.096C28.1066 17.096 27.5506 16.94 27.1186 16.628C26.6866 16.316 26.4706 15.888 26.4706 15.344H27.5746C27.5746 15.592 27.6906 15.788 27.9226 15.932C28.1626 16.068 28.4586 16.136 28.8106 16.136H29.3146C29.7386 16.136 30.0546 16.052 30.2626 15.884C30.4706 15.708 30.5746 15.476 30.5746 15.188C30.5746 14.908 30.4746 14.688 30.2746 14.528C30.0826 14.36 29.8026 14.248 29.4346 14.192L28.5466 14.048C27.8906 13.936 27.4066 13.728 27.0946 13.424C26.7826 13.12 26.6266 12.7 26.6266 12.164C26.6266 11.564 26.8186 11.104 27.2026 10.784C27.5946 10.464 28.1546 10.304 28.8826 10.304H29.3386C30.0106 10.304 30.5466 10.456 30.9466 10.76C31.3546 11.056 31.5586 11.452 31.5586 11.948H30.4546C30.4546 11.74 30.3506 11.576 30.1426 11.456C29.9426 11.328 29.6666 11.264 29.3146 11.264H28.8586C28.4826 11.264 28.1906 11.344 27.9826 11.504C27.7826 11.656 27.6826 11.876 27.6826 12.164C27.6826 12.644 28.0226 12.94 28.7026 13.052L29.5906 13.196C30.3026 13.308 30.8186 13.516 31.1386 13.82C31.4666 14.124 31.6306 14.564 31.6306 15.14C31.6306 15.748 31.4346 16.228 31.0426 16.58C30.6586 16.924 30.0746 17.096 29.2906 17.096H28.7866ZM36.9059 17C36.3619 17 35.9259 16.844 35.5979 16.532C35.2699 16.212 35.1059 15.788 35.1059 15.26V11.384H33.2459V10.4H35.1059V8.54H36.1859V10.4H38.8259V11.384H36.1859V15.26C36.1859 15.484 36.2499 15.668 36.3779 15.812C36.5139 15.948 36.6899 16.016 36.9059 16.016H38.7059V17H36.9059ZM43.3813 17.096C42.5813 17.096 41.9493 16.872 41.4853 16.424C41.0293 15.968 40.8013 15.352 40.8013 14.576V12.824C40.8013 12.04 41.0293 11.424 41.4853 10.976C41.9493 10.528 42.5813 10.304 43.3813 10.304C44.1813 10.304 44.8093 10.528 45.2653 10.976C45.7293 11.424 45.9613 12.036 45.9613 12.812V14.576C45.9613 15.352 45.7293 15.968 45.2653 16.424C44.8093 16.872 44.1813 17.096 43.3813 17.096ZM43.3813 16.136C43.8533 16.136 44.2213 16.004 44.4853 15.74C44.7493 15.476 44.8813 15.088 44.8813 14.576V12.824C44.8813 12.312 44.7493 11.924 44.4853 11.66C44.2213 11.396 43.8533 11.264 43.3813 11.264C42.9173 11.264 42.5493 11.396 42.2773 11.66C42.0133 11.924 41.8813 12.312 41.8813 12.824V14.576C41.8813 15.088 42.0133 15.476 42.2773 15.74C42.5493 16.004 42.9173 16.136 43.3813 16.136ZM47.6966 17V10.4H48.6446V11.192H48.7166C48.7726 10.92 48.8966 10.7 49.0886 10.532C49.2886 10.364 49.5326 10.28 49.8206 10.28C50.0846 10.28 50.3126 10.364 50.5046 10.532C50.6966 10.692 50.8326 10.912 50.9126 11.192H50.9846C51.0406 10.92 51.1686 10.7 51.3686 10.532C51.5686 10.364 51.8166 10.28 52.1126 10.28C52.5126 10.28 52.8366 10.44 53.0846 10.76C53.3326 11.072 53.4566 11.48 53.4566 11.984V17H52.4606V11.972C52.4606 11.692 52.3966 11.48 52.2686 11.336C52.1486 11.184 51.9726 11.108 51.7406 11.108C51.5086 11.108 51.3286 11.184 51.2006 11.336C51.0726 11.48 51.0086 11.688 51.0086 11.96V17H50.1446V11.972C50.1446 11.692 50.0766 11.48 49.9406 11.336C49.8126 11.184 49.6326 11.108 49.4006 11.108C49.1766 11.108 49.0006 11.184 48.8726 11.336C48.7526 11.48 48.6926 11.688 48.6926 11.96V17H47.6966ZM65.0152 17.12C64.2152 17.12 63.5832 16.896 63.1192 16.448C62.6552 16 62.4232 15.384 62.4232 14.6V10.64C62.4232 9.856 62.6552 9.24 63.1192 8.792C63.5832 8.344 64.2152 8.12 65.0152 8.12C65.7992 8.12 66.4232 8.348 66.8872 8.804C67.3512 9.252 67.5832 9.864 67.5832 10.64H66.5032C66.5032 10.144 66.3712 9.764 66.1072 9.5C65.8512 9.228 65.4872 9.092 65.0152 9.092C64.5432 9.092 64.1712 9.224 63.8992 9.488C63.6352 9.752 63.5032 10.132 63.5032 10.628V14.6C63.5032 15.096 63.6352 15.48 63.8992 15.752C64.1712 16.016 64.5432 16.148 65.0152 16.148C65.4872 16.148 65.8512 16.016 66.1072 15.752C66.3712 15.48 66.5032 15.096 66.5032 14.6H67.5832C67.5832 15.376 67.3512 15.992 66.8872 16.448C66.4232 16.896 65.7992 17.12 65.0152 17.12ZM69.4745 17V8.24H70.8905L71.8265 11.072C71.9145 11.328 71.9865 11.584 72.0425 11.84C72.1065 12.088 72.1545 12.28 72.1865 12.416C72.2185 12.28 72.2665 12.088 72.3305 11.84C72.3945 11.584 72.4665 11.324 72.5465 11.06L73.4345 8.24H74.8505V17H73.7945V12.86C73.7945 12.148 73.8265 11.448 73.8905 10.76C73.9545 10.072 74.0265 9.412 74.1065 8.78L72.6785 13.16H71.6465L70.2065 8.78C70.2945 9.388 70.3705 10.024 70.4345 10.688C70.4985 11.352 70.5305 12.076 70.5305 12.86V17H69.4745ZM79.4058 17.12C78.5578 17.12 77.8818 16.9 77.3778 16.46C76.8738 16.02 76.6218 15.432 76.6218 14.696H77.7018C77.7018 15.136 77.8578 15.492 78.1698 15.764C78.4818 16.028 78.8938 16.16 79.4058 16.16C79.9018 16.16 80.2978 16.028 80.5938 15.764C80.8898 15.492 81.0378 15.136 81.0378 14.696C81.0378 14.352 80.9458 14.052 80.7618 13.796C80.5858 13.532 80.3418 13.352 80.0298 13.256L78.7338 12.848C78.1498 12.664 77.6898 12.36 77.3538 11.936C77.0258 11.512 76.8618 11.02 76.8618 10.46C76.8618 9.748 77.0938 9.18 77.5578 8.756C78.0298 8.332 78.6538 8.12 79.4298 8.12C80.2058 8.12 80.8258 8.332 81.2898 8.756C81.7538 9.18 81.9858 9.748 81.9858 10.46H80.9058C80.9058 10.036 80.7698 9.7 80.4978 9.452C80.2338 9.204 79.8778 9.08 79.4298 9.08C78.9738 9.08 78.6058 9.204 78.3258 9.452C78.0538 9.7 77.9178 10.028 77.9178 10.436C77.9178 10.756 78.0098 11.032 78.1938 11.264C78.3778 11.496 78.6298 11.664 78.9498 11.768L80.2938 12.2C80.8458 12.376 81.2818 12.688 81.6018 13.136C81.9298 13.584 82.0938 14.104 82.0938 14.696C82.0938 15.432 81.8498 16.02 81.3618 16.46C80.8738 16.9 80.2218 17.12 79.4058 17.12ZM91.2524 17V8.24H94.0724C94.8884 8.24 95.5364 8.476 96.0164 8.948C96.5044 9.412 96.7484 10.036 96.7484 10.82C96.7484 11.604 96.5044 12.232 96.0164 12.704C95.5364 13.168 94.8884 13.4 94.0724 13.4H92.3324V17H91.2524ZM92.3324 12.428H94.0724C94.5444 12.428 94.9204 12.284 95.2004 11.996C95.4884 11.7 95.6324 11.308 95.6324 10.82C95.6324 10.324 95.4884 9.932 95.2004 9.644C94.9204 9.356 94.5444 9.212 94.0724 9.212H92.3324V12.428ZM101.904 17C101.32 17 100.852 16.832 100.5 16.496C100.156 16.152 99.9838 15.7 99.9838 15.14V9.224H97.7038V8.24H101.064V15.14C101.064 15.412 101.14 15.628 101.292 15.788C101.444 15.94 101.648 16.016 101.904 16.016H103.944V17H101.904ZM107.563 17.12C106.867 17.12 106.319 16.944 105.919 16.592C105.519 16.232 105.319 15.748 105.319 15.14C105.319 14.524 105.519 14.04 105.919 13.688C106.319 13.336 106.859 13.16 107.539 13.16H109.579V12.5C109.579 12.1 109.455 11.788 109.207 11.564C108.967 11.34 108.631 11.228 108.199 11.228C107.815 11.228 107.491 11.312 107.227 11.48C106.963 11.648 106.799 11.868 106.735 12.14H105.655C105.695 11.772 105.827 11.448 106.051 11.168C106.283 10.888 106.583 10.672 106.951 10.52C107.327 10.36 107.743 10.28 108.199 10.28C108.959 10.28 109.559 10.476 109.999 10.868C110.439 11.26 110.659 11.792 110.659 12.464V17H109.603V15.74H109.591C109.543 16.164 109.335 16.5 108.967 16.748C108.607 16.996 108.139 17.12 107.563 17.12ZM107.827 16.268C108.339 16.268 108.759 16.14 109.087 15.884C109.415 15.628 109.579 15.3 109.579 14.9V13.964H107.563C107.203 13.964 106.919 14.064 106.711 14.264C106.503 14.464 106.399 14.736 106.399 15.08C106.399 15.448 106.523 15.74 106.771 15.956C107.027 16.164 107.379 16.268 107.827 16.268ZM116.054 17C115.51 17 115.074 16.844 114.746 16.532C114.418 16.212 114.254 15.788 114.254 15.26V11.384H112.394V10.4H114.254V8.54H115.334V10.4H117.974V11.384H115.334V15.26C115.334 15.484 115.398 15.668 115.526 15.812C115.662 15.948 115.838 16.016 116.054 16.016H117.854V17H116.054ZM121.57 17V12.044H119.65V11.06H121.57V9.92C121.57 9.4 121.734 8.992 122.062 8.696C122.39 8.392 122.842 8.24 123.418 8.24H125.35V9.224H123.418C122.906 9.224 122.65 9.456 122.65 9.92V11.06H125.35V12.044H122.65V17H121.57ZM129.725 17.096C128.925 17.096 128.293 16.872 127.829 16.424C127.373 15.968 127.145 15.352 127.145 14.576V12.824C127.145 12.04 127.373 11.424 127.829 10.976C128.293 10.528 128.925 10.304 129.725 10.304C130.525 10.304 131.153 10.528 131.609 10.976C132.073 11.424 132.305 12.036 132.305 12.812V14.576C132.305 15.352 132.073 15.968 131.609 16.424C131.153 16.872 130.525 17.096 129.725 17.096ZM129.725 16.136C130.197 16.136 130.565 16.004 130.829 15.74C131.093 15.476 131.225 15.088 131.225 14.576V12.824C131.225 12.312 131.093 11.924 130.829 11.66C130.565 11.396 130.197 11.264 129.725 11.264C129.261 11.264 128.893 11.396 128.621 11.66C128.357 11.924 128.225 12.312 128.225 12.824V14.576C128.225 15.088 128.357 15.476 128.621 15.74C128.893 16.004 129.261 16.136 129.725 16.136ZM134.628 17V10.4H135.708V11.66H135.72C135.776 11.22 135.956 10.88 136.26 10.64C136.564 10.4 136.968 10.28 137.472 10.28C138.16 10.28 138.708 10.5 139.116 10.94C139.524 11.372 139.728 11.96 139.728 12.704V13.16H138.648V12.8C138.648 12.296 138.52 11.908 138.264 11.636C138.008 11.356 137.636 11.216 137.148 11.216C136.188 11.216 135.708 11.744 135.708 12.8V17H134.628ZM141.236 17V10.4H142.184V11.192H142.256C142.312 10.92 142.436 10.7 142.628 10.532C142.828 10.364 143.072 10.28 143.36 10.28C143.624 10.28 143.852 10.364 144.044 10.532C144.236 10.692 144.372 10.912 144.452 11.192H144.524C144.58 10.92 144.708 10.7 144.908 10.532C145.108 10.364 145.356 10.28 145.652 10.28C146.052 10.28 146.376 10.44 146.624 10.76C146.872 11.072 146.996 11.48 146.996 11.984V17H146V11.972C146 11.692 145.936 11.48 145.808 11.336C145.688 11.184 145.512 11.108 145.28 11.108C145.048 11.108 144.868 11.184 144.74 11.336C144.612 11.48 144.548 11.688 144.548 11.96V17H143.684V11.972C143.684 11.692 143.616 11.48 143.48 11.336C143.352 11.184 143.172 11.108 142.94 11.108C142.716 11.108 142.54 11.184 142.412 11.336C142.292 11.48 142.232 11.688 142.232 11.96V17H141.236ZM151.107 17.096C150.427 17.096 149.871 16.94 149.439 16.628C149.007 16.316 148.791 15.888 148.791 15.344H149.895C149.895 15.592 150.011 15.788 150.243 15.932C150.483 16.068 150.779 16.136 151.131 16.136H151.635C152.059 16.136 152.375 16.052 152.583 15.884C152.791 15.708 152.895 15.476 152.895 15.188C152.895 14.908 152.795 14.688 152.595 14.528C152.403 14.36 152.123 14.248 151.755 14.192L150.867 14.048C150.211 13.936 149.727 13.728 149.415 13.424C149.103 13.12 148.947 12.7 148.947 12.164C148.947 11.564 149.139 11.104 149.523 10.784C149.915 10.464 150.475 10.304 151.203 10.304H151.659C152.331 10.304 152.867 10.456 153.267 10.76C153.675 11.056 153.879 11.452 153.879 11.948H152.775C152.775 11.74 152.671 11.576 152.463 11.456C152.263 11.328 151.987 11.264 151.635 11.264H151.179C150.803 11.264 150.511 11.344 150.303 11.504C150.103 11.656 150.003 11.876 150.003 12.164C150.003 12.644 150.343 12.94 151.023 13.052L151.911 13.196C152.623 13.308 153.139 13.516 153.459 13.82C153.787 14.124 153.951 14.564 153.951 15.14C153.951 15.748 153.755 16.228 153.363 16.58C152.979 16.924 152.395 17.096 151.611 17.096H151.107Z" fill="#DDDDDD"/>
<rect x="1" y="130" width="71" height="26" rx="13" fill="#F4322C"/>
<path d="M12.104 147V138.24H14.372C14.94 138.24 15.428 138.348 15.836 138.564C16.252 138.78 16.572 139.084 16.796 139.476C17.028 139.868 17.144 140.332 17.144 140.868V144.36C17.144 144.896 17.028 145.364 16.796 145.764C16.572 146.156 16.252 146.46 15.836 146.676C15.428 146.892 14.94 147 14.372 147H12.104ZM13.184 146.04H14.372C14.9 146.04 15.312 145.892 15.608 145.596C15.912 145.3 16.064 144.888 16.064 144.36V140.868C16.064 140.348 15.912 139.94 15.608 139.644C15.312 139.348 14.9 139.2 14.372 139.2H13.184V146.04ZM21.7953 147.12C21.2753 147.12 20.8193 147.016 20.4273 146.808C20.0433 146.6 19.7433 146.308 19.5273 145.932C19.3193 145.548 19.2153 145.104 19.2153 144.6V142.8C19.2153 142.288 19.3193 141.844 19.5273 141.468C19.7433 141.092 20.0433 140.8 20.4273 140.592C20.8193 140.384 21.2753 140.28 21.7953 140.28C22.3153 140.28 22.7673 140.384 23.1513 140.592C23.5433 140.8 23.8433 141.092 24.0513 141.468C24.2673 141.844 24.3753 142.288 24.3753 142.8V143.964H20.2713V144.6C20.2713 145.12 20.4033 145.52 20.6673 145.8C20.9313 146.072 21.3073 146.208 21.7953 146.208C22.2113 146.208 22.5473 146.136 22.8033 145.992C23.0593 145.84 23.2153 145.616 23.2713 145.32H24.3513C24.2793 145.872 24.0073 146.312 23.5353 146.64C23.0713 146.96 22.4913 147.12 21.7953 147.12ZM20.2713 143.148H23.3193V142.8C23.3193 142.28 23.1873 141.88 22.9233 141.6C22.6673 141.32 22.2913 141.18 21.7953 141.18C21.3073 141.18 20.9313 141.32 20.6673 141.6C20.4033 141.88 20.2713 142.28 20.2713 142.8V143.148ZM28.2826 147L25.9906 140.4H27.1066L28.6426 144.84C28.7306 145.104 28.8066 145.36 28.8706 145.608C28.9346 145.848 28.9826 146.036 29.0146 146.172C29.0546 146.036 29.1026 145.848 29.1586 145.608C29.2146 145.36 29.2866 145.104 29.3746 144.84L30.8626 140.4H31.9906L29.6986 147H28.2826ZM43.3813 147.12C42.5973 147.12 41.9773 146.896 41.5213 146.448C41.0653 146 40.8373 145.384 40.8373 144.6V140.64C40.8373 139.856 41.0653 139.24 41.5213 138.792C41.9773 138.344 42.5973 138.12 43.3813 138.12C44.1653 138.12 44.7853 138.344 45.2413 138.792C45.6973 139.232 45.9253 139.844 45.9253 140.628V144.6C45.9253 145.384 45.6973 146 45.2413 146.448C44.7853 146.896 44.1653 147.12 43.3813 147.12ZM43.3813 146.148C43.8533 146.148 44.2133 146.016 44.4613 145.752C44.7173 145.48 44.8453 145.096 44.8453 144.6V140.64C44.8453 140.144 44.7173 139.764 44.4613 139.5C44.2133 139.228 43.8533 139.092 43.3813 139.092C42.9173 139.092 42.5573 139.228 42.3013 139.5C42.0453 139.764 41.9173 140.144 41.9173 140.64V144.6C41.9173 145.096 42.0453 145.48 42.3013 145.752C42.5573 146.016 42.9173 146.148 43.3813 146.148ZM48.0926 149.16V140.4H49.1726V141.66H49.1846C49.2406 141.228 49.4286 140.892 49.7486 140.652C50.0766 140.404 50.4886 140.28 50.9846 140.28C51.6486 140.28 52.1766 140.5 52.5686 140.94C52.9686 141.372 53.1686 141.968 53.1686 142.728V144.66C53.1686 145.42 52.9686 146.02 52.5686 146.46C52.1766 146.9 51.6486 147.12 50.9846 147.12C50.4886 147.12 50.0806 146.996 49.7606 146.748C49.4406 146.5 49.2486 146.164 49.1846 145.74H49.1486L49.1726 147.24V149.16H48.0926ZM50.6246 146.184C51.0806 146.184 51.4366 146.048 51.6926 145.776C51.9566 145.504 52.0886 145.112 52.0886 144.6V142.8C52.0886 142.288 51.9566 141.896 51.6926 141.624C51.4366 141.352 51.0806 141.216 50.6246 141.216C50.1846 141.216 49.8326 141.356 49.5686 141.636C49.3046 141.916 49.1726 142.304 49.1726 142.8V144.6C49.1726 145.096 49.3046 145.484 49.5686 145.764C49.8326 146.044 50.1846 146.184 50.6246 146.184ZM57.5679 147.096C56.8879 147.096 56.3319 146.94 55.8999 146.628C55.4679 146.316 55.2519 145.888 55.2519 145.344H56.3559C56.3559 145.592 56.4719 145.788 56.7039 145.932C56.9439 146.068 57.2399 146.136 57.5919 146.136H58.0959C58.5199 146.136 58.8359 146.052 59.0439 145.884C59.2519 145.708 59.3559 145.476 59.3559 145.188C59.3559 144.908 59.2559 144.688 59.0559 144.528C58.8639 144.36 58.5839 144.248 58.2159 144.192L57.3279 144.048C56.6719 143.936 56.1879 143.728 55.8759 143.424C55.5639 143.12 55.4079 142.7 55.4079 142.164C55.4079 141.564 55.5999 141.104 55.9839 140.784C56.3759 140.464 56.9359 140.304 57.6639 140.304H58.1199C58.7919 140.304 59.3279 140.456 59.7279 140.76C60.1359 141.056 60.3399 141.452 60.3399 141.948H59.2359C59.2359 141.74 59.1319 141.576 58.9239 141.456C58.7239 141.328 58.4479 141.264 58.0959 141.264H57.6399C57.2639 141.264 56.9719 141.344 56.7639 141.504C56.5639 141.656 56.4639 141.876 56.4639 142.164C56.4639 142.644 56.8039 142.94 57.4839 143.052L58.3719 143.196C59.0839 143.308 59.5999 143.516 59.9199 143.82C60.2479 144.124 60.4119 144.564 60.4119 145.14C60.4119 145.748 60.2159 146.228 59.8239 146.58C59.4399 146.924 58.8559 147.096 58.0719 147.096H57.5679Z" fill="#DDDDDD"/>
<rect x="1" y="87" width="64" height="26" rx="13" fill="#F4322C"/>
<path d="M12.104 104V95.24H14.372C14.94 95.24 15.428 95.348 15.836 95.564C16.252 95.78 16.572 96.084 16.796 96.476C17.028 96.868 17.144 97.332 17.144 97.868V101.36C17.144 101.896 17.028 102.364 16.796 102.764C16.572 103.156 16.252 103.46 15.836 103.676C15.428 103.892 14.94 104 14.372 104H12.104ZM13.184 103.04H14.372C14.9 103.04 15.312 102.892 15.608 102.596C15.912 102.3 16.064 101.888 16.064 101.36V97.868C16.064 97.348 15.912 96.94 15.608 96.644C15.312 96.348 14.9 96.2 14.372 96.2H13.184V103.04ZM21.7953 104.096C20.9953 104.096 20.3633 103.872 19.8993 103.424C19.4433 102.968 19.2153 102.352 19.2153 101.576V99.824C19.2153 99.04 19.4433 98.424 19.8993 97.976C20.3633 97.528 20.9953 97.304 21.7953 97.304C22.5953 97.304 23.2233 97.528 23.6793 97.976C24.1433 98.424 24.3753 99.036 24.3753 99.812V101.576C24.3753 102.352 24.1433 102.968 23.6793 103.424C23.2233 103.872 22.5953 104.096 21.7953 104.096ZM21.7953 103.136C22.2673 103.136 22.6353 103.004 22.8993 102.74C23.1633 102.476 23.2953 102.088 23.2953 101.576V99.824C23.2953 99.312 23.1633 98.924 22.8993 98.66C22.6353 98.396 22.2673 98.264 21.7953 98.264C21.3313 98.264 20.9633 98.396 20.6913 98.66C20.4273 98.924 20.2953 99.312 20.2953 99.824V101.576C20.2953 102.088 20.4273 102.476 20.6913 102.74C20.9633 103.004 21.3313 103.136 21.7953 103.136ZM26.5306 104V95.24H27.6106V100.124H28.8826L30.8026 97.4H32.0386L29.8186 100.544L32.0746 104H30.8146L28.8946 101.06H27.6106V104H26.5306ZM33.7259 104V95.24H34.8059V100.124H36.0779L37.9979 97.4H39.2339L37.0139 100.544L39.2699 104H38.0099L36.0899 101.06H34.8059V104H33.7259ZM43.3813 104.12C42.8613 104.12 42.4053 104.016 42.0133 103.808C41.6293 103.6 41.3293 103.308 41.1133 102.932C40.9053 102.548 40.8013 102.104 40.8013 101.6V99.8C40.8013 99.288 40.9053 98.844 41.1133 98.468C41.3293 98.092 41.6293 97.8 42.0133 97.592C42.4053 97.384 42.8613 97.28 43.3813 97.28C43.9013 97.28 44.3533 97.384 44.7373 97.592C45.1293 97.8 45.4293 98.092 45.6373 98.468C45.8533 98.844 45.9613 99.288 45.9613 99.8V100.964H41.8573V101.6C41.8573 102.12 41.9893 102.52 42.2533 102.8C42.5173 103.072 42.8933 103.208 43.3813 103.208C43.7973 103.208 44.1333 103.136 44.3893 102.992C44.6453 102.84 44.8013 102.616 44.8573 102.32H45.9373C45.8653 102.872 45.5933 103.312 45.1213 103.64C44.6573 103.96 44.0773 104.12 43.3813 104.12ZM41.8573 100.148H44.9053V99.8C44.9053 99.28 44.7733 98.88 44.5093 98.6C44.2533 98.32 43.8773 98.18 43.3813 98.18C42.8933 98.18 42.5173 98.32 42.2533 98.6C41.9893 98.88 41.8573 99.28 41.8573 99.8V100.148ZM48.2846 104V97.4H49.3646V98.66H49.3766C49.4326 98.22 49.6126 97.88 49.9166 97.64C50.2206 97.4 50.6246 97.28 51.1286 97.28C51.8166 97.28 52.3646 97.5 52.7726 97.94C53.1806 98.372 53.3846 98.96 53.3846 99.704V100.16H52.3046V99.8C52.3046 99.296 52.1766 98.908 51.9206 98.636C51.6646 98.356 51.2926 98.216 50.8046 98.216C49.8446 98.216 49.3646 98.744 49.3646 99.8V104H48.2846Z" fill="#DDDDDD"/>
</svg>
