<svg width="215" height="212" viewBox="0 0 215 212" fill="none" xmlns="http://www.w3.org/2000/svg">
<rect width="186" height="26" rx="13" fill="#F4322C"/>
<path d="M13.24 17.12C12.4 17.12 11.74 16.884 11.26 16.412C10.78 15.94 10.54 15.296 10.54 14.48H11.62C11.62 15.016 11.76 15.432 12.04 15.728C12.328 16.016 12.728 16.16 13.24 16.16C13.752 16.16 14.148 16.016 14.428 15.728C14.716 15.432 14.86 15.016 14.86 14.48V9.224H12.4V8.24H15.94V14.48C15.94 15.296 15.696 15.94 15.208 16.412C14.728 16.884 14.072 17.12 13.24 17.12ZM20.2193 17.12C19.5233 17.12 18.9753 16.944 18.5753 16.592C18.1753 16.232 17.9753 15.748 17.9753 15.14C17.9753 14.524 18.1753 14.04 18.5753 13.688C18.9753 13.336 19.5153 13.16 20.1953 13.16H22.2353V12.5C22.2353 12.1 22.1113 11.788 21.8633 11.564C21.6233 11.34 21.2873 11.228 20.8553 11.228C20.4713 11.228 20.1473 11.312 19.8833 11.48C19.6193 11.648 19.4553 11.868 19.3913 12.14H18.3113C18.3513 11.772 18.4833 11.448 18.7073 11.168C18.9393 10.888 19.2393 10.672 19.6073 10.52C19.9833 10.36 20.3993 10.28 20.8553 10.28C21.6153 10.28 22.2153 10.476 22.6553 10.868C23.0953 11.26 23.3153 11.792 23.3153 12.464V17H22.2593V15.74H22.2473C22.1993 16.164 21.9913 16.5 21.6233 16.748C21.2633 16.996 20.7953 17.12 20.2193 17.12ZM20.4833 16.268C20.9953 16.268 21.4153 16.14 21.7433 15.884C22.0713 15.628 22.2353 15.3 22.2353 14.9V13.964H20.2193C19.8593 13.964 19.5753 14.064 19.3673 14.264C19.1593 14.464 19.0553 14.736 19.0553 15.08C19.0553 15.448 19.1793 15.74 19.4273 15.956C19.6833 16.164 20.0353 16.268 20.4833 16.268ZM27.2826 17L24.9906 10.4H26.1066L27.6426 14.84C27.7306 15.104 27.8066 15.36 27.8706 15.608C27.9346 15.848 27.9826 16.036 28.0146 16.172C28.0546 16.036 28.1026 15.848 28.1586 15.608C28.2146 15.36 28.2866 15.104 28.3746 14.84L29.8626 10.4H30.9906L28.6986 17H27.2826ZM34.6099 17.12C33.9139 17.12 33.3659 16.944 32.9659 16.592C32.5659 16.232 32.3659 15.748 32.3659 15.14C32.3659 14.524 32.5659 14.04 32.9659 13.688C33.3659 13.336 33.9059 13.16 34.5859 13.16H36.6259V12.5C36.6259 12.1 36.5019 11.788 36.2539 11.564C36.0139 11.34 35.6779 11.228 35.2459 11.228C34.8619 11.228 34.5379 11.312 34.2739 11.48C34.0099 11.648 33.8459 11.868 33.7819 12.14H32.7019C32.7419 11.772 32.8739 11.448 33.0979 11.168C33.3299 10.888 33.6299 10.672 33.9979 10.52C34.3739 10.36 34.7899 10.28 35.2459 10.28C36.0059 10.28 36.6059 10.476 37.0459 10.868C37.4859 11.26 37.7059 11.792 37.7059 12.464V17H36.6499V15.74H36.6379C36.5899 16.164 36.3819 16.5 36.0139 16.748C35.6539 16.996 35.1859 17.12 34.6099 17.12ZM34.8739 16.268C35.3859 16.268 35.8059 16.14 36.1339 15.884C36.4619 15.628 36.6259 15.3 36.6259 14.9V13.964H34.6099C34.2499 13.964 33.9659 14.064 33.7579 14.264C33.5499 14.464 33.4459 14.736 33.4459 15.08C33.4459 15.448 33.5699 15.74 33.8179 15.956C34.0739 16.164 34.4259 16.268 34.8739 16.268ZM42.1773 17.096C41.4973 17.096 40.9413 16.94 40.5093 16.628C40.0773 16.316 39.8613 15.888 39.8613 15.344H40.9653C40.9653 15.592 41.0813 15.788 41.3133 15.932C41.5533 16.068 41.8493 16.136 42.2013 16.136H42.7053C43.1293 16.136 43.4453 16.052 43.6533 15.884C43.8613 15.708 43.9653 15.476 43.9653 15.188C43.9653 14.908 43.8653 14.688 43.6653 14.528C43.4733 14.36 43.1933 14.248 42.8253 14.192L41.9373 14.048C41.2813 13.936 40.7973 13.728 40.4853 13.424C40.1733 13.12 40.0173 12.7 40.0173 12.164C40.0173 11.564 40.2093 11.104 40.5933 10.784C40.9853 10.464 41.5453 10.304 42.2733 10.304H42.7293C43.4013 10.304 43.9373 10.456 44.3373 10.76C44.7453 11.056 44.9492 11.452 44.9492 11.948H43.8453C43.8453 11.74 43.7413 11.576 43.5333 11.456C43.3333 11.328 43.0573 11.264 42.7053 11.264H42.2493C41.8733 11.264 41.5813 11.344 41.3733 11.504C41.1733 11.656 41.0733 11.876 41.0733 12.164C41.0733 12.644 41.4133 12.94 42.0933 13.052L42.9813 13.196C43.6933 13.308 44.2093 13.516 44.5293 13.82C44.8573 14.124 45.0213 14.564 45.0213 15.14C45.0213 15.748 44.8253 16.228 44.4333 16.58C44.0493 16.924 43.4653 17.096 42.6813 17.096H42.1773ZM49.6246 17.12C48.8246 17.12 48.1846 16.896 47.7046 16.448C47.2326 16 46.9966 15.384 46.9966 14.6V12.8C46.9966 12.016 47.2326 11.4 47.7046 10.952C48.1846 10.504 48.8246 10.28 49.6246 10.28C50.3846 10.28 50.9966 10.484 51.4606 10.892C51.9246 11.3 52.1686 11.856 52.1926 12.56H51.1126C51.0886 12.136 50.9446 11.812 50.6806 11.588C50.4246 11.356 50.0726 11.24 49.6246 11.24C49.1526 11.24 48.7766 11.376 48.4966 11.648C48.2166 11.912 48.0766 12.292 48.0766 12.788V14.6C48.0766 15.096 48.2166 15.48 48.4966 15.752C48.7766 16.024 49.1526 16.16 49.6246 16.16C50.0726 16.16 50.4246 16.044 50.6806 15.812C50.9446 15.58 51.0886 15.256 51.1126 14.84H52.1926C52.1686 15.544 51.9246 16.1 51.4606 16.508C50.9966 16.916 50.3846 17.12 49.6246 17.12ZM54.4799 17V10.4H55.5599V11.66H55.5719C55.6279 11.22 55.8079 10.88 56.1119 10.64C56.4159 10.4 56.8199 10.28 57.3239 10.28C58.0119 10.28 58.5599 10.5 58.9679 10.94C59.3759 11.372 59.5799 11.96 59.5799 12.704V13.16H58.4999V12.8C58.4999 12.296 58.3719 11.908 58.1159 11.636C57.8599 11.356 57.4879 11.216 56.9999 11.216C56.0399 11.216 55.5599 11.744 55.5599 12.8V17H54.4799ZM61.3872 17V16.016H63.7272V11.384H61.6272V10.4H64.8072V16.016H67.0272V17H61.3872ZM64.1472 9.212C63.8832 9.212 63.6752 9.144 63.5232 9.008C63.3712 8.872 63.2952 8.688 63.2952 8.456C63.2952 8.216 63.3712 8.028 63.5232 7.892C63.6752 7.748 63.8832 7.676 64.1472 7.676C64.4112 7.676 64.6192 7.748 64.7712 7.892C64.9232 8.028 64.9992 8.216 64.9992 8.456C64.9992 8.688 64.9232 8.872 64.7712 9.008C64.6192 9.144 64.4112 9.212 64.1472 9.212ZM68.6785 19.16V10.4H69.7585V11.66H69.7705C69.8265 11.228 70.0145 10.892 70.3345 10.652C70.6625 10.404 71.0745 10.28 71.5705 10.28C72.2345 10.28 72.7625 10.5 73.1545 10.94C73.5545 11.372 73.7545 11.968 73.7545 12.728V14.66C73.7545 15.42 73.5545 16.02 73.1545 16.46C72.7625 16.9 72.2345 17.12 71.5705 17.12C71.0745 17.12 70.6665 16.996 70.3465 16.748C70.0265 16.5 69.8345 16.164 69.7705 15.74H69.7345L69.7585 17.24V19.16H68.6785ZM71.2105 16.184C71.6665 16.184 72.0225 16.048 72.2785 15.776C72.5425 15.504 72.6745 15.112 72.6745 14.6V12.8C72.6745 12.288 72.5425 11.896 72.2785 11.624C72.0225 11.352 71.6665 11.216 71.2105 11.216C70.7705 11.216 70.4185 11.356 70.1545 11.636C69.8905 11.916 69.7585 12.304 69.7585 12.8V14.6C69.7585 15.096 69.8905 15.484 70.1545 15.764C70.4185 16.044 70.7705 16.184 71.2105 16.184ZM79.0778 17C78.5338 17 78.0978 16.844 77.7698 16.532C77.4418 16.212 77.2778 15.788 77.2778 15.26V11.384H75.4178V10.4H77.2778V8.54H78.3578V10.4H80.9978V11.384H78.3578V15.26C78.3578 15.484 78.4218 15.668 78.5498 15.812C78.6858 15.948 78.8618 16.016 79.0778 16.016H80.8778V17H79.0778ZM90.0484 18.32L94.3084 7.04H95.4484L91.1884 18.32H90.0484ZM106.599 17V9.224H104.199V8.24H110.079V9.224H107.679V17H106.599ZM112.882 19.16L113.854 16.592L111.334 10.4H112.51L114.118 14.48C114.174 14.616 114.226 14.78 114.274 14.972C114.33 15.156 114.374 15.312 114.406 15.44C114.438 15.312 114.482 15.156 114.538 14.972C114.594 14.78 114.65 14.616 114.706 14.48L116.206 10.4H117.334L114.01 19.16H112.882ZM119.046 19.16V10.4H120.126V11.66H120.138C120.194 11.228 120.382 10.892 120.702 10.652C121.03 10.404 121.442 10.28 121.938 10.28C122.602 10.28 123.13 10.5 123.522 10.94C123.922 11.372 124.122 11.968 124.122 12.728V14.66C124.122 15.42 123.922 16.02 123.522 16.46C123.13 16.9 122.602 17.12 121.938 17.12C121.442 17.12 121.034 16.996 120.714 16.748C120.394 16.5 120.202 16.164 120.138 15.74H120.102L120.126 17.24V19.16H119.046ZM121.578 16.184C122.034 16.184 122.39 16.048 122.646 15.776C122.91 15.504 123.042 15.112 123.042 14.6V12.8C123.042 12.288 122.91 11.896 122.646 11.624C122.39 11.352 122.034 11.216 121.578 11.216C121.138 11.216 120.786 11.356 120.522 11.636C120.258 11.916 120.126 12.304 120.126 12.8V14.6C120.126 15.096 120.258 15.484 120.522 15.764C120.786 16.044 121.138 16.184 121.578 16.184ZM128.725 17.12C128.205 17.12 127.749 17.016 127.357 16.808C126.973 16.6 126.673 16.308 126.457 15.932C126.249 15.548 126.145 15.104 126.145 14.6V12.8C126.145 12.288 126.249 11.844 126.457 11.468C126.673 11.092 126.973 10.8 127.357 10.592C127.749 10.384 128.205 10.28 128.725 10.28C129.245 10.28 129.697 10.384 130.081 10.592C130.473 10.8 130.773 11.092 130.981 11.468C131.197 11.844 131.305 12.288 131.305 12.8V13.964H127.201V14.6C127.201 15.12 127.333 15.52 127.597 15.8C127.861 16.072 128.237 16.208 128.725 16.208C129.141 16.208 129.477 16.136 129.733 15.992C129.989 15.84 130.145 15.616 130.201 15.32H131.281C131.209 15.872 130.937 16.312 130.465 16.64C130.001 16.96 129.421 17.12 128.725 17.12ZM127.201 13.148H130.249V12.8C130.249 12.28 130.117 11.88 129.853 11.6C129.597 11.32 129.221 11.18 128.725 11.18C128.237 11.18 127.861 11.32 127.597 11.6C127.333 11.88 127.201 12.28 127.201 12.8V13.148ZM135.968 17.12C135.12 17.12 134.444 16.9 133.94 16.46C133.436 16.02 133.184 15.432 133.184 14.696H134.264C134.264 15.136 134.42 15.492 134.732 15.764C135.044 16.028 135.456 16.16 135.968 16.16C136.464 16.16 136.86 16.028 137.156 15.764C137.452 15.492 137.6 15.136 137.6 14.696C137.6 14.352 137.508 14.052 137.324 13.796C137.148 13.532 136.904 13.352 136.592 13.256L135.296 12.848C134.712 12.664 134.252 12.36 133.916 11.936C133.588 11.512 133.424 11.02 133.424 10.46C133.424 9.748 133.656 9.18 134.12 8.756C134.592 8.332 135.216 8.12 135.992 8.12C136.768 8.12 137.388 8.332 137.852 8.756C138.316 9.18 138.548 9.748 138.548 10.46H137.468C137.468 10.036 137.332 9.7 137.06 9.452C136.796 9.204 136.44 9.08 135.992 9.08C135.536 9.08 135.168 9.204 134.888 9.452C134.616 9.7 134.48 10.028 134.48 10.436C134.48 10.756 134.572 11.032 134.756 11.264C134.94 11.496 135.192 11.664 135.512 11.768L136.856 12.2C137.408 12.376 137.844 12.688 138.164 13.136C138.492 13.584 138.656 14.104 138.656 14.696C138.656 15.432 138.412 16.02 137.924 16.46C137.436 16.9 136.784 17.12 135.968 17.12ZM143.164 17.12C142.364 17.12 141.724 16.896 141.244 16.448C140.772 16 140.536 15.384 140.536 14.6V12.8C140.536 12.016 140.772 11.4 141.244 10.952C141.724 10.504 142.364 10.28 143.164 10.28C143.924 10.28 144.536 10.484 145 10.892C145.464 11.3 145.708 11.856 145.732 12.56H144.652C144.628 12.136 144.484 11.812 144.22 11.588C143.964 11.356 143.612 11.24 143.164 11.24C142.692 11.24 142.316 11.376 142.036 11.648C141.756 11.912 141.616 12.292 141.616 12.788V14.6C141.616 15.096 141.756 15.48 142.036 15.752C142.316 16.024 142.692 16.16 143.164 16.16C143.612 16.16 143.964 16.044 144.22 15.812C144.484 15.58 144.628 15.256 144.652 14.84H145.732C145.708 15.544 145.464 16.1 145 16.508C144.536 16.916 143.924 17.12 143.164 17.12ZM148.019 17V10.4H149.099V11.66H149.111C149.167 11.22 149.347 10.88 149.651 10.64C149.955 10.4 150.359 10.28 150.863 10.28C151.551 10.28 152.099 10.5 152.507 10.94C152.915 11.372 153.119 11.96 153.119 12.704V13.16H152.039V12.8C152.039 12.296 151.911 11.908 151.655 11.636C151.399 11.356 151.027 11.216 150.539 11.216C149.579 11.216 149.099 11.744 149.099 12.8V17H148.019ZM154.926 17V16.016H157.266V11.384H155.166V10.4H158.346V16.016H160.566V17H154.926ZM157.686 9.212C157.422 9.212 157.214 9.144 157.062 9.008C156.91 8.872 156.834 8.688 156.834 8.456C156.834 8.216 156.91 8.028 157.062 7.892C157.214 7.748 157.422 7.676 157.686 7.676C157.95 7.676 158.158 7.748 158.31 7.892C158.462 8.028 158.538 8.216 158.538 8.456C158.538 8.688 158.462 8.872 158.31 9.008C158.158 9.144 157.95 9.212 157.686 9.212ZM162.218 19.16V10.4H163.298V11.66H163.31C163.366 11.228 163.554 10.892 163.874 10.652C164.202 10.404 164.614 10.28 165.11 10.28C165.774 10.28 166.302 10.5 166.694 10.94C167.094 11.372 167.294 11.968 167.294 12.728V14.66C167.294 15.42 167.094 16.02 166.694 16.46C166.302 16.9 165.774 17.12 165.11 17.12C164.614 17.12 164.206 16.996 163.886 16.748C163.566 16.5 163.374 16.164 163.31 15.74H163.274L163.298 17.24V19.16H162.218ZM164.75 16.184C165.206 16.184 165.562 16.048 165.818 15.776C166.082 15.504 166.214 15.112 166.214 14.6V12.8C166.214 12.288 166.082 11.896 165.818 11.624C165.562 11.352 165.206 11.216 164.75 11.216C164.31 11.216 163.958 11.356 163.694 11.636C163.43 11.916 163.298 12.304 163.298 12.8V14.6C163.298 15.096 163.43 15.484 163.694 15.764C163.958 16.044 164.31 16.184 164.75 16.184ZM172.617 17C172.073 17 171.637 16.844 171.309 16.532C170.981 16.212 170.817 15.788 170.817 15.26V11.384H168.957V10.4H170.817V8.54H171.897V10.4H174.537V11.384H171.897V15.26C171.897 15.484 171.961 15.668 172.089 15.812C172.225 15.948 172.401 16.016 172.617 16.016H174.417V17H172.617Z" fill="#DDDDDD"/>
<rect y="47" width="215" height="26" rx="13" fill="#F4322C"/>
<path d="M12.856 64L10.6 55.24H11.704L13.204 61.204C13.308 61.62 13.392 62.004 13.456 62.356C13.528 62.708 13.58 62.976 13.612 63.16C13.644 62.976 13.696 62.708 13.768 62.356C13.848 61.996 13.94 61.608 14.044 61.192L15.484 55.24H16.6L14.332 64H12.856ZM20.7833 64.12C20.0233 64.12 19.4153 63.896 18.9593 63.448C18.5033 62.992 18.2753 62.376 18.2753 61.6V57.4H19.3553V61.6C19.3553 62.096 19.4833 62.484 19.7393 62.764C19.9953 63.036 20.3433 63.172 20.7833 63.172C21.2313 63.172 21.5833 63.036 21.8393 62.764C22.1033 62.484 22.2353 62.096 22.2353 61.6V57.4H23.3153V61.6C23.3153 62.376 23.0833 62.992 22.6193 63.448C22.1553 63.896 21.5433 64.12 20.7833 64.12ZM27.9906 64.12C27.4706 64.12 27.0146 64.016 26.6226 63.808C26.2386 63.6 25.9386 63.308 25.7226 62.932C25.5146 62.548 25.4106 62.104 25.4106 61.6V59.8C25.4106 59.288 25.5146 58.844 25.7226 58.468C25.9386 58.092 26.2386 57.8 26.6226 57.592C27.0146 57.384 27.4706 57.28 27.9906 57.28C28.5106 57.28 28.9626 57.384 29.3466 57.592C29.7386 57.8 30.0386 58.092 30.2466 58.468C30.4626 58.844 30.5706 59.288 30.5706 59.8V60.964H26.4666V61.6C26.4666 62.12 26.5986 62.52 26.8626 62.8C27.1266 63.072 27.5026 63.208 27.9906 63.208C28.4066 63.208 28.7426 63.136 28.9986 62.992C29.2546 62.84 29.4106 62.616 29.4666 62.32H30.5466C30.4746 62.872 30.2026 63.312 29.7306 63.64C29.2666 63.96 28.6866 64.12 27.9906 64.12ZM26.4666 60.148H29.5146V59.8C29.5146 59.28 29.3826 58.88 29.1186 58.6C28.8626 58.32 28.4866 58.18 27.9906 58.18C27.5026 58.18 27.1266 58.32 26.8626 58.6C26.5986 58.88 26.4666 59.28 26.4666 59.8V60.148ZM32.4259 66.16V65.164H34.1539C34.6499 65.164 35.0339 65.028 35.3059 64.756C35.5859 64.492 35.7259 64.116 35.7259 63.628V58.384H32.6659V57.4H36.8059V63.628C36.8059 64.404 36.5659 65.02 36.0859 65.476C35.6059 65.932 34.9619 66.16 34.1539 66.16H32.4259ZM36.2059 56.212C35.9419 56.212 35.7339 56.144 35.5819 56.008C35.4299 55.872 35.3539 55.688 35.3539 55.456C35.3539 55.216 35.4299 55.028 35.5819 54.892C35.7339 54.748 35.9419 54.676 36.2059 54.676C36.4699 54.676 36.6779 54.748 36.8299 54.892C36.9819 55.028 37.0579 55.216 37.0579 55.456C37.0579 55.688 36.9819 55.872 36.8299 56.008C36.6779 56.144 36.4699 56.212 36.2059 56.212ZM42.1773 64.096C41.4973 64.096 40.9413 63.94 40.5093 63.628C40.0773 63.316 39.8613 62.888 39.8613 62.344H40.9653C40.9653 62.592 41.0813 62.788 41.3133 62.932C41.5533 63.068 41.8493 63.136 42.2013 63.136H42.7053C43.1293 63.136 43.4453 63.052 43.6533 62.884C43.8613 62.708 43.9653 62.476 43.9653 62.188C43.9653 61.908 43.8653 61.688 43.6653 61.528C43.4733 61.36 43.1933 61.248 42.8253 61.192L41.9373 61.048C41.2813 60.936 40.7973 60.728 40.4853 60.424C40.1733 60.12 40.0173 59.7 40.0173 59.164C40.0173 58.564 40.2093 58.104 40.5933 57.784C40.9853 57.464 41.5453 57.304 42.2733 57.304H42.7293C43.4013 57.304 43.9373 57.456 44.3373 57.76C44.7453 58.056 44.9492 58.452 44.9492 58.948H43.8453C43.8453 58.74 43.7413 58.576 43.5333 58.456C43.3333 58.328 43.0573 58.264 42.7053 58.264H42.2493C41.8733 58.264 41.5813 58.344 41.3733 58.504C41.1733 58.656 41.0733 58.876 41.0733 59.164C41.0733 59.644 41.4133 59.94 42.0933 60.052L42.9813 60.196C43.6933 60.308 44.2093 60.516 44.5293 60.82C44.8573 61.124 45.0213 61.564 45.0213 62.14C45.0213 62.748 44.8253 63.228 44.4333 63.58C44.0493 63.924 43.4653 64.096 42.6813 64.096H42.1773ZM46.8766 65.32L51.1366 54.04H52.2766L48.0166 65.32H46.8766ZM54.2519 64V55.24H55.6919L58.3679 62.74C58.3519 62.54 58.3319 62.296 58.3079 62.008C58.2919 61.712 58.2759 61.404 58.2599 61.084C58.2519 60.756 58.2479 60.448 58.2479 60.16V55.24H59.2919V64H57.8519L55.1879 56.5C55.2039 56.692 55.2199 56.936 55.2359 57.232C55.2519 57.52 55.2639 57.828 55.2719 58.156C55.2879 58.476 55.2959 58.784 55.2959 59.08V64H54.2519ZM63.9552 64.12C63.1952 64.12 62.5872 63.896 62.1312 63.448C61.6752 62.992 61.4472 62.376 61.4472 61.6V57.4H62.5272V61.6C62.5272 62.096 62.6552 62.484 62.9112 62.764C63.1672 63.036 63.5152 63.172 63.9552 63.172C64.4032 63.172 64.7552 63.036 65.0112 62.764C65.2752 62.484 65.4072 62.096 65.4072 61.6V57.4H66.4872V61.6C66.4872 62.376 66.2552 62.992 65.7912 63.448C65.3272 63.896 64.7152 64.12 63.9552 64.12ZM68.1625 64L70.5025 60.604L68.3065 57.4H69.5785L70.8865 59.44C70.9425 59.528 70.9945 59.624 71.0425 59.728C71.0985 59.832 71.1425 59.916 71.1745 59.98C71.1985 59.916 71.2345 59.832 71.2825 59.728C71.3385 59.624 71.3945 59.528 71.4505 59.44L72.7705 57.4H74.0305L71.8345 60.616L74.1625 64H72.8905L71.4745 61.84C71.4185 61.752 71.3625 61.652 71.3065 61.54C71.2585 61.42 71.2145 61.324 71.1745 61.252C71.1425 61.324 71.0945 61.42 71.0305 61.54C70.9745 61.652 70.9145 61.752 70.8505 61.84L69.4225 64H68.1625ZM79.0778 64C78.5338 64 78.0978 63.844 77.7698 63.532C77.4418 63.212 77.2778 62.788 77.2778 62.26V58.384H75.4178V57.4H77.2778V55.54H78.3578V57.4H80.9978V58.384H78.3578V62.26C78.3578 62.484 78.4218 62.668 78.5498 62.812C78.6858 62.948 78.8618 63.016 79.0778 63.016H80.8778V64H79.0778ZM85.1931 64.12C84.3531 64.12 83.6931 63.884 83.2131 63.412C82.7331 62.94 82.4931 62.296 82.4931 61.48H83.5731C83.5731 62.016 83.7131 62.432 83.9931 62.728C84.2811 63.016 84.6811 63.16 85.1931 63.16C85.7051 63.16 86.1011 63.016 86.3811 62.728C86.6691 62.432 86.8131 62.016 86.8131 61.48V56.224H84.3531V55.24H87.8931V61.48C87.8931 62.296 87.6491 62.94 87.1611 63.412C86.6811 63.884 86.0251 64.12 85.1931 64.12ZM92.7964 64.12C91.9484 64.12 91.2724 63.9 90.7684 63.46C90.2644 63.02 90.0124 62.432 90.0124 61.696H91.0924C91.0924 62.136 91.2484 62.492 91.5604 62.764C91.8724 63.028 92.2844 63.16 92.7964 63.16C93.2924 63.16 93.6884 63.028 93.9844 62.764C94.2804 62.492 94.4284 62.136 94.4284 61.696C94.4284 61.352 94.3364 61.052 94.1524 60.796C93.9764 60.532 93.7324 60.352 93.4204 60.256L92.1244 59.848C91.5404 59.664 91.0804 59.36 90.7444 58.936C90.4164 58.512 90.2524 58.02 90.2524 57.46C90.2524 56.748 90.4844 56.18 90.9484 55.756C91.4204 55.332 92.0444 55.12 92.8204 55.12C93.5964 55.12 94.2164 55.332 94.6804 55.756C95.1444 56.18 95.3764 56.748 95.3764 57.46H94.2964C94.2964 57.036 94.1604 56.7 93.8884 56.452C93.6244 56.204 93.2684 56.08 92.8204 56.08C92.3644 56.08 91.9964 56.204 91.7164 56.452C91.4444 56.7 91.3084 57.028 91.3084 57.436C91.3084 57.756 91.4004 58.032 91.5844 58.264C91.7684 58.496 92.0204 58.664 92.3404 58.768L93.6844 59.2C94.2364 59.376 94.6724 59.688 94.9924 60.136C95.3204 60.584 95.4844 61.104 95.4844 61.696C95.4844 62.432 95.2404 63.02 94.7524 63.46C94.2644 63.9 93.6124 64.12 92.7964 64.12ZM98.3238 65.92L99.2838 62.188H100.844L99.2838 65.92H98.3238ZM113.59 64L111.334 55.24H112.438L113.938 61.204C114.042 61.62 114.126 62.004 114.19 62.356C114.262 62.708 114.314 62.976 114.346 63.16C114.378 62.976 114.43 62.708 114.502 62.356C114.582 61.996 114.674 61.608 114.778 61.192L116.218 55.24H117.334L115.066 64H113.59ZM121.518 64.12C120.758 64.12 120.15 63.896 119.694 63.448C119.238 62.992 119.01 62.376 119.01 61.6V57.4H120.09V61.6C120.09 62.096 120.218 62.484 120.474 62.764C120.73 63.036 121.078 63.172 121.518 63.172C121.966 63.172 122.318 63.036 122.574 62.764C122.838 62.484 122.97 62.096 122.97 61.6V57.4H124.05V61.6C124.05 62.376 123.818 62.992 123.354 63.448C122.89 63.896 122.278 64.12 121.518 64.12ZM128.725 64.12C128.205 64.12 127.749 64.016 127.357 63.808C126.973 63.6 126.673 63.308 126.457 62.932C126.249 62.548 126.145 62.104 126.145 61.6V59.8C126.145 59.288 126.249 58.844 126.457 58.468C126.673 58.092 126.973 57.8 127.357 57.592C127.749 57.384 128.205 57.28 128.725 57.28C129.245 57.28 129.697 57.384 130.081 57.592C130.473 57.8 130.773 58.092 130.981 58.468C131.197 58.844 131.305 59.288 131.305 59.8V60.964H127.201V61.6C127.201 62.12 127.333 62.52 127.597 62.8C127.861 63.072 128.237 63.208 128.725 63.208C129.141 63.208 129.477 63.136 129.733 62.992C129.989 62.84 130.145 62.616 130.201 62.32H131.281C131.209 62.872 130.937 63.312 130.465 63.64C130.001 63.96 129.421 64.12 128.725 64.12ZM127.201 60.148H130.249V59.8C130.249 59.28 130.117 58.88 129.853 58.6C129.597 58.32 129.221 58.18 128.725 58.18C128.237 58.18 127.861 58.32 127.597 58.6C127.333 58.88 127.201 59.28 127.201 59.8V60.148ZM136.64 64C136.096 64 135.66 63.844 135.332 63.532C135.004 63.212 134.84 62.788 134.84 62.26V58.384H132.98V57.4H134.84V55.54H135.92V57.4H138.56V58.384H135.92V62.26C135.92 62.484 135.984 62.668 136.112 62.812C136.248 62.948 136.424 63.016 136.64 63.016H138.44V64H136.64ZM140.536 64V63.016H142.876V58.384H140.776V57.4H143.956V63.016H146.176V64H140.536ZM143.296 56.212C143.032 56.212 142.824 56.144 142.672 56.008C142.52 55.872 142.444 55.688 142.444 55.456C142.444 55.216 142.52 55.028 142.672 54.892C142.824 54.748 143.032 54.676 143.296 54.676C143.56 54.676 143.768 54.748 143.92 54.892C144.072 55.028 144.148 55.216 144.148 55.456C144.148 55.688 144.072 55.872 143.92 56.008C143.768 56.144 143.56 56.212 143.296 56.212ZM149.351 64V59.044H147.431V58.06H149.351V56.92C149.351 56.4 149.515 55.992 149.843 55.696C150.171 55.392 150.623 55.24 151.199 55.24H153.131V56.224H151.199C150.687 56.224 150.431 56.456 150.431 56.92V58.06H153.131V59.044H150.431V64H149.351ZM156.054 66.16L157.026 63.592L154.506 57.4H155.682L157.29 61.48C157.346 61.616 157.398 61.78 157.446 61.972C157.502 62.156 157.546 62.312 157.578 62.44C157.61 62.312 157.654 62.156 157.71 61.972C157.766 61.78 157.822 61.616 157.878 61.48L159.378 57.4H160.506L157.182 66.16H156.054ZM163.082 65.92L164.042 62.188H165.602L164.042 65.92H163.082ZM178.348 64L176.092 55.24H177.196L178.696 61.204C178.8 61.62 178.884 62.004 178.948 62.356C179.02 62.708 179.072 62.976 179.104 63.16C179.136 62.976 179.188 62.708 179.26 62.356C179.34 61.996 179.432 61.608 179.536 61.192L180.976 55.24H182.092L179.824 64H178.348ZM186.276 64.12C185.516 64.12 184.908 63.896 184.451 63.448C183.996 62.992 183.768 62.376 183.768 61.6V57.4H184.848V61.6C184.848 62.096 184.976 62.484 185.232 62.764C185.488 63.036 185.836 63.172 186.276 63.172C186.724 63.172 187.076 63.036 187.332 62.764C187.596 62.484 187.728 62.096 187.728 61.6V57.4H188.808V61.6C188.808 62.376 188.576 62.992 188.112 63.448C187.648 63.896 187.036 64.12 186.276 64.12ZM193.483 64.12C192.963 64.12 192.507 64.016 192.115 63.808C191.731 63.6 191.431 63.308 191.215 62.932C191.007 62.548 190.903 62.104 190.903 61.6V59.8C190.903 59.288 191.007 58.844 191.215 58.468C191.431 58.092 191.731 57.8 192.115 57.592C192.507 57.384 192.963 57.28 193.483 57.28C194.003 57.28 194.455 57.384 194.839 57.592C195.231 57.8 195.531 58.092 195.739 58.468C195.955 58.844 196.063 59.288 196.063 59.8V60.964H191.959V61.6C191.959 62.12 192.091 62.52 192.355 62.8C192.619 63.072 192.995 63.208 193.483 63.208C193.899 63.208 194.235 63.136 194.491 62.992C194.747 62.84 194.903 62.616 194.959 62.32H196.039C195.967 62.872 195.695 63.312 195.223 63.64C194.759 63.96 194.179 64.12 193.483 64.12ZM191.959 60.148H195.007V59.8C195.007 59.28 194.875 58.88 194.611 58.6C194.355 58.32 193.979 58.18 193.483 58.18C192.995 58.18 192.619 58.32 192.355 58.6C192.091 58.88 191.959 59.28 191.959 59.8V60.148ZM197.678 64L200.018 60.604L197.822 57.4H199.094L200.402 59.44C200.458 59.528 200.51 59.624 200.558 59.728C200.614 59.832 200.658 59.916 200.69 59.98C200.714 59.916 200.75 59.832 200.798 59.728C200.854 59.624 200.91 59.528 200.966 59.44L202.286 57.4H203.546L201.35 60.616L203.678 64H202.406L200.99 61.84C200.934 61.752 200.878 61.652 200.822 61.54C200.774 61.42 200.73 61.324 200.69 61.252C200.658 61.324 200.61 61.42 200.546 61.54C200.49 61.652 200.43 61.752 200.366 61.84L198.938 64H197.678Z" fill="#DDDDDD"/>
<rect y="94" width="100" height="26" rx="13" fill="#F4322C"/>
<path d="M13.06 111V103.224H10.66V102.24H16.54V103.224H14.14V111H13.06ZM20.2193 111.12C19.5233 111.12 18.9753 110.944 18.5753 110.592C18.1753 110.232 17.9753 109.748 17.9753 109.14C17.9753 108.524 18.1753 108.04 18.5753 107.688C18.9753 107.336 19.5153 107.16 20.1953 107.16H22.2353V106.5C22.2353 106.1 22.1113 105.788 21.8633 105.564C21.6233 105.34 21.2873 105.228 20.8553 105.228C20.4713 105.228 20.1473 105.312 19.8833 105.48C19.6193 105.648 19.4553 105.868 19.3913 106.14H18.3113C18.3513 105.772 18.4833 105.448 18.7073 105.168C18.9393 104.888 19.2393 104.672 19.6073 104.52C19.9833 104.36 20.3993 104.28 20.8553 104.28C21.6153 104.28 22.2153 104.476 22.6553 104.868C23.0953 105.26 23.3153 105.792 23.3153 106.464V111H22.2593V109.74H22.2473C22.1993 110.164 21.9913 110.5 21.6233 110.748C21.2633 110.996 20.7953 111.12 20.2193 111.12ZM20.4833 110.268C20.9953 110.268 21.4153 110.14 21.7433 109.884C22.0713 109.628 22.2353 109.3 22.2353 108.9V107.964H20.2193C19.8593 107.964 19.5753 108.064 19.3673 108.264C19.1593 108.464 19.0553 108.736 19.0553 109.08C19.0553 109.448 19.1793 109.74 19.4273 109.956C19.6833 110.164 20.0353 110.268 20.4833 110.268ZM25.4106 111V110.016H27.7506V105.384H25.6506V104.4H28.8306V110.016H31.0506V111H25.4106ZM28.1706 103.212C27.9066 103.212 27.6986 103.144 27.5466 103.008C27.3946 102.872 27.3186 102.688 27.3186 102.456C27.3186 102.216 27.3946 102.028 27.5466 101.892C27.6986 101.748 27.9066 101.676 28.1706 101.676C28.4346 101.676 28.6426 101.748 28.7946 101.892C28.9466 102.028 29.0226 102.216 29.0226 102.456C29.0226 102.688 28.9466 102.872 28.7946 103.008C28.6426 103.144 28.4346 103.212 28.1706 103.212ZM36.1459 111C35.5619 111 35.0939 110.832 34.7419 110.496C34.3979 110.152 34.2259 109.7 34.2259 109.14V103.224H31.9459V102.24H35.3059V109.14C35.3059 109.412 35.3819 109.628 35.5339 109.788C35.6859 109.94 35.8899 110.016 36.1459 110.016H38.1859V111H36.1459ZM40.2573 111L39.2013 104.4H40.1373L40.7973 109.08C40.8213 109.256 40.8453 109.448 40.8693 109.656C40.8933 109.856 40.9093 110.024 40.9173 110.16H40.9653C40.9813 110.024 41.0013 109.856 41.0253 109.656C41.0493 109.448 41.0773 109.256 41.1093 109.08L41.8413 104.4H42.9213L43.6533 109.08C43.6853 109.256 43.7133 109.448 43.7373 109.656C43.7693 109.856 43.7893 110.024 43.7973 110.16H43.8453C43.8613 110.024 43.8813 109.856 43.9053 109.656C43.9373 109.448 43.9653 109.256 43.9893 109.08L44.6733 104.4H45.5612L44.4573 111H43.2693L42.5613 106.44C42.5293 106.216 42.4973 105.992 42.4653 105.768C42.4333 105.544 42.4093 105.368 42.3933 105.24H42.3453C42.3373 105.368 42.3173 105.544 42.2853 105.768C42.2613 105.992 42.2293 106.216 42.1893 106.44L41.4453 111H40.2573ZM46.9966 111V110.016H49.3366V105.384H47.2366V104.4H50.4166V110.016H52.6366V111H46.9966ZM49.7566 103.212C49.4926 103.212 49.2846 103.144 49.1326 103.008C48.9806 102.872 48.9046 102.688 48.9046 102.456C48.9046 102.216 48.9806 102.028 49.1326 101.892C49.2846 101.748 49.4926 101.676 49.7566 101.676C50.0206 101.676 50.2286 101.748 50.3806 101.892C50.5326 102.028 50.6086 102.216 50.6086 102.456C50.6086 102.688 50.5326 102.872 50.3806 103.008C50.2286 103.144 50.0206 103.212 49.7566 103.212ZM54.2759 111V104.4H55.3559V105.66H55.3679C55.4239 105.22 55.6039 104.88 55.9079 104.64C56.2119 104.4 56.6159 104.28 57.1199 104.28C57.7839 104.28 58.3119 104.484 58.7039 104.892C59.0959 105.3 59.2919 105.856 59.2919 106.56V111H58.2119V106.68C58.2119 106.208 58.0839 105.848 57.8279 105.6C57.5799 105.344 57.2399 105.216 56.8079 105.216C56.3599 105.216 56.0039 105.352 55.7399 105.624C55.4839 105.896 55.3559 106.288 55.3559 106.8V111H54.2759ZM63.5832 111.12C62.9272 111.12 62.3952 110.9 61.9872 110.46C61.5872 110.02 61.3872 109.424 61.3872 108.672V106.74C61.3872 105.98 61.5872 105.38 61.9872 104.94C62.3872 104.5 62.9192 104.28 63.5832 104.28C64.0792 104.28 64.4872 104.404 64.8072 104.652C65.1272 104.9 65.3152 105.236 65.3712 105.66H65.4072L65.3832 104.16V102.24H66.4632V111H65.3832V109.74H65.3712C65.3152 110.172 65.1272 110.512 64.8072 110.76C64.4872 111 64.0792 111.12 63.5832 111.12ZM63.9432 110.184C64.3912 110.184 64.7432 110.044 64.9992 109.764C65.2552 109.484 65.3832 109.096 65.3832 108.6V106.8C65.3832 106.304 65.2552 105.916 64.9992 105.636C64.7432 105.356 64.3912 105.216 63.9432 105.216C63.4872 105.216 63.1272 105.352 62.8632 105.624C62.5992 105.896 62.4672 106.288 62.4672 106.8V108.6C62.4672 109.112 62.5992 109.504 62.8632 109.776C63.1272 110.048 63.4872 110.184 63.9432 110.184ZM71.2105 111.12C70.4105 111.12 69.7705 110.896 69.2905 110.448C68.8185 110 68.5825 109.384 68.5825 108.6V106.8C68.5825 106.016 68.8185 105.4 69.2905 104.952C69.7705 104.504 70.4105 104.28 71.2105 104.28C71.9705 104.28 72.5825 104.484 73.0465 104.892C73.5105 105.3 73.7545 105.856 73.7785 106.56H72.6985C72.6745 106.136 72.5305 105.812 72.2665 105.588C72.0105 105.356 71.6585 105.24 71.2105 105.24C70.7385 105.24 70.3625 105.376 70.0825 105.648C69.8025 105.912 69.6625 106.292 69.6625 106.788V108.6C69.6625 109.096 69.8025 109.48 70.0825 109.752C70.3625 110.024 70.7385 110.16 71.2105 110.16C71.6585 110.16 72.0105 110.044 72.2665 109.812C72.5305 109.58 72.6745 109.256 72.6985 108.84H73.7785C73.7545 109.544 73.5105 110.1 73.0465 110.508C72.5825 110.916 71.9705 111.12 71.2105 111.12ZM78.1538 111.096C77.4738 111.096 76.9178 110.94 76.4858 110.628C76.0538 110.316 75.8378 109.888 75.8378 109.344H76.9418C76.9418 109.592 77.0578 109.788 77.2898 109.932C77.5298 110.068 77.8258 110.136 78.1778 110.136H78.6818C79.1058 110.136 79.4218 110.052 79.6298 109.884C79.8378 109.708 79.9418 109.476 79.9418 109.188C79.9418 108.908 79.8418 108.688 79.6418 108.528C79.4498 108.36 79.1698 108.248 78.8018 108.192L77.9138 108.048C77.2578 107.936 76.7738 107.728 76.4618 107.424C76.1498 107.12 75.9938 106.7 75.9938 106.164C75.9938 105.564 76.1858 105.104 76.5698 104.784C76.9618 104.464 77.5218 104.304 78.2498 104.304H78.7058C79.3778 104.304 79.9138 104.456 80.3138 104.76C80.7218 105.056 80.9258 105.452 80.9258 105.948H79.8218C79.8218 105.74 79.7178 105.576 79.5098 105.456C79.3098 105.328 79.0338 105.264 78.6818 105.264H78.2258C77.8498 105.264 77.5578 105.344 77.3498 105.504C77.1498 105.656 77.0498 105.876 77.0498 106.164C77.0498 106.644 77.3898 106.94 78.0698 107.052L78.9578 107.196C79.6698 107.308 80.1858 107.516 80.5058 107.82C80.8338 108.124 80.9978 108.564 80.9978 109.14C80.9978 109.748 80.8018 110.228 80.4098 110.58C80.0258 110.924 79.4418 111.096 78.6578 111.096H78.1538ZM85.3491 111.096C84.6691 111.096 84.1131 110.94 83.6811 110.628C83.2491 110.316 83.0331 109.888 83.0331 109.344H84.1371C84.1371 109.592 84.2531 109.788 84.4851 109.932C84.7251 110.068 85.0211 110.136 85.3731 110.136H85.8771C86.3011 110.136 86.6171 110.052 86.8251 109.884C87.0331 109.708 87.1371 109.476 87.1371 109.188C87.1371 108.908 87.0371 108.688 86.8371 108.528C86.6451 108.36 86.3651 108.248 85.9971 108.192L85.1091 108.048C84.4531 107.936 83.9691 107.728 83.6571 107.424C83.3451 107.12 83.1891 106.7 83.1891 106.164C83.1891 105.564 83.3811 105.104 83.7651 104.784C84.1571 104.464 84.7171 104.304 85.4451 104.304H85.9011C86.5731 104.304 87.1091 104.456 87.5091 104.76C87.9171 105.056 88.1211 105.452 88.1211 105.948H87.0171C87.0171 105.74 86.9131 105.576 86.7051 105.456C86.5051 105.328 86.2291 105.264 85.8771 105.264H85.4211C85.0451 105.264 84.7531 105.344 84.5451 105.504C84.3451 105.656 84.2451 105.876 84.2451 106.164C84.2451 106.644 84.5851 106.94 85.2651 107.052L86.1531 107.196C86.8651 107.308 87.3811 107.516 87.7011 107.82C88.0291 108.124 88.1931 108.564 88.1931 109.14C88.1931 109.748 87.9971 110.228 87.6051 110.58C87.2211 110.924 86.6371 111.096 85.8531 111.096H85.3491Z" fill="#DDDDDD"/>
<rect y="186" width="128" height="26" rx="13" fill="#F4322C"/>
<path d="M11.308 203L10.3 194.24H11.332L11.992 200.72C12.016 200.984 12.036 201.26 12.052 201.548C12.076 201.828 12.092 202.052 12.1 202.22C12.116 202.052 12.136 201.828 12.16 201.548C12.192 201.26 12.224 200.984 12.256 200.72L13.072 194.24H14.188L14.932 200.72C14.964 200.984 14.996 201.26 15.028 201.548C15.06 201.828 15.084 202.052 15.1 202.22C15.116 202.052 15.132 201.828 15.148 201.548C15.172 201.26 15.2 200.984 15.232 200.72L15.916 194.24H16.9L15.868 203H14.512L13.768 196.4C13.736 196.128 13.708 195.864 13.684 195.608C13.66 195.344 13.64 195.14 13.624 194.996C13.608 195.14 13.584 195.344 13.552 195.608C13.528 195.864 13.5 196.128 13.468 196.4L12.664 203H11.308ZM20.7953 203.12C20.2753 203.12 19.8193 203.016 19.4273 202.808C19.0433 202.6 18.7433 202.308 18.5273 201.932C18.3193 201.548 18.2153 201.104 18.2153 200.6V198.8C18.2153 198.288 18.3193 197.844 18.5273 197.468C18.7433 197.092 19.0433 196.8 19.4273 196.592C19.8193 196.384 20.2753 196.28 20.7953 196.28C21.3153 196.28 21.7673 196.384 22.1513 196.592C22.5433 196.8 22.8433 197.092 23.0513 197.468C23.2673 197.844 23.3753 198.288 23.3753 198.8V199.964H19.2713V200.6C19.2713 201.12 19.4033 201.52 19.6673 201.8C19.9313 202.072 20.3073 202.208 20.7953 202.208C21.2113 202.208 21.5473 202.136 21.8033 201.992C22.0593 201.84 22.2153 201.616 22.2713 201.32H23.3513C23.2793 201.872 23.0073 202.312 22.5353 202.64C22.0713 202.96 21.4913 203.12 20.7953 203.12ZM19.2713 199.148H22.3193V198.8C22.3193 198.28 22.1873 197.88 21.9233 197.6C21.6673 197.32 21.2913 197.18 20.7953 197.18C20.3073 197.18 19.9313 197.32 19.6673 197.6C19.4033 197.88 19.2713 198.28 19.2713 198.8V199.148ZM28.3746 203.12C27.8786 203.12 27.4706 203 27.1506 202.76C26.8306 202.512 26.6426 202.172 26.5866 201.74H26.5746V203H25.4946V194.24H26.5746V196.16L26.5506 197.66H26.5866C26.6426 197.236 26.8306 196.9 27.1506 196.652C27.4706 196.404 27.8786 196.28 28.3746 196.28C29.0386 196.28 29.5706 196.5 29.9706 196.94C30.3706 197.38 30.5706 197.98 30.5706 198.74V200.672C30.5706 201.424 30.3706 202.02 29.9706 202.46C29.5706 202.9 29.0386 203.12 28.3746 203.12ZM28.0146 202.184C28.4706 202.184 28.8306 202.048 29.0946 201.776C29.3586 201.504 29.4906 201.112 29.4906 200.6V198.8C29.4906 198.288 29.3586 197.896 29.0946 197.624C28.8306 197.352 28.4706 197.216 28.0146 197.216C27.5746 197.216 27.2226 197.356 26.9586 197.636C26.7026 197.916 26.5746 198.304 26.5746 198.8V200.6C26.5746 201.096 26.7026 201.484 26.9586 201.764C27.2226 202.044 27.5746 202.184 28.0146 202.184ZM39.8853 203V194.24H42.1533C42.7213 194.24 43.2093 194.348 43.6173 194.564C44.0333 194.78 44.3533 195.084 44.5773 195.476C44.8093 195.868 44.9253 196.332 44.9253 196.868V200.36C44.9253 200.896 44.8093 201.364 44.5773 201.764C44.3533 202.156 44.0333 202.46 43.6173 202.676C43.2093 202.892 42.7213 203 42.1533 203H39.8853ZM40.9653 202.04H42.1533C42.6813 202.04 43.0933 201.892 43.3893 201.596C43.6933 201.3 43.8453 200.888 43.8453 200.36V196.868C43.8453 196.348 43.6933 195.94 43.3893 195.644C43.0933 195.348 42.6813 195.2 42.1533 195.2H40.9653V202.04ZM49.5766 203.12C49.0566 203.12 48.6006 203.016 48.2086 202.808C47.8246 202.6 47.5246 202.308 47.3086 201.932C47.1006 201.548 46.9966 201.104 46.9966 200.6V198.8C46.9966 198.288 47.1006 197.844 47.3086 197.468C47.5246 197.092 47.8246 196.8 48.2086 196.592C48.6006 196.384 49.0566 196.28 49.5766 196.28C50.0966 196.28 50.5486 196.384 50.9326 196.592C51.3246 196.8 51.6246 197.092 51.8326 197.468C52.0486 197.844 52.1566 198.288 52.1566 198.8V199.964H48.0526V200.6C48.0526 201.12 48.1846 201.52 48.4486 201.8C48.7126 202.072 49.0886 202.208 49.5766 202.208C49.9926 202.208 50.3286 202.136 50.5846 201.992C50.8406 201.84 50.9966 201.616 51.0526 201.32H52.1326C52.0606 201.872 51.7886 202.312 51.3166 202.64C50.8526 202.96 50.2726 203.12 49.5766 203.12ZM48.0526 199.148H51.1006V198.8C51.1006 198.28 50.9686 197.88 50.7046 197.6C50.4486 197.32 50.0726 197.18 49.5766 197.18C49.0886 197.18 48.7126 197.32 48.4486 197.6C48.1846 197.88 48.0526 198.28 48.0526 198.8V199.148ZM56.0639 203L53.7719 196.4H54.8879L56.4239 200.84C56.5119 201.104 56.5879 201.36 56.6519 201.608C56.7159 201.848 56.7639 202.036 56.7959 202.172C56.8359 202.036 56.8839 201.848 56.9399 201.608C56.9959 201.36 57.0679 201.104 57.1559 200.84L58.6439 196.4H59.7719L57.4799 203H56.0639ZM63.9672 203.12C63.4472 203.12 62.9912 203.016 62.5992 202.808C62.2152 202.6 61.9152 202.308 61.6992 201.932C61.4912 201.548 61.3872 201.104 61.3872 200.6V198.8C61.3872 198.288 61.4912 197.844 61.6992 197.468C61.9152 197.092 62.2152 196.8 62.5992 196.592C62.9912 196.384 63.4472 196.28 63.9672 196.28C64.4872 196.28 64.9392 196.384 65.3232 196.592C65.7152 196.8 66.0152 197.092 66.2232 197.468C66.4392 197.844 66.5472 198.288 66.5472 198.8V199.964H62.4432V200.6C62.4432 201.12 62.5752 201.52 62.8392 201.8C63.1032 202.072 63.4792 202.208 63.9672 202.208C64.3832 202.208 64.7192 202.136 64.9752 201.992C65.2312 201.84 65.3872 201.616 65.4432 201.32H66.5232C66.4512 201.872 66.1792 202.312 65.7072 202.64C65.2432 202.96 64.6632 203.12 63.9672 203.12ZM62.4432 199.148H65.4912V198.8C65.4912 198.28 65.3592 197.88 65.0952 197.6C64.8392 197.32 64.4632 197.18 63.9672 197.18C63.4792 197.18 63.1032 197.32 62.8392 197.6C62.5752 197.88 62.4432 198.28 62.4432 198.8V199.148ZM72.1225 203C71.5385 203 71.0705 202.832 70.7185 202.496C70.3745 202.152 70.2025 201.7 70.2025 201.14V195.224H67.9225V194.24H71.2825V201.14C71.2825 201.412 71.3585 201.628 71.5105 201.788C71.6625 201.94 71.8665 202.016 72.1225 202.016H74.1625V203H72.1225ZM78.3578 203.096C77.5578 203.096 76.9258 202.872 76.4618 202.424C76.0058 201.968 75.7778 201.352 75.7778 200.576V198.824C75.7778 198.04 76.0058 197.424 76.4618 196.976C76.9258 196.528 77.5578 196.304 78.3578 196.304C79.1578 196.304 79.7858 196.528 80.2418 196.976C80.7058 197.424 80.9378 198.036 80.9378 198.812V200.576C80.9378 201.352 80.7058 201.968 80.2418 202.424C79.7858 202.872 79.1578 203.096 78.3578 203.096ZM78.3578 202.136C78.8298 202.136 79.1978 202.004 79.4618 201.74C79.7258 201.476 79.8578 201.088 79.8578 200.576V198.824C79.8578 198.312 79.7258 197.924 79.4618 197.66C79.1978 197.396 78.8298 197.264 78.3578 197.264C77.8938 197.264 77.5258 197.396 77.2538 197.66C76.9898 197.924 76.8578 198.312 76.8578 198.824V200.576C76.8578 201.088 76.9898 201.476 77.2538 201.74C77.5258 202.004 77.8938 202.136 78.3578 202.136ZM83.0691 205.16V196.4H84.1491V197.66H84.1611C84.2171 197.228 84.4051 196.892 84.7251 196.652C85.0531 196.404 85.4651 196.28 85.9611 196.28C86.6251 196.28 87.1531 196.5 87.5451 196.94C87.9451 197.372 88.1451 197.968 88.1451 198.728V200.66C88.1451 201.42 87.9451 202.02 87.5451 202.46C87.1531 202.9 86.6251 203.12 85.9611 203.12C85.4651 203.12 85.0571 202.996 84.7371 202.748C84.4171 202.5 84.2251 202.164 84.1611 201.74H84.1251L84.1491 203.24V205.16H83.0691ZM85.6011 202.184C86.0571 202.184 86.4131 202.048 86.6691 201.776C86.9331 201.504 87.0651 201.112 87.0651 200.6V198.8C87.0651 198.288 86.9331 197.896 86.6691 197.624C86.4131 197.352 86.0571 197.216 85.6011 197.216C85.1611 197.216 84.8091 197.356 84.5451 197.636C84.2811 197.916 84.1491 198.304 84.1491 198.8V200.6C84.1491 201.096 84.2811 201.484 84.5451 201.764C84.8091 202.044 85.1611 202.184 85.6011 202.184ZM89.8684 203V196.4H90.8164V197.192H90.8884C90.9444 196.92 91.0684 196.7 91.2604 196.532C91.4604 196.364 91.7044 196.28 91.9924 196.28C92.2564 196.28 92.4844 196.364 92.6764 196.532C92.8684 196.692 93.0044 196.912 93.0844 197.192H93.1564C93.2124 196.92 93.3404 196.7 93.5404 196.532C93.7404 196.364 93.9884 196.28 94.2844 196.28C94.6844 196.28 95.0084 196.44 95.2564 196.76C95.5044 197.072 95.6284 197.48 95.6284 197.984V203H94.6324V197.972C94.6324 197.692 94.5684 197.48 94.4404 197.336C94.3204 197.184 94.1444 197.108 93.9124 197.108C93.6804 197.108 93.5004 197.184 93.3724 197.336C93.2444 197.48 93.1804 197.688 93.1804 197.96V203H92.3164V197.972C92.3164 197.692 92.2484 197.48 92.1124 197.336C91.9844 197.184 91.8044 197.108 91.5724 197.108C91.3484 197.108 91.1724 197.184 91.0444 197.336C90.9244 197.48 90.8644 197.688 90.8644 197.96V203H89.8684ZM99.9438 203.12C99.4238 203.12 98.9678 203.016 98.5758 202.808C98.1918 202.6 97.8918 202.308 97.6758 201.932C97.4678 201.548 97.3638 201.104 97.3638 200.6V198.8C97.3638 198.288 97.4678 197.844 97.6758 197.468C97.8918 197.092 98.1918 196.8 98.5758 196.592C98.9678 196.384 99.4238 196.28 99.9438 196.28C100.464 196.28 100.916 196.384 101.3 196.592C101.692 196.8 101.992 197.092 102.2 197.468C102.416 197.844 102.524 198.288 102.524 198.8V199.964H98.4198V200.6C98.4198 201.12 98.5518 201.52 98.8158 201.8C99.0798 202.072 99.4558 202.208 99.9438 202.208C100.36 202.208 100.696 202.136 100.952 201.992C101.208 201.84 101.364 201.616 101.42 201.32H102.5C102.428 201.872 102.156 202.312 101.684 202.64C101.22 202.96 100.64 203.12 99.9438 203.12ZM98.4198 199.148H101.468V198.8C101.468 198.28 101.336 197.88 101.072 197.6C100.816 197.32 100.44 197.18 99.9438 197.18C99.4558 197.18 99.0798 197.32 98.8158 197.6C98.5518 197.88 98.4198 198.28 98.4198 198.8V199.148ZM104.643 203V196.4H105.723V197.66H105.735C105.791 197.22 105.971 196.88 106.275 196.64C106.579 196.4 106.983 196.28 107.487 196.28C108.151 196.28 108.679 196.484 109.071 196.892C109.463 197.3 109.659 197.856 109.659 198.56V203H108.579V198.68C108.579 198.208 108.451 197.848 108.195 197.6C107.947 197.344 107.607 197.216 107.175 197.216C106.727 197.216 106.371 197.352 106.107 197.624C105.851 197.896 105.723 198.288 105.723 198.8V203H104.643ZM115.054 203C114.51 203 114.074 202.844 113.746 202.532C113.418 202.212 113.254 201.788 113.254 201.26V197.384H111.394V196.4H113.254V194.54H114.334V196.4H116.974V197.384H114.334V201.26C114.334 201.484 114.398 201.668 114.526 201.812C114.662 201.948 114.838 202.016 115.054 202.016H116.854V203H115.054Z" fill="#DDDDDD"/>
<rect y="138" width="71" height="26" rx="13" fill="#F4322C"/>
<path d="M11.116 155V146.24H12.196V149.984H15.004V146.24H16.084V155H15.004V150.968H12.196V155H11.116ZM20.7953 155.096C19.9953 155.096 19.3633 154.872 18.8993 154.424C18.4433 153.968 18.2153 153.352 18.2153 152.576V150.824C18.2153 150.04 18.4433 149.424 18.8993 148.976C19.3633 148.528 19.9953 148.304 20.7953 148.304C21.5953 148.304 22.2233 148.528 22.6793 148.976C23.1433 149.424 23.3753 150.036 23.3753 150.812V152.576C23.3753 153.352 23.1433 153.968 22.6793 154.424C22.2233 154.872 21.5953 155.096 20.7953 155.096ZM20.7953 154.136C21.2673 154.136 21.6353 154.004 21.8993 153.74C22.1633 153.476 22.2953 153.088 22.2953 152.576V150.824C22.2953 150.312 22.1633 149.924 21.8993 149.66C21.6353 149.396 21.2673 149.264 20.7953 149.264C20.3313 149.264 19.9633 149.396 19.6913 149.66C19.4273 149.924 19.2953 150.312 19.2953 150.824V152.576C19.2953 153.088 19.4273 153.476 19.6913 153.74C19.9633 154.004 20.3313 154.136 20.7953 154.136ZM27.7866 155.096C27.1066 155.096 26.5506 154.94 26.1186 154.628C25.6866 154.316 25.4706 153.888 25.4706 153.344H26.5746C26.5746 153.592 26.6906 153.788 26.9226 153.932C27.1626 154.068 27.4586 154.136 27.8106 154.136H28.3146C28.7386 154.136 29.0546 154.052 29.2626 153.884C29.4706 153.708 29.5746 153.476 29.5746 153.188C29.5746 152.908 29.4746 152.688 29.2746 152.528C29.0826 152.36 28.8026 152.248 28.4346 152.192L27.5466 152.048C26.8906 151.936 26.4066 151.728 26.0946 151.424C25.7826 151.12 25.6266 150.7 25.6266 150.164C25.6266 149.564 25.8186 149.104 26.2026 148.784C26.5946 148.464 27.1546 148.304 27.8826 148.304H28.3386C29.0106 148.304 29.5466 148.456 29.9466 148.76C30.3546 149.056 30.5586 149.452 30.5586 149.948H29.4546C29.4546 149.74 29.3506 149.576 29.1426 149.456C28.9426 149.328 28.6666 149.264 28.3146 149.264H27.8586C27.4826 149.264 27.1906 149.344 26.9826 149.504C26.7826 149.656 26.6826 149.876 26.6826 150.164C26.6826 150.644 27.0226 150.94 27.7026 151.052L28.5906 151.196C29.3026 151.308 29.8186 151.516 30.1386 151.82C30.4666 152.124 30.6306 152.564 30.6306 153.14C30.6306 153.748 30.4346 154.228 30.0426 154.58C29.6586 154.924 29.0746 155.096 28.2906 155.096H27.7866ZM35.9059 155C35.3619 155 34.9259 154.844 34.5979 154.532C34.2699 154.212 34.1059 153.788 34.1059 153.26V149.384H32.2459V148.4H34.1059V146.54H35.1859V148.4H37.8259V149.384H35.1859V153.26C35.1859 153.484 35.2499 153.668 35.3779 153.812C35.5139 153.948 35.6899 154.016 35.9059 154.016H37.7059V155H35.9059ZM39.8013 155V154.016H42.1413V149.384H40.0413V148.4H43.2213V154.016H45.4413V155H39.8013ZM42.5613 147.212C42.2973 147.212 42.0893 147.144 41.9373 147.008C41.7853 146.872 41.7093 146.688 41.7093 146.456C41.7093 146.216 41.7853 146.028 41.9373 145.892C42.0893 145.748 42.2973 145.676 42.5613 145.676C42.8253 145.676 43.0333 145.748 43.1853 145.892C43.3373 146.028 43.4133 146.216 43.4133 146.456C43.4133 146.688 43.3373 146.872 43.1853 147.008C43.0333 147.144 42.8253 147.212 42.5613 147.212ZM47.0806 155V148.4H48.1606V149.66H48.1726C48.2286 149.22 48.4086 148.88 48.7126 148.64C49.0166 148.4 49.4206 148.28 49.9246 148.28C50.5886 148.28 51.1166 148.484 51.5086 148.892C51.9006 149.3 52.0966 149.856 52.0966 150.56V155H51.0166V150.68C51.0166 150.208 50.8886 149.848 50.6326 149.6C50.3846 149.344 50.0446 149.216 49.6126 149.216C49.1646 149.216 48.8086 149.352 48.5446 149.624C48.2886 149.896 48.1606 150.288 48.1606 150.8V155H47.0806ZM55.1039 157.16V156.176H57.2039C57.8519 156.176 58.1759 155.864 58.1759 155.24V154.4L58.1999 153.2H58.1759C58.1359 153.624 57.9559 153.96 57.6359 154.208C57.3239 154.456 56.9199 154.58 56.4239 154.58C55.7439 154.58 55.2079 154.36 54.8159 153.92C54.4239 153.472 54.2279 152.872 54.2279 152.12V150.728C54.2279 149.976 54.4239 149.38 54.8159 148.94C55.2079 148.5 55.7439 148.28 56.4239 148.28C56.9199 148.28 57.3239 148.404 57.6359 148.652C57.9559 148.9 58.1359 149.236 58.1759 149.66H58.1879V148.4H59.2559V155.24C59.2559 155.832 59.0719 156.3 58.7039 156.644C58.3439 156.988 57.8399 157.16 57.1919 157.16H55.1039ZM56.7479 153.644C57.1959 153.644 57.5479 153.504 57.8039 153.224C58.0599 152.944 58.1879 152.556 58.1879 152.06V150.8C58.1879 150.304 58.0599 149.916 57.8039 149.636C57.5479 149.356 57.1959 149.216 56.7479 149.216C56.2919 149.216 55.9359 149.352 55.6799 149.624C55.4319 149.896 55.3079 150.288 55.3079 150.8V152.06C55.3079 152.572 55.4319 152.964 55.6799 153.236C55.9359 153.508 56.2919 153.644 56.7479 153.644Z" fill="#DDDDDD"/>
</svg>
