<svg width="128" height="425" viewBox="0 0 128 425" fill="none" xmlns="http://www.w3.org/2000/svg">
<rect y="400" width="92" height="25" rx="12.5" fill="#F4322C"/>
<path d="M13.648 416.62C12.848 416.62 12.216 416.396 11.752 415.948C11.288 415.5 11.056 414.884 11.056 414.1V410.14C11.056 409.356 11.288 408.74 11.752 408.292C12.216 407.844 12.848 407.62 13.648 407.62C14.432 407.62 15.056 407.848 15.52 408.304C15.984 408.752 16.216 409.364 16.216 410.14H15.136C15.136 409.644 15.004 409.264 14.74 409C14.484 408.728 14.12 408.592 13.648 408.592C13.176 408.592 12.804 408.724 12.532 408.988C12.268 409.252 12.136 409.632 12.136 410.128V414.1C12.136 414.596 12.268 414.98 12.532 415.252C12.804 415.524 13.176 415.66 13.648 415.66C14.12 415.66 14.484 415.524 14.74 415.252C15.004 414.98 15.136 414.596 15.136 414.1V413.02H13.36V412.036H16.216V414.1C16.216 414.876 15.984 415.492 15.52 415.948C15.056 416.396 14.432 416.62 13.648 416.62ZM18.2153 416.5V415.516H20.5553V410.884H18.4553V409.9H21.6353V415.516H23.8553V416.5H18.2153ZM20.9753 408.712C20.7113 408.712 20.5033 408.644 20.3513 408.508C20.1993 408.372 20.1233 408.188 20.1233 407.956C20.1233 407.716 20.1993 407.528 20.3513 407.392C20.5033 407.248 20.7113 407.176 20.9753 407.176C21.2393 407.176 21.4473 407.248 21.5993 407.392C21.7513 407.528 21.8273 407.716 21.8273 407.956C21.8273 408.188 21.7513 408.372 21.5993 408.508C21.4473 408.644 21.2393 408.712 20.9753 408.712ZM28.7106 416.5C28.1666 416.5 27.7306 416.344 27.4026 416.032C27.0746 415.712 26.9106 415.288 26.9106 414.76V410.884H25.0506V409.9H26.9106V408.04H27.9906V409.9H30.6306V410.884H27.9906V414.76C27.9906 414.984 28.0546 415.168 28.1826 415.312C28.3186 415.448 28.4946 415.516 28.7106 415.516H30.5106V416.5H28.7106ZM32.4859 417.82L36.7459 406.54H37.8859L33.6259 417.82H32.4859ZM42.4293 416.62C41.6293 416.62 40.9973 416.396 40.5333 415.948C40.0693 415.5 39.8373 414.884 39.8373 414.1V410.14C39.8373 409.356 40.0693 408.74 40.5333 408.292C40.9973 407.844 41.6293 407.62 42.4293 407.62C43.2133 407.62 43.8373 407.848 44.3013 408.304C44.7653 408.752 44.9973 409.364 44.9973 410.14H43.9173C43.9173 409.644 43.7853 409.264 43.5213 409C43.2653 408.728 42.9013 408.592 42.4293 408.592C41.9573 408.592 41.5853 408.724 41.3133 408.988C41.0493 409.252 40.9173 409.632 40.9173 410.128V414.1C40.9173 414.596 41.0493 414.98 41.3133 415.252C41.5853 415.524 41.9573 415.66 42.4293 415.66C42.9013 415.66 43.2653 415.524 43.5213 415.252C43.7853 414.98 43.9173 414.596 43.9173 414.1V413.02H42.1413V412.036H44.9973V414.1C44.9973 414.876 44.7653 415.492 44.3013 415.948C43.8373 416.396 43.2133 416.62 42.4293 416.62ZM46.9966 416.5V415.516H49.3366V410.884H47.2366V409.9H50.4166V415.516H52.6366V416.5H46.9966ZM49.7566 408.712C49.4926 408.712 49.2846 408.644 49.1326 408.508C48.9806 408.372 48.9046 408.188 48.9046 407.956C48.9046 407.716 48.9806 407.528 49.1326 407.392C49.2846 407.248 49.4926 407.176 49.7566 407.176C50.0206 407.176 50.2286 407.248 50.3806 407.392C50.5326 407.528 50.6086 407.716 50.6086 407.956C50.6086 408.188 50.5326 408.372 50.3806 408.508C50.2286 408.644 50.0206 408.712 49.7566 408.712ZM57.4919 416.5C56.9479 416.5 56.5119 416.344 56.1839 416.032C55.8559 415.712 55.6919 415.288 55.6919 414.76V410.884H53.8319V409.9H55.6919V408.04H56.7719V409.9H59.4119V410.884H56.7719V414.76C56.7719 414.984 56.8359 415.168 56.9639 415.312C57.0999 415.448 57.2759 415.516 57.4919 415.516H59.2919V416.5H57.4919ZM61.4712 416.5V407.74H62.5512V411.16H62.5632C62.6192 410.72 62.7992 410.38 63.1032 410.14C63.4072 409.9 63.8112 409.78 64.3152 409.78C64.9792 409.78 65.5072 409.984 65.8992 410.392C66.2912 410.8 66.4872 411.356 66.4872 412.06V416.5H65.4072V412.18C65.4072 411.708 65.2792 411.344 65.0232 411.088C64.7752 410.824 64.4352 410.692 64.0032 410.692C63.5552 410.692 63.1992 410.832 62.9352 411.112C62.6792 411.392 62.5512 411.788 62.5512 412.3V416.5H61.4712ZM71.1505 416.62C70.3905 416.62 69.7825 416.396 69.3265 415.948C68.8705 415.492 68.6425 414.876 68.6425 414.1V409.9H69.7225V414.1C69.7225 414.596 69.8505 414.984 70.1065 415.264C70.3625 415.536 70.7105 415.672 71.1505 415.672C71.5985 415.672 71.9505 415.536 72.2065 415.264C72.4705 414.984 72.6025 414.596 72.6025 414.1V409.9H73.6825V414.1C73.6825 414.876 73.4505 415.492 72.9865 415.948C72.5225 416.396 71.9105 416.62 71.1505 416.62ZM78.7418 416.62C78.2458 416.62 77.8378 416.5 77.5178 416.26C77.1978 416.012 77.0098 415.672 76.9538 415.24H76.9418V416.5H75.8618V407.74H76.9418V409.66L76.9178 411.16H76.9538C77.0098 410.736 77.1978 410.4 77.5178 410.152C77.8378 409.904 78.2458 409.78 78.7418 409.78C79.4058 409.78 79.9378 410 80.3378 410.44C80.7378 410.88 80.9378 411.48 80.9378 412.24V414.172C80.9378 414.924 80.7378 415.52 80.3378 415.96C79.9378 416.4 79.4058 416.62 78.7418 416.62ZM78.3818 415.684C78.8378 415.684 79.1978 415.548 79.4618 415.276C79.7258 415.004 79.8578 414.612 79.8578 414.1V412.3C79.8578 411.788 79.7258 411.396 79.4618 411.124C79.1978 410.852 78.8378 410.716 78.3818 410.716C77.9418 410.716 77.5898 410.856 77.3258 411.136C77.0698 411.416 76.9418 411.804 76.9418 412.3V414.1C76.9418 414.596 77.0698 414.984 77.3258 415.264C77.5898 415.544 77.9418 415.684 78.3818 415.684Z" fill="#DDDDDD"/>
<rect y="360" width="107" height="25" rx="12.5" fill="#F4322C"/>
<path d="M13.6 376.62C12.784 376.62 12.16 376.396 11.728 375.948C11.296 375.492 11.08 374.876 11.08 374.1V367.74H12.16V374.1C12.16 374.58 12.276 374.96 12.508 375.24C12.748 375.52 13.112 375.66 13.6 375.66C14.08 375.66 14.44 375.52 14.68 375.24C14.92 374.96 15.04 374.58 15.04 374.1V367.74H16.12V374.1C16.12 374.884 15.904 375.5 15.472 375.948C15.048 376.396 14.424 376.62 13.6 376.62ZM18.4553 376.5V375.516H20.2433V368.724H18.4553V367.74H23.1353V368.724H21.3473V375.516H23.1353V376.5H18.4553ZM25.2906 377.82L29.5506 366.54H30.6906L26.4306 377.82H25.2906ZM35.1859 376.62C34.3699 376.62 33.7459 376.396 33.3139 375.948C32.8819 375.492 32.6659 374.876 32.6659 374.1V367.74H33.7459V374.1C33.7459 374.58 33.8619 374.96 34.0939 375.24C34.3339 375.52 34.6979 375.66 35.1859 375.66C35.6659 375.66 36.0259 375.52 36.2659 375.24C36.5059 374.96 36.6259 374.58 36.6259 374.1V367.74H37.7059V374.1C37.7059 374.884 37.4899 375.5 37.0579 375.948C36.6339 376.396 36.0099 376.62 35.1859 376.62ZM39.2613 376.5L41.7812 372.06L39.3933 367.74H40.6413L41.9973 370.332C42.0693 370.468 42.1413 370.616 42.2133 370.776C42.2933 370.928 42.3573 371.048 42.4053 371.136C42.4453 371.048 42.5013 370.928 42.5733 370.776C42.6533 370.616 42.7293 370.468 42.8013 370.332L44.1813 367.74H45.3693L42.9813 371.988L45.5013 376.5H44.2653L42.7653 373.716C42.6933 373.58 42.6173 373.436 42.5373 373.284C42.4653 373.124 42.4093 372.996 42.3693 372.9C42.3293 372.996 42.2693 373.12 42.1893 373.272C42.1173 373.424 42.0453 373.568 41.9733 373.704L40.4613 376.5H39.2613ZM47.6566 373.02V372.06H51.4966V373.02H47.6566ZM54.2759 376.5V367.74H56.5439C57.1119 367.74 57.5999 367.848 58.0079 368.064C58.4239 368.28 58.7439 368.584 58.9679 368.976C59.1999 369.368 59.3159 369.832 59.3159 370.368V373.86C59.3159 374.396 59.1999 374.864 58.9679 375.264C58.7439 375.656 58.4239 375.96 58.0079 376.176C57.5999 376.392 57.1119 376.5 56.5439 376.5H54.2759ZM55.3559 375.54H56.5439C57.0719 375.54 57.4839 375.392 57.7799 375.096C58.0839 374.8 58.2359 374.388 58.2359 373.86V370.368C58.2359 369.848 58.0839 369.44 57.7799 369.144C57.4839 368.848 57.0719 368.7 56.5439 368.7H55.3559V375.54ZM63.9672 376.62C63.4472 376.62 62.9912 376.516 62.5992 376.308C62.2152 376.1 61.9152 375.808 61.6992 375.432C61.4912 375.048 61.3872 374.604 61.3872 374.1V372.3C61.3872 371.788 61.4912 371.344 61.6992 370.968C61.9152 370.592 62.2152 370.3 62.5992 370.092C62.9912 369.884 63.4472 369.78 63.9672 369.78C64.4872 369.78 64.9392 369.884 65.3232 370.092C65.7152 370.3 66.0152 370.592 66.2232 370.968C66.4392 371.344 66.5472 371.788 66.5472 372.3V373.464H62.4432V374.1C62.4432 374.62 62.5752 375.02 62.8392 375.3C63.1032 375.572 63.4792 375.708 63.9672 375.708C64.3832 375.708 64.7192 375.636 64.9752 375.492C65.2312 375.34 65.3872 375.116 65.4432 374.82H66.5232C66.4512 375.372 66.1792 375.812 65.7072 376.14C65.2432 376.46 64.6632 376.62 63.9672 376.62ZM62.4432 372.648H65.4912V372.3C65.4912 371.78 65.3592 371.38 65.0952 371.1C64.8392 370.82 64.4632 370.68 63.9672 370.68C63.4792 370.68 63.1032 370.82 62.8392 371.1C62.5752 371.38 62.4432 371.78 62.4432 372.3V372.648ZM70.9585 376.596C70.2785 376.596 69.7225 376.44 69.2905 376.128C68.8585 375.816 68.6425 375.388 68.6425 374.844H69.7465C69.7465 375.092 69.8625 375.288 70.0945 375.432C70.3345 375.568 70.6305 375.636 70.9825 375.636H71.4865C71.9105 375.636 72.2265 375.552 72.4345 375.384C72.6425 375.208 72.7465 374.976 72.7465 374.688C72.7465 374.408 72.6465 374.188 72.4465 374.028C72.2545 373.86 71.9745 373.748 71.6065 373.692L70.7185 373.548C70.0625 373.436 69.5785 373.228 69.2665 372.924C68.9545 372.62 68.7985 372.2 68.7985 371.664C68.7985 371.064 68.9905 370.604 69.3745 370.284C69.7665 369.964 70.3265 369.804 71.0545 369.804H71.5105C72.1825 369.804 72.7185 369.956 73.1185 370.26C73.5265 370.556 73.7305 370.952 73.7305 371.448H72.6265C72.6265 371.24 72.5225 371.076 72.3145 370.956C72.1145 370.828 71.8385 370.764 71.4865 370.764H71.0305C70.6545 370.764 70.3625 370.844 70.1545 371.004C69.9545 371.156 69.8545 371.376 69.8545 371.664C69.8545 372.144 70.1945 372.44 70.8745 372.552L71.7625 372.696C72.4745 372.808 72.9905 373.016 73.3105 373.32C73.6385 373.624 73.8025 374.064 73.8025 374.64C73.8025 375.248 73.6065 375.728 73.2145 376.08C72.8305 376.424 72.2465 376.596 71.4625 376.596H70.9585ZM75.7778 376.5V375.516H78.1178V370.884H76.0178V369.9H79.1978V375.516H81.4178V376.5H75.7778ZM78.5378 368.712C78.2738 368.712 78.0658 368.644 77.9138 368.508C77.7618 368.372 77.6858 368.188 77.6858 367.956C77.6858 367.716 77.7618 367.528 77.9138 367.392C78.0658 367.248 78.2738 367.176 78.5378 367.176C78.8018 367.176 79.0098 367.248 79.1618 367.392C79.3138 367.528 79.3898 367.716 79.3898 367.956C79.3898 368.188 79.3138 368.372 79.1618 368.508C79.0098 368.644 78.8018 368.712 78.5378 368.712ZM83.8851 378.66V377.676H85.9851C86.6331 377.676 86.9571 377.364 86.9571 376.74V375.9L86.9811 374.7H86.9571C86.9171 375.124 86.7371 375.46 86.4171 375.708C86.1051 375.956 85.7011 376.08 85.2051 376.08C84.5251 376.08 83.9891 375.86 83.5971 375.42C83.2051 374.972 83.0091 374.372 83.0091 373.62V372.228C83.0091 371.476 83.2051 370.88 83.5971 370.44C83.9891 370 84.5251 369.78 85.2051 369.78C85.7011 369.78 86.1051 369.904 86.4171 370.152C86.7371 370.4 86.9171 370.736 86.9571 371.16H86.9691V369.9H88.0371V376.74C88.0371 377.332 87.8531 377.8 87.4851 378.144C87.1251 378.488 86.6211 378.66 85.9731 378.66H83.8851ZM85.5291 375.144C85.9771 375.144 86.3291 375.004 86.5851 374.724C86.8411 374.444 86.9691 374.056 86.9691 373.56V372.3C86.9691 371.804 86.8411 371.416 86.5851 371.136C86.3291 370.856 85.9771 370.716 85.5291 370.716C85.0731 370.716 84.7171 370.852 84.4611 371.124C84.2131 371.396 84.0891 371.788 84.0891 372.3V373.56C84.0891 374.072 84.2131 374.464 84.4611 374.736C84.7171 375.008 85.0731 375.144 85.5291 375.144ZM90.2524 376.5V369.9H91.3324V371.16H91.3444C91.4004 370.72 91.5804 370.38 91.8844 370.14C92.1884 369.9 92.5924 369.78 93.0964 369.78C93.7604 369.78 94.2884 369.984 94.6804 370.392C95.0724 370.8 95.2684 371.356 95.2684 372.06V376.5H94.1884V372.18C94.1884 371.708 94.0604 371.348 93.8044 371.1C93.5564 370.844 93.2164 370.716 92.7844 370.716C92.3364 370.716 91.9804 370.852 91.7164 371.124C91.4604 371.396 91.3324 371.788 91.3324 372.3V376.5H90.2524Z" fill="#DDDDDD"/>
<rect y="320" width="71" height="25" rx="12.5" fill="#F4322C"/>
<path d="M11.104 336.5V327.74H13.372C13.94 327.74 14.428 327.848 14.836 328.064C15.252 328.28 15.572 328.584 15.796 328.976C16.028 329.368 16.144 329.832 16.144 330.368V333.86C16.144 334.396 16.028 334.864 15.796 335.264C15.572 335.656 15.252 335.96 14.836 336.176C14.428 336.392 13.94 336.5 13.372 336.5H11.104ZM12.184 335.54H13.372C13.9 335.54 14.312 335.392 14.608 335.096C14.912 334.8 15.064 334.388 15.064 333.86V330.368C15.064 329.848 14.912 329.44 14.608 329.144C14.312 328.848 13.9 328.7 13.372 328.7H12.184V335.54ZM20.7953 336.62C20.2753 336.62 19.8193 336.516 19.4273 336.308C19.0433 336.1 18.7433 335.808 18.5273 335.432C18.3193 335.048 18.2153 334.604 18.2153 334.1V332.3C18.2153 331.788 18.3193 331.344 18.5273 330.968C18.7433 330.592 19.0433 330.3 19.4273 330.092C19.8193 329.884 20.2753 329.78 20.7953 329.78C21.3153 329.78 21.7673 329.884 22.1513 330.092C22.5433 330.3 22.8433 330.592 23.0513 330.968C23.2673 331.344 23.3753 331.788 23.3753 332.3V333.464H19.2713V334.1C19.2713 334.62 19.4033 335.02 19.6673 335.3C19.9313 335.572 20.3073 335.708 20.7953 335.708C21.2113 335.708 21.5473 335.636 21.8033 335.492C22.0593 335.34 22.2153 335.116 22.2713 334.82H23.3513C23.2793 335.372 23.0073 335.812 22.5353 336.14C22.0713 336.46 21.4913 336.62 20.7953 336.62ZM19.2713 332.648H22.3193V332.3C22.3193 331.78 22.1873 331.38 21.9233 331.1C21.6673 330.82 21.2913 330.68 20.7953 330.68C20.3073 330.68 19.9313 330.82 19.6673 331.1C19.4033 331.38 19.2713 331.78 19.2713 332.3V332.648ZM27.2826 336.5L24.9906 329.9H26.1066L27.6426 334.34C27.7306 334.604 27.8066 334.86 27.8706 335.108C27.9346 335.348 27.9826 335.536 28.0146 335.672C28.0546 335.536 28.1026 335.348 28.1586 335.108C28.2146 334.86 28.2866 334.604 28.3746 334.34L29.8626 329.9H30.9906L28.6986 336.5H27.2826ZM42.3813 336.62C41.5973 336.62 40.9773 336.396 40.5213 335.948C40.0653 335.5 39.8373 334.884 39.8373 334.1V330.14C39.8373 329.356 40.0653 328.74 40.5213 328.292C40.9773 327.844 41.5973 327.62 42.3813 327.62C43.1653 327.62 43.7853 327.844 44.2413 328.292C44.6973 328.732 44.9253 329.344 44.9253 330.128V334.1C44.9253 334.884 44.6973 335.5 44.2413 335.948C43.7853 336.396 43.1653 336.62 42.3813 336.62ZM42.3813 335.648C42.8533 335.648 43.2133 335.516 43.4613 335.252C43.7173 334.98 43.8453 334.596 43.8453 334.1V330.14C43.8453 329.644 43.7173 329.264 43.4613 329C43.2133 328.728 42.8533 328.592 42.3813 328.592C41.9173 328.592 41.5573 328.728 41.3013 329C41.0453 329.264 40.9173 329.644 40.9173 330.14V334.1C40.9173 334.596 41.0453 334.98 41.3013 335.252C41.5573 335.516 41.9173 335.648 42.3813 335.648ZM47.0926 338.66V329.9H48.1726V331.16H48.1846C48.2406 330.728 48.4286 330.392 48.7486 330.152C49.0766 329.904 49.4886 329.78 49.9846 329.78C50.6486 329.78 51.1766 330 51.5686 330.44C51.9686 330.872 52.1686 331.468 52.1686 332.228V334.16C52.1686 334.92 51.9686 335.52 51.5686 335.96C51.1766 336.4 50.6486 336.62 49.9846 336.62C49.4886 336.62 49.0806 336.496 48.7606 336.248C48.4406 336 48.2486 335.664 48.1846 335.24H48.1486L48.1726 336.74V338.66H47.0926ZM49.6246 335.684C50.0806 335.684 50.4366 335.548 50.6926 335.276C50.9566 335.004 51.0886 334.612 51.0886 334.1V332.3C51.0886 331.788 50.9566 331.396 50.6926 331.124C50.4366 330.852 50.0806 330.716 49.6246 330.716C49.1846 330.716 48.8326 330.856 48.5686 331.136C48.3046 331.416 48.1726 331.804 48.1726 332.3V334.1C48.1726 334.596 48.3046 334.984 48.5686 335.264C48.8326 335.544 49.1846 335.684 49.6246 335.684ZM56.5679 336.596C55.8879 336.596 55.3319 336.44 54.8999 336.128C54.4679 335.816 54.2519 335.388 54.2519 334.844H55.3559C55.3559 335.092 55.4719 335.288 55.7039 335.432C55.9439 335.568 56.2399 335.636 56.5919 335.636H57.0959C57.5199 335.636 57.8359 335.552 58.0439 335.384C58.2519 335.208 58.3559 334.976 58.3559 334.688C58.3559 334.408 58.2559 334.188 58.0559 334.028C57.8639 333.86 57.5839 333.748 57.2159 333.692L56.3279 333.548C55.6719 333.436 55.1879 333.228 54.8759 332.924C54.5639 332.62 54.4079 332.2 54.4079 331.664C54.4079 331.064 54.5999 330.604 54.9839 330.284C55.3759 329.964 55.9359 329.804 56.6639 329.804H57.1199C57.7919 329.804 58.3279 329.956 58.7279 330.26C59.1359 330.556 59.3399 330.952 59.3399 331.448H58.2359C58.2359 331.24 58.1319 331.076 57.9239 330.956C57.7239 330.828 57.4479 330.764 57.0959 330.764H56.6399C56.2639 330.764 55.9719 330.844 55.7639 331.004C55.5639 331.156 55.4639 331.376 55.4639 331.664C55.4639 332.144 55.8039 332.44 56.4839 332.552L57.3719 332.696C58.0839 332.808 58.5999 333.016 58.9199 333.32C59.2479 333.624 59.4119 334.064 59.4119 334.64C59.4119 335.248 59.2159 335.728 58.8239 336.08C58.4399 336.424 57.8559 336.596 57.0719 336.596H56.5679Z" fill="#DDDDDD"/>
<rect y="280" width="56" height="25" rx="12.5" fill="#F4322C"/>
<path d="M13.648 296.62C12.848 296.62 12.216 296.396 11.752 295.948C11.288 295.5 11.056 294.884 11.056 294.1V290.14C11.056 289.356 11.288 288.74 11.752 288.292C12.216 287.844 12.848 287.62 13.648 287.62C14.432 287.62 15.056 287.848 15.52 288.304C15.984 288.752 16.216 289.364 16.216 290.14H15.136C15.136 289.644 15.004 289.264 14.74 289C14.484 288.728 14.12 288.592 13.648 288.592C13.176 288.592 12.804 288.724 12.532 288.988C12.268 289.252 12.136 289.632 12.136 290.128V294.1C12.136 294.596 12.268 294.98 12.532 295.252C12.804 295.516 13.176 295.648 13.648 295.648C14.12 295.648 14.484 295.516 14.74 295.252C15.004 294.98 15.136 294.596 15.136 294.1H16.216C16.216 294.876 15.984 295.492 15.52 295.948C15.056 296.396 14.432 296.62 13.648 296.62ZM18.4553 296.5V295.516H20.2433V288.724H18.4553V287.74H23.1353V288.724H21.3473V295.516H23.1353V296.5H18.4553ZM25.2906 297.82L29.5506 286.54H30.6906L26.4306 297.82H25.2906ZM35.2339 296.62C34.4339 296.62 33.8019 296.396 33.3379 295.948C32.8739 295.5 32.6419 294.884 32.6419 294.1V290.14C32.6419 289.356 32.8739 288.74 33.3379 288.292C33.8019 287.844 34.4339 287.62 35.2339 287.62C36.0179 287.62 36.6419 287.848 37.1059 288.304C37.5699 288.752 37.8019 289.364 37.8019 290.14H36.7219C36.7219 289.644 36.5899 289.264 36.3259 289C36.0699 288.728 35.7059 288.592 35.2339 288.592C34.7619 288.592 34.3899 288.724 34.1179 288.988C33.8539 289.252 33.7219 289.632 33.7219 290.128V294.1C33.7219 294.596 33.8539 294.98 34.1179 295.252C34.3899 295.516 34.7619 295.648 35.2339 295.648C35.7059 295.648 36.0699 295.516 36.3259 295.252C36.5899 294.98 36.7219 294.596 36.7219 294.1H37.8019C37.8019 294.876 37.5699 295.492 37.1059 295.948C36.6419 296.396 36.0179 296.62 35.2339 296.62ZM39.8853 296.5V287.74H42.1533C42.7213 287.74 43.2093 287.848 43.6173 288.064C44.0333 288.28 44.3533 288.584 44.5773 288.976C44.8093 289.368 44.9253 289.832 44.9253 290.368V293.86C44.9253 294.396 44.8093 294.864 44.5773 295.264C44.3533 295.656 44.0333 295.96 43.6173 296.176C43.2093 296.392 42.7213 296.5 42.1533 296.5H39.8853ZM40.9653 295.54H42.1533C42.6813 295.54 43.0933 295.392 43.3893 295.096C43.6933 294.8 43.8453 294.388 43.8453 293.86V290.368C43.8453 289.848 43.6933 289.44 43.3893 289.144C43.0933 288.848 42.6813 288.7 42.1533 288.7H40.9653V295.54Z" fill="#DDDDDD"/>
<rect y="200" width="107" height="25" rx="12.5" fill="#F4322C"/>
<path d="M12.856 216.5L10.6 207.74H11.704L13.204 213.704C13.308 214.12 13.392 214.504 13.456 214.856C13.528 215.208 13.58 215.476 13.612 215.66C13.644 215.476 13.696 215.208 13.768 214.856C13.848 214.496 13.94 214.108 14.044 213.692L15.484 207.74H16.6L14.332 216.5H12.856ZM20.7833 216.62C20.0233 216.62 19.4153 216.396 18.9593 215.948C18.5033 215.492 18.2753 214.876 18.2753 214.1V209.9H19.3553V214.1C19.3553 214.596 19.4833 214.984 19.7393 215.264C19.9953 215.536 20.3433 215.672 20.7833 215.672C21.2313 215.672 21.5833 215.536 21.8393 215.264C22.1033 214.984 22.2353 214.596 22.2353 214.1V209.9H23.3153V214.1C23.3153 214.876 23.0833 215.492 22.6193 215.948C22.1553 216.396 21.5433 216.62 20.7833 216.62ZM27.9906 216.62C27.4706 216.62 27.0146 216.516 26.6226 216.308C26.2386 216.1 25.9386 215.808 25.7226 215.432C25.5146 215.048 25.4106 214.604 25.4106 214.1V212.3C25.4106 211.788 25.5146 211.344 25.7226 210.968C25.9386 210.592 26.2386 210.3 26.6226 210.092C27.0146 209.884 27.4706 209.78 27.9906 209.78C28.5106 209.78 28.9626 209.884 29.3466 210.092C29.7386 210.3 30.0386 210.592 30.2466 210.968C30.4626 211.344 30.5706 211.788 30.5706 212.3V213.464H26.4666V214.1C26.4666 214.62 26.5986 215.02 26.8626 215.3C27.1266 215.572 27.5026 215.708 27.9906 215.708C28.4066 215.708 28.7426 215.636 28.9986 215.492C29.2546 215.34 29.4106 215.116 29.4666 214.82H30.5466C30.4746 215.372 30.2026 215.812 29.7306 216.14C29.2666 216.46 28.6866 216.62 27.9906 216.62ZM26.4666 212.648H29.5146V212.3C29.5146 211.78 29.3826 211.38 29.1186 211.1C28.8626 210.82 28.4866 210.68 27.9906 210.68C27.5026 210.68 27.1266 210.82 26.8626 211.1C26.5986 211.38 26.4666 211.78 26.4666 212.3V212.648ZM32.4259 218.66V217.664H34.1539C34.6499 217.664 35.0339 217.528 35.3059 217.256C35.5859 216.992 35.7259 216.616 35.7259 216.128V210.884H32.6659V209.9H36.8059V216.128C36.8059 216.904 36.5659 217.52 36.0859 217.976C35.6059 218.432 34.9619 218.66 34.1539 218.66H32.4259ZM36.2059 208.712C35.9419 208.712 35.7339 208.644 35.5819 208.508C35.4299 208.372 35.3539 208.188 35.3539 207.956C35.3539 207.716 35.4299 207.528 35.5819 207.392C35.7339 207.248 35.9419 207.176 36.2059 207.176C36.4699 207.176 36.6779 207.248 36.8299 207.392C36.9819 207.528 37.0579 207.716 37.0579 207.956C37.0579 208.188 36.9819 208.372 36.8299 208.508C36.6779 208.644 36.4699 208.712 36.2059 208.712ZM42.1773 216.596C41.4973 216.596 40.9413 216.44 40.5093 216.128C40.0773 215.816 39.8613 215.388 39.8613 214.844H40.9653C40.9653 215.092 41.0813 215.288 41.3133 215.432C41.5533 215.568 41.8493 215.636 42.2013 215.636H42.7053C43.1293 215.636 43.4453 215.552 43.6533 215.384C43.8613 215.208 43.9653 214.976 43.9653 214.688C43.9653 214.408 43.8653 214.188 43.6653 214.028C43.4733 213.86 43.1933 213.748 42.8253 213.692L41.9373 213.548C41.2813 213.436 40.7973 213.228 40.4853 212.924C40.1733 212.62 40.0173 212.2 40.0173 211.664C40.0173 211.064 40.2093 210.604 40.5933 210.284C40.9853 209.964 41.5453 209.804 42.2733 209.804H42.7293C43.4013 209.804 43.9373 209.956 44.3373 210.26C44.7453 210.556 44.9492 210.952 44.9492 211.448H43.8453C43.8453 211.24 43.7413 211.076 43.5333 210.956C43.3333 210.828 43.0573 210.764 42.7053 210.764H42.2493C41.8733 210.764 41.5813 210.844 41.3733 211.004C41.1733 211.156 41.0733 211.376 41.0733 211.664C41.0733 212.144 41.4133 212.44 42.0933 212.552L42.9813 212.696C43.6933 212.808 44.2093 213.016 44.5293 213.32C44.8573 213.624 45.0213 214.064 45.0213 214.64C45.0213 215.248 44.8253 215.728 44.4333 216.08C44.0493 216.424 43.4653 216.596 42.6813 216.596H42.1773ZM46.8766 217.82L51.1366 206.54H52.2766L48.0166 217.82H46.8766ZM54.2519 216.5V207.74H55.6919L58.3679 215.24C58.3519 215.04 58.3319 214.796 58.3079 214.508C58.2919 214.212 58.2759 213.904 58.2599 213.584C58.2519 213.256 58.2479 212.948 58.2479 212.66V207.74H59.2919V216.5H57.8519L55.1879 209C55.2039 209.192 55.2199 209.436 55.2359 209.732C55.2519 210.02 55.2639 210.328 55.2719 210.656C55.2879 210.976 55.2959 211.284 55.2959 211.58V216.5H54.2519ZM63.9552 216.62C63.1952 216.62 62.5872 216.396 62.1312 215.948C61.6752 215.492 61.4472 214.876 61.4472 214.1V209.9H62.5272V214.1C62.5272 214.596 62.6552 214.984 62.9112 215.264C63.1672 215.536 63.5152 215.672 63.9552 215.672C64.4032 215.672 64.7552 215.536 65.0112 215.264C65.2752 214.984 65.4072 214.596 65.4072 214.1V209.9H66.4872V214.1C66.4872 214.876 66.2552 215.492 65.7912 215.948C65.3272 216.396 64.7152 216.62 63.9552 216.62ZM68.1625 216.5L70.5025 213.104L68.3065 209.9H69.5785L70.8865 211.94C70.9425 212.028 70.9945 212.124 71.0425 212.228C71.0985 212.332 71.1425 212.416 71.1745 212.48C71.1985 212.416 71.2345 212.332 71.2825 212.228C71.3385 212.124 71.3945 212.028 71.4505 211.94L72.7705 209.9H74.0305L71.8345 213.116L74.1625 216.5H72.8905L71.4745 214.34C71.4185 214.252 71.3625 214.152 71.3065 214.04C71.2585 213.92 71.2145 213.824 71.1745 213.752C71.1425 213.824 71.0945 213.92 71.0305 214.04C70.9745 214.152 70.9145 214.252 70.8505 214.34L69.4225 216.5H68.1625ZM79.0778 216.5C78.5338 216.5 78.0978 216.344 77.7698 216.032C77.4418 215.712 77.2778 215.288 77.2778 214.76V210.884H75.4178V209.9H77.2778V208.04H78.3578V209.9H80.9978V210.884H78.3578V214.76C78.3578 214.984 78.4218 215.168 78.5498 215.312C78.6858 215.448 78.8618 215.516 79.0778 215.516H80.8778V216.5H79.0778ZM85.1931 216.62C84.3531 216.62 83.6931 216.384 83.2131 215.912C82.7331 215.44 82.4931 214.796 82.4931 213.98H83.5731C83.5731 214.516 83.7131 214.932 83.9931 215.228C84.2811 215.516 84.6811 215.66 85.1931 215.66C85.7051 215.66 86.1011 215.516 86.3811 215.228C86.6691 214.932 86.8131 214.516 86.8131 213.98V208.724H84.3531V207.74H87.8931V213.98C87.8931 214.796 87.6491 215.44 87.1611 215.912C86.6811 216.384 86.0251 216.62 85.1931 216.62ZM92.7964 216.62C91.9484 216.62 91.2724 216.4 90.7684 215.96C90.2644 215.52 90.0124 214.932 90.0124 214.196H91.0924C91.0924 214.636 91.2484 214.992 91.5604 215.264C91.8724 215.528 92.2844 215.66 92.7964 215.66C93.2924 215.66 93.6884 215.528 93.9844 215.264C94.2804 214.992 94.4284 214.636 94.4284 214.196C94.4284 213.852 94.3364 213.552 94.1524 213.296C93.9764 213.032 93.7324 212.852 93.4204 212.756L92.1244 212.348C91.5404 212.164 91.0804 211.86 90.7444 211.436C90.4164 211.012 90.2524 210.52 90.2524 209.96C90.2524 209.248 90.4844 208.68 90.9484 208.256C91.4204 207.832 92.0444 207.62 92.8204 207.62C93.5964 207.62 94.2164 207.832 94.6804 208.256C95.1444 208.68 95.3764 209.248 95.3764 209.96H94.2964C94.2964 209.536 94.1604 209.2 93.8884 208.952C93.6244 208.704 93.2684 208.58 92.8204 208.58C92.3644 208.58 91.9964 208.704 91.7164 208.952C91.4444 209.2 91.3084 209.528 91.3084 209.936C91.3084 210.256 91.4004 210.532 91.5844 210.764C91.7684 210.996 92.0204 211.164 92.3404 211.268L93.6844 211.7C94.2364 211.876 94.6724 212.188 94.9924 212.636C95.3204 213.084 95.4844 213.604 95.4844 214.196C95.4844 214.932 95.2404 215.52 94.7524 215.96C94.2644 216.4 93.6124 216.62 92.7964 216.62Z" fill="#DDDDDD"/>
<rect y="240" width="71" height="25" rx="12.5" fill="#F4322C"/>
<path d="M11.56 256.5V247.74H12.64V255.516H16.6V256.5H11.56ZM20.2193 256.62C19.5233 256.62 18.9753 256.444 18.5753 256.092C18.1753 255.732 17.9753 255.248 17.9753 254.64C17.9753 254.024 18.1753 253.54 18.5753 253.188C18.9753 252.836 19.5153 252.66 20.1953 252.66H22.2353V252C22.2353 251.6 22.1113 251.288 21.8633 251.064C21.6233 250.84 21.2873 250.728 20.8553 250.728C20.4713 250.728 20.1473 250.812 19.8833 250.98C19.6193 251.148 19.4553 251.368 19.3913 251.64H18.3113C18.3513 251.272 18.4833 250.948 18.7073 250.668C18.9393 250.388 19.2393 250.172 19.6073 250.02C19.9833 249.86 20.3993 249.78 20.8553 249.78C21.6153 249.78 22.2153 249.976 22.6553 250.368C23.0953 250.76 23.3153 251.292 23.3153 251.964V256.5H22.2593V255.24H22.2473C22.1993 255.664 21.9913 256 21.6233 256.248C21.2633 256.496 20.7953 256.62 20.2193 256.62ZM20.4833 255.768C20.9953 255.768 21.4153 255.64 21.7433 255.384C22.0713 255.128 22.2353 254.8 22.2353 254.4V253.464H20.2193C19.8593 253.464 19.5753 253.564 19.3673 253.764C19.1593 253.964 19.0553 254.236 19.0553 254.58C19.0553 254.948 19.1793 255.24 19.4273 255.456C19.6833 255.664 20.0353 255.768 20.4833 255.768ZM25.6986 256.5V249.9H26.7786V251.16H26.7906C26.8466 250.72 27.0266 250.38 27.3306 250.14C27.6346 249.9 28.0386 249.78 28.5426 249.78C29.2306 249.78 29.7786 250 30.1866 250.44C30.5946 250.872 30.7986 251.46 30.7986 252.204V252.66H29.7186V252.3C29.7186 251.796 29.5906 251.408 29.3346 251.136C29.0786 250.856 28.7066 250.716 28.2186 250.716C27.2586 250.716 26.7786 251.244 26.7786 252.3V256.5H25.6986ZM34.6099 256.62C33.9139 256.62 33.3659 256.444 32.9659 256.092C32.5659 255.732 32.3659 255.248 32.3659 254.64C32.3659 254.024 32.5659 253.54 32.9659 253.188C33.3659 252.836 33.9059 252.66 34.5859 252.66H36.6259V252C36.6259 251.6 36.5019 251.288 36.2539 251.064C36.0139 250.84 35.6779 250.728 35.2459 250.728C34.8619 250.728 34.5379 250.812 34.2739 250.98C34.0099 251.148 33.8459 251.368 33.7819 251.64H32.7019C32.7419 251.272 32.8739 250.948 33.0979 250.668C33.3299 250.388 33.6299 250.172 33.9979 250.02C34.3739 249.86 34.7899 249.78 35.2459 249.78C36.0059 249.78 36.6059 249.976 37.0459 250.368C37.4859 250.76 37.7059 251.292 37.7059 251.964V256.5H36.6499V255.24H36.6379C36.5899 255.664 36.3819 256 36.0139 256.248C35.6539 256.496 35.1859 256.62 34.6099 256.62ZM34.8739 255.768C35.3859 255.768 35.8059 255.64 36.1339 255.384C36.4619 255.128 36.6259 254.8 36.6259 254.4V253.464H34.6099C34.2499 253.464 33.9659 253.564 33.7579 253.764C33.5499 253.964 33.4459 254.236 33.4459 254.58C33.4459 254.948 33.5699 255.24 33.8179 255.456C34.0739 255.664 34.4259 255.768 34.8739 255.768ZM41.6733 256.5L39.3813 249.9H40.4973L42.0333 254.34C42.1213 254.604 42.1973 254.86 42.2613 255.108C42.3253 255.348 42.3733 255.536 42.4053 255.672C42.4453 255.536 42.4933 255.348 42.5493 255.108C42.6053 254.86 42.6773 254.604 42.7653 254.34L44.2533 249.9H45.3813L43.0893 256.5H41.6733ZM49.5766 256.62C49.0566 256.62 48.6006 256.516 48.2086 256.308C47.8246 256.1 47.5246 255.808 47.3086 255.432C47.1006 255.048 46.9966 254.604 46.9966 254.1V252.3C46.9966 251.788 47.1006 251.344 47.3086 250.968C47.5246 250.592 47.8246 250.3 48.2086 250.092C48.6006 249.884 49.0566 249.78 49.5766 249.78C50.0966 249.78 50.5486 249.884 50.9326 250.092C51.3246 250.3 51.6246 250.592 51.8326 250.968C52.0486 251.344 52.1566 251.788 52.1566 252.3V253.464H48.0526V254.1C48.0526 254.62 48.1846 255.02 48.4486 255.3C48.7126 255.572 49.0886 255.708 49.5766 255.708C49.9926 255.708 50.3286 255.636 50.5846 255.492C50.8406 255.34 50.9966 255.116 51.0526 254.82H52.1326C52.0606 255.372 51.7886 255.812 51.3166 256.14C50.8526 256.46 50.2726 256.62 49.5766 256.62ZM48.0526 252.648H51.1006V252.3C51.1006 251.78 50.9686 251.38 50.7046 251.1C50.4486 250.82 50.0726 250.68 49.5766 250.68C49.0886 250.68 48.7126 250.82 48.4486 251.1C48.1846 251.38 48.0526 251.78 48.0526 252.3V252.648ZM57.7319 256.5C57.1479 256.5 56.6799 256.332 56.3279 255.996C55.9839 255.652 55.8119 255.2 55.8119 254.64V248.724H53.5319V247.74H56.8919V254.64C56.8919 254.912 56.9679 255.128 57.1199 255.288C57.2719 255.44 57.4759 255.516 57.7319 255.516H59.7719V256.5H57.7319Z" fill="#DDDDDD"/>
<rect width="128" height="25" rx="12.5" fill="#F4322C"/>
<path d="M11.308 16.5L10.3 7.74H11.332L11.992 14.22C12.016 14.484 12.036 14.76 12.052 15.048C12.076 15.328 12.092 15.552 12.1 15.72C12.116 15.552 12.136 15.328 12.16 15.048C12.192 14.76 12.224 14.484 12.256 14.22L13.072 7.74H14.188L14.932 14.22C14.964 14.484 14.996 14.76 15.028 15.048C15.06 15.328 15.084 15.552 15.1 15.72C15.116 15.552 15.132 15.328 15.148 15.048C15.172 14.76 15.2 14.484 15.232 14.22L15.916 7.74H16.9L15.868 16.5H14.512L13.768 9.9C13.736 9.628 13.708 9.364 13.684 9.108C13.66 8.844 13.64 8.64 13.624 8.496C13.608 8.64 13.584 8.844 13.552 9.108C13.528 9.364 13.5 9.628 13.468 9.9L12.664 16.5H11.308ZM20.7953 16.62C20.2753 16.62 19.8193 16.516 19.4273 16.308C19.0433 16.1 18.7433 15.808 18.5273 15.432C18.3193 15.048 18.2153 14.604 18.2153 14.1V12.3C18.2153 11.788 18.3193 11.344 18.5273 10.968C18.7433 10.592 19.0433 10.3 19.4273 10.092C19.8193 9.884 20.2753 9.78 20.7953 9.78C21.3153 9.78 21.7673 9.884 22.1513 10.092C22.5433 10.3 22.8433 10.592 23.0513 10.968C23.2673 11.344 23.3753 11.788 23.3753 12.3V13.464H19.2713V14.1C19.2713 14.62 19.4033 15.02 19.6673 15.3C19.9313 15.572 20.3073 15.708 20.7953 15.708C21.2113 15.708 21.5473 15.636 21.8033 15.492C22.0593 15.34 22.2153 15.116 22.2713 14.82H23.3513C23.2793 15.372 23.0073 15.812 22.5353 16.14C22.0713 16.46 21.4913 16.62 20.7953 16.62ZM19.2713 12.648H22.3193V12.3C22.3193 11.78 22.1873 11.38 21.9233 11.1C21.6673 10.82 21.2913 10.68 20.7953 10.68C20.3073 10.68 19.9313 10.82 19.6673 11.1C19.4033 11.38 19.2713 11.78 19.2713 12.3V12.648ZM28.3746 16.62C27.8786 16.62 27.4706 16.5 27.1506 16.26C26.8306 16.012 26.6426 15.672 26.5866 15.24H26.5746V16.5H25.4946V7.74H26.5746V9.66L26.5506 11.16H26.5866C26.6426 10.736 26.8306 10.4 27.1506 10.152C27.4706 9.904 27.8786 9.78 28.3746 9.78C29.0386 9.78 29.5706 10 29.9706 10.44C30.3706 10.88 30.5706 11.48 30.5706 12.24V14.172C30.5706 14.924 30.3706 15.52 29.9706 15.96C29.5706 16.4 29.0386 16.62 28.3746 16.62ZM28.0146 15.684C28.4706 15.684 28.8306 15.548 29.0946 15.276C29.3586 15.004 29.4906 14.612 29.4906 14.1V12.3C29.4906 11.788 29.3586 11.396 29.0946 11.124C28.8306 10.852 28.4706 10.716 28.0146 10.716C27.5746 10.716 27.2226 10.856 26.9586 11.136C26.7026 11.416 26.5746 11.804 26.5746 12.3V14.1C26.5746 14.596 26.7026 14.984 26.9586 15.264C27.2226 15.544 27.5746 15.684 28.0146 15.684ZM39.8853 16.5V7.74H42.1533C42.7213 7.74 43.2093 7.848 43.6173 8.064C44.0333 8.28 44.3533 8.584 44.5773 8.976C44.8093 9.368 44.9253 9.832 44.9253 10.368V13.86C44.9253 14.396 44.8093 14.864 44.5773 15.264C44.3533 15.656 44.0333 15.96 43.6173 16.176C43.2093 16.392 42.7213 16.5 42.1533 16.5H39.8853ZM40.9653 15.54H42.1533C42.6813 15.54 43.0933 15.392 43.3893 15.096C43.6933 14.8 43.8453 14.388 43.8453 13.86V10.368C43.8453 9.848 43.6933 9.44 43.3893 9.144C43.0933 8.848 42.6813 8.7 42.1533 8.7H40.9653V15.54ZM49.5766 16.62C49.0566 16.62 48.6006 16.516 48.2086 16.308C47.8246 16.1 47.5246 15.808 47.3086 15.432C47.1006 15.048 46.9966 14.604 46.9966 14.1V12.3C46.9966 11.788 47.1006 11.344 47.3086 10.968C47.5246 10.592 47.8246 10.3 48.2086 10.092C48.6006 9.884 49.0566 9.78 49.5766 9.78C50.0966 9.78 50.5486 9.884 50.9326 10.092C51.3246 10.3 51.6246 10.592 51.8326 10.968C52.0486 11.344 52.1566 11.788 52.1566 12.3V13.464H48.0526V14.1C48.0526 14.62 48.1846 15.02 48.4486 15.3C48.7126 15.572 49.0886 15.708 49.5766 15.708C49.9926 15.708 50.3286 15.636 50.5846 15.492C50.8406 15.34 50.9966 15.116 51.0526 14.82H52.1326C52.0606 15.372 51.7886 15.812 51.3166 16.14C50.8526 16.46 50.2726 16.62 49.5766 16.62ZM48.0526 12.648H51.1006V12.3C51.1006 11.78 50.9686 11.38 50.7046 11.1C50.4486 10.82 50.0726 10.68 49.5766 10.68C49.0886 10.68 48.7126 10.82 48.4486 11.1C48.1846 11.38 48.0526 11.78 48.0526 12.3V12.648ZM56.0639 16.5L53.7719 9.9H54.8879L56.4239 14.34C56.5119 14.604 56.5879 14.86 56.6519 15.108C56.7159 15.348 56.7639 15.536 56.7959 15.672C56.8359 15.536 56.8839 15.348 56.9399 15.108C56.9959 14.86 57.0679 14.604 57.1559 14.34L58.6439 9.9H59.7719L57.4799 16.5H56.0639ZM63.9672 16.62C63.4472 16.62 62.9912 16.516 62.5992 16.308C62.2152 16.1 61.9152 15.808 61.6992 15.432C61.4912 15.048 61.3872 14.604 61.3872 14.1V12.3C61.3872 11.788 61.4912 11.344 61.6992 10.968C61.9152 10.592 62.2152 10.3 62.5992 10.092C62.9912 9.884 63.4472 9.78 63.9672 9.78C64.4872 9.78 64.9392 9.884 65.3232 10.092C65.7152 10.3 66.0152 10.592 66.2232 10.968C66.4392 11.344 66.5472 11.788 66.5472 12.3V13.464H62.4432V14.1C62.4432 14.62 62.5752 15.02 62.8392 15.3C63.1032 15.572 63.4792 15.708 63.9672 15.708C64.3832 15.708 64.7192 15.636 64.9752 15.492C65.2312 15.34 65.3872 15.116 65.4432 14.82H66.5232C66.4512 15.372 66.1792 15.812 65.7072 16.14C65.2432 16.46 64.6632 16.62 63.9672 16.62ZM62.4432 12.648H65.4912V12.3C65.4912 11.78 65.3592 11.38 65.0952 11.1C64.8392 10.82 64.4632 10.68 63.9672 10.68C63.4792 10.68 63.1032 10.82 62.8392 11.1C62.5752 11.38 62.4432 11.78 62.4432 12.3V12.648ZM72.1225 16.5C71.5385 16.5 71.0705 16.332 70.7185 15.996C70.3745 15.652 70.2025 15.2 70.2025 14.64V8.724H67.9225V7.74H71.2825V14.64C71.2825 14.912 71.3585 15.128 71.5105 15.288C71.6625 15.44 71.8665 15.516 72.1225 15.516H74.1625V16.5H72.1225ZM78.3578 16.596C77.5578 16.596 76.9258 16.372 76.4618 15.924C76.0058 15.468 75.7778 14.852 75.7778 14.076V12.324C75.7778 11.54 76.0058 10.924 76.4618 10.476C76.9258 10.028 77.5578 9.804 78.3578 9.804C79.1578 9.804 79.7858 10.028 80.2418 10.476C80.7058 10.924 80.9378 11.536 80.9378 12.312V14.076C80.9378 14.852 80.7058 15.468 80.2418 15.924C79.7858 16.372 79.1578 16.596 78.3578 16.596ZM78.3578 15.636C78.8298 15.636 79.1978 15.504 79.4618 15.24C79.7258 14.976 79.8578 14.588 79.8578 14.076V12.324C79.8578 11.812 79.7258 11.424 79.4618 11.16C79.1978 10.896 78.8298 10.764 78.3578 10.764C77.8938 10.764 77.5258 10.896 77.2538 11.16C76.9898 11.424 76.8578 11.812 76.8578 12.324V14.076C76.8578 14.588 76.9898 14.976 77.2538 15.24C77.5258 15.504 77.8938 15.636 78.3578 15.636ZM83.0691 18.66V9.9H84.1491V11.16H84.1611C84.2171 10.728 84.4051 10.392 84.7251 10.152C85.0531 9.904 85.4651 9.78 85.9611 9.78C86.6251 9.78 87.1531 10 87.5451 10.44C87.9451 10.872 88.1451 11.468 88.1451 12.228V14.16C88.1451 14.92 87.9451 15.52 87.5451 15.96C87.1531 16.4 86.6251 16.62 85.9611 16.62C85.4651 16.62 85.0571 16.496 84.7371 16.248C84.4171 16 84.2251 15.664 84.1611 15.24H84.1251L84.1491 16.74V18.66H83.0691ZM85.6011 15.684C86.0571 15.684 86.4131 15.548 86.6691 15.276C86.9331 15.004 87.0651 14.612 87.0651 14.1V12.3C87.0651 11.788 86.9331 11.396 86.6691 11.124C86.4131 10.852 86.0571 10.716 85.6011 10.716C85.1611 10.716 84.8091 10.856 84.5451 11.136C84.2811 11.416 84.1491 11.804 84.1491 12.3V14.1C84.1491 14.596 84.2811 14.984 84.5451 15.264C84.8091 15.544 85.1611 15.684 85.6011 15.684ZM89.8684 16.5V9.9H90.8164V10.692H90.8884C90.9444 10.42 91.0684 10.2 91.2604 10.032C91.4604 9.864 91.7044 9.78 91.9924 9.78C92.2564 9.78 92.4844 9.864 92.6764 10.032C92.8684 10.192 93.0044 10.412 93.0844 10.692H93.1564C93.2124 10.42 93.3404 10.2 93.5404 10.032C93.7404 9.864 93.9884 9.78 94.2844 9.78C94.6844 9.78 95.0084 9.94 95.2564 10.26C95.5044 10.572 95.6284 10.98 95.6284 11.484V16.5H94.6324V11.472C94.6324 11.192 94.5684 10.98 94.4404 10.836C94.3204 10.684 94.1444 10.608 93.9124 10.608C93.6804 10.608 93.5004 10.684 93.3724 10.836C93.2444 10.98 93.1804 11.188 93.1804 11.46V16.5H92.3164V11.472C92.3164 11.192 92.2484 10.98 92.1124 10.836C91.9844 10.684 91.8044 10.608 91.5724 10.608C91.3484 10.608 91.1724 10.684 91.0444 10.836C90.9244 10.98 90.8644 11.188 90.8644 11.46V16.5H89.8684ZM99.9438 16.62C99.4238 16.62 98.9678 16.516 98.5758 16.308C98.1918 16.1 97.8918 15.808 97.6758 15.432C97.4678 15.048 97.3638 14.604 97.3638 14.1V12.3C97.3638 11.788 97.4678 11.344 97.6758 10.968C97.8918 10.592 98.1918 10.3 98.5758 10.092C98.9678 9.884 99.4238 9.78 99.9438 9.78C100.464 9.78 100.916 9.884 101.3 10.092C101.692 10.3 101.992 10.592 102.2 10.968C102.416 11.344 102.524 11.788 102.524 12.3V13.464H98.4198V14.1C98.4198 14.62 98.5518 15.02 98.8158 15.3C99.0798 15.572 99.4558 15.708 99.9438 15.708C100.36 15.708 100.696 15.636 100.952 15.492C101.208 15.34 101.364 15.116 101.42 14.82H102.5C102.428 15.372 102.156 15.812 101.684 16.14C101.22 16.46 100.64 16.62 99.9438 16.62ZM98.4198 12.648H101.468V12.3C101.468 11.78 101.336 11.38 101.072 11.1C100.816 10.82 100.44 10.68 99.9438 10.68C99.4558 10.68 99.0798 10.82 98.8158 11.1C98.5518 11.38 98.4198 11.78 98.4198 12.3V12.648ZM104.643 16.5V9.9H105.723V11.16H105.735C105.791 10.72 105.971 10.38 106.275 10.14C106.579 9.9 106.983 9.78 107.487 9.78C108.151 9.78 108.679 9.984 109.071 10.392C109.463 10.8 109.659 11.356 109.659 12.06V16.5H108.579V12.18C108.579 11.708 108.451 11.348 108.195 11.1C107.947 10.844 107.607 10.716 107.175 10.716C106.727 10.716 106.371 10.852 106.107 11.124C105.851 11.396 105.723 11.788 105.723 12.3V16.5H104.643ZM115.054 16.5C114.51 16.5 114.074 16.344 113.746 16.032C113.418 15.712 113.254 15.288 113.254 14.76V10.884H111.394V9.9H113.254V8.04H114.334V9.9H116.974V10.884H114.334V14.76C114.334 14.984 114.398 15.168 114.526 15.312C114.662 15.448 114.838 15.516 115.054 15.516H116.854V16.5H115.054Z" fill="#DDDDDD"/>
<rect y="40" width="92" height="25" rx="12.5" fill="#F4322C"/>
<path d="M13.24 56.62C12.4 56.62 11.74 56.384 11.26 55.912C10.78 55.44 10.54 54.796 10.54 53.98H11.62C11.62 54.516 11.76 54.932 12.04 55.228C12.328 55.516 12.728 55.66 13.24 55.66C13.752 55.66 14.148 55.516 14.428 55.228C14.716 54.932 14.86 54.516 14.86 53.98V48.724H12.4V47.74H15.94V53.98C15.94 54.796 15.696 55.44 15.208 55.912C14.728 56.384 14.072 56.62 13.24 56.62ZM20.2193 56.62C19.5233 56.62 18.9753 56.444 18.5753 56.092C18.1753 55.732 17.9753 55.248 17.9753 54.64C17.9753 54.024 18.1753 53.54 18.5753 53.188C18.9753 52.836 19.5153 52.66 20.1953 52.66H22.2353V52C22.2353 51.6 22.1113 51.288 21.8633 51.064C21.6233 50.84 21.2873 50.728 20.8553 50.728C20.4713 50.728 20.1473 50.812 19.8833 50.98C19.6193 51.148 19.4553 51.368 19.3913 51.64H18.3113C18.3513 51.272 18.4833 50.948 18.7073 50.668C18.9393 50.388 19.2393 50.172 19.6073 50.02C19.9833 49.86 20.3993 49.78 20.8553 49.78C21.6153 49.78 22.2153 49.976 22.6553 50.368C23.0953 50.76 23.3153 51.292 23.3153 51.964V56.5H22.2593V55.24H22.2473C22.1993 55.664 21.9913 56 21.6233 56.248C21.2633 56.496 20.7953 56.62 20.2193 56.62ZM20.4833 55.768C20.9953 55.768 21.4153 55.64 21.7433 55.384C22.0713 55.128 22.2353 54.8 22.2353 54.4V53.464H20.2193C19.8593 53.464 19.5753 53.564 19.3673 53.764C19.1593 53.964 19.0553 54.236 19.0553 54.58C19.0553 54.948 19.1793 55.24 19.4273 55.456C19.6833 55.664 20.0353 55.768 20.4833 55.768ZM27.2826 56.5L24.9906 49.9H26.1066L27.6426 54.34C27.7306 54.604 27.8066 54.86 27.8706 55.108C27.9346 55.348 27.9826 55.536 28.0146 55.672C28.0546 55.536 28.1026 55.348 28.1586 55.108C28.2146 54.86 28.2866 54.604 28.3746 54.34L29.8626 49.9H30.9906L28.6986 56.5H27.2826ZM34.6099 56.62C33.9139 56.62 33.3659 56.444 32.9659 56.092C32.5659 55.732 32.3659 55.248 32.3659 54.64C32.3659 54.024 32.5659 53.54 32.9659 53.188C33.3659 52.836 33.9059 52.66 34.5859 52.66H36.6259V52C36.6259 51.6 36.5019 51.288 36.2539 51.064C36.0139 50.84 35.6779 50.728 35.2459 50.728C34.8619 50.728 34.5379 50.812 34.2739 50.98C34.0099 51.148 33.8459 51.368 33.7819 51.64H32.7019C32.7419 51.272 32.8739 50.948 33.0979 50.668C33.3299 50.388 33.6299 50.172 33.9979 50.02C34.3739 49.86 34.7899 49.78 35.2459 49.78C36.0059 49.78 36.6059 49.976 37.0459 50.368C37.4859 50.76 37.7059 51.292 37.7059 51.964V56.5H36.6499V55.24H36.6379C36.5899 55.664 36.3819 56 36.0139 56.248C35.6539 56.496 35.1859 56.62 34.6099 56.62ZM34.8739 55.768C35.3859 55.768 35.8059 55.64 36.1339 55.384C36.4619 55.128 36.6259 54.8 36.6259 54.4V53.464H34.6099C34.2499 53.464 33.9659 53.564 33.7579 53.764C33.5499 53.964 33.4459 54.236 33.4459 54.58C33.4459 54.948 33.5699 55.24 33.8179 55.456C34.0739 55.664 34.4259 55.768 34.8739 55.768ZM42.4293 56.62C41.5813 56.62 40.9053 56.4 40.4013 55.96C39.8973 55.52 39.6453 54.932 39.6453 54.196H40.7253C40.7253 54.636 40.8813 54.992 41.1933 55.264C41.5053 55.528 41.9173 55.66 42.4293 55.66C42.9253 55.66 43.3213 55.528 43.6173 55.264C43.9133 54.992 44.0613 54.636 44.0613 54.196C44.0613 53.852 43.9693 53.552 43.7853 53.296C43.6093 53.032 43.3653 52.852 43.0533 52.756L41.7573 52.348C41.1733 52.164 40.7133 51.86 40.3773 51.436C40.0493 51.012 39.8853 50.52 39.8853 49.96C39.8853 49.248 40.1173 48.68 40.5813 48.256C41.0533 47.832 41.6773 47.62 42.4533 47.62C43.2293 47.62 43.8493 47.832 44.3133 48.256C44.7773 48.68 45.0093 49.248 45.0093 49.96H43.9293C43.9293 49.536 43.7933 49.2 43.5213 48.952C43.2573 48.704 42.9013 48.58 42.4533 48.58C41.9973 48.58 41.6293 48.704 41.3493 48.952C41.0773 49.2 40.9413 49.528 40.9413 49.936C40.9413 50.256 41.0333 50.532 41.2173 50.764C41.4013 50.996 41.6533 51.164 41.9733 51.268L43.3173 51.7C43.8693 51.876 44.3053 52.188 44.6253 52.636C44.9533 53.084 45.1172 53.604 45.1172 54.196C45.1172 54.932 44.8733 55.52 44.3853 55.96C43.8973 56.4 43.2453 56.62 42.4293 56.62ZM49.6246 56.62C48.8246 56.62 48.1846 56.396 47.7046 55.948C47.2326 55.5 46.9966 54.884 46.9966 54.1V52.3C46.9966 51.516 47.2326 50.9 47.7046 50.452C48.1846 50.004 48.8246 49.78 49.6246 49.78C50.3846 49.78 50.9966 49.984 51.4606 50.392C51.9246 50.8 52.1686 51.356 52.1926 52.06H51.1126C51.0886 51.636 50.9446 51.312 50.6806 51.088C50.4246 50.856 50.0726 50.74 49.6246 50.74C49.1526 50.74 48.7766 50.876 48.4966 51.148C48.2166 51.412 48.0766 51.792 48.0766 52.288V54.1C48.0766 54.596 48.2166 54.98 48.4966 55.252C48.7766 55.524 49.1526 55.66 49.6246 55.66C50.0726 55.66 50.4246 55.544 50.6806 55.312C50.9446 55.08 51.0886 54.756 51.1126 54.34H52.1926C52.1686 55.044 51.9246 55.6 51.4606 56.008C50.9966 56.416 50.3846 56.62 49.6246 56.62ZM54.4799 56.5V49.9H55.5599V51.16H55.5719C55.6279 50.72 55.8079 50.38 56.1119 50.14C56.4159 49.9 56.8199 49.78 57.3239 49.78C58.0119 49.78 58.5599 50 58.9679 50.44C59.3759 50.872 59.5799 51.46 59.5799 52.204V52.66H58.4999V52.3C58.4999 51.796 58.3719 51.408 58.1159 51.136C57.8599 50.856 57.4879 50.716 56.9999 50.716C56.0399 50.716 55.5599 51.244 55.5599 52.3V56.5H54.4799ZM61.3872 56.5V55.516H63.7272V50.884H61.6272V49.9H64.8072V55.516H67.0272V56.5H61.3872ZM64.1472 48.712C63.8832 48.712 63.6752 48.644 63.5232 48.508C63.3712 48.372 63.2952 48.188 63.2952 47.956C63.2952 47.716 63.3712 47.528 63.5232 47.392C63.6752 47.248 63.8832 47.176 64.1472 47.176C64.4112 47.176 64.6192 47.248 64.7712 47.392C64.9232 47.528 64.9992 47.716 64.9992 47.956C64.9992 48.188 64.9232 48.372 64.7712 48.508C64.6192 48.644 64.4112 48.712 64.1472 48.712ZM68.6785 58.66V49.9H69.7585V51.16H69.7705C69.8265 50.728 70.0145 50.392 70.3345 50.152C70.6625 49.904 71.0745 49.78 71.5705 49.78C72.2345 49.78 72.7625 50 73.1545 50.44C73.5545 50.872 73.7545 51.468 73.7545 52.228V54.16C73.7545 54.92 73.5545 55.52 73.1545 55.96C72.7625 56.4 72.2345 56.62 71.5705 56.62C71.0745 56.62 70.6665 56.496 70.3465 56.248C70.0265 56 69.8345 55.664 69.7705 55.24H69.7345L69.7585 56.74V58.66H68.6785ZM71.2105 55.684C71.6665 55.684 72.0225 55.548 72.2785 55.276C72.5425 55.004 72.6745 54.612 72.6745 54.1V52.3C72.6745 51.788 72.5425 51.396 72.2785 51.124C72.0225 50.852 71.6665 50.716 71.2105 50.716C70.7705 50.716 70.4185 50.856 70.1545 51.136C69.8905 51.416 69.7585 51.804 69.7585 52.3V54.1C69.7585 54.596 69.8905 54.984 70.1545 55.264C70.4185 55.544 70.7705 55.684 71.2105 55.684ZM79.0778 56.5C78.5338 56.5 78.0978 56.344 77.7698 56.032C77.4418 55.712 77.2778 55.288 77.2778 54.76V50.884H75.4178V49.9H77.2778V48.04H78.3578V49.9H80.9978V50.884H78.3578V54.76C78.3578 54.984 78.4218 55.168 78.5498 55.312C78.6858 55.448 78.8618 55.516 79.0778 55.516H80.8778V56.5H79.0778Z" fill="#DDDDDD"/>
<rect y="120" width="85" height="25" rx="12.5" fill="#F4322C"/>
<path d="M13.648 136.62C12.848 136.62 12.216 136.396 11.752 135.948C11.288 135.5 11.056 134.884 11.056 134.1V130.14C11.056 129.356 11.288 128.74 11.752 128.292C12.216 127.844 12.848 127.62 13.648 127.62C14.432 127.62 15.056 127.848 15.52 128.304C15.984 128.752 16.216 129.364 16.216 130.14H15.136C15.136 129.644 15.004 129.264 14.74 129C14.484 128.728 14.12 128.592 13.648 128.592C13.176 128.592 12.804 128.724 12.532 128.988C12.268 129.252 12.136 129.632 12.136 130.128V134.1C12.136 134.596 12.268 134.98 12.532 135.252C12.804 135.516 13.176 135.648 13.648 135.648C14.12 135.648 14.484 135.516 14.74 135.252C15.004 134.98 15.136 134.596 15.136 134.1H16.216C16.216 134.876 15.984 135.492 15.52 135.948C15.056 136.396 14.432 136.62 13.648 136.62ZM20.8433 136.62C19.9953 136.62 19.3193 136.4 18.8153 135.96C18.3113 135.52 18.0593 134.932 18.0593 134.196H19.1393C19.1393 134.636 19.2953 134.992 19.6073 135.264C19.9193 135.528 20.3313 135.66 20.8433 135.66C21.3393 135.66 21.7353 135.528 22.0313 135.264C22.3273 134.992 22.4753 134.636 22.4753 134.196C22.4753 133.852 22.3833 133.552 22.1993 133.296C22.0233 133.032 21.7793 132.852 21.4673 132.756L20.1713 132.348C19.5873 132.164 19.1273 131.86 18.7913 131.436C18.4633 131.012 18.2993 130.52 18.2993 129.96C18.2993 129.248 18.5313 128.68 18.9953 128.256C19.4673 127.832 20.0913 127.62 20.8673 127.62C21.6433 127.62 22.2633 127.832 22.7273 128.256C23.1913 128.68 23.4233 129.248 23.4233 129.96H22.3433C22.3433 129.536 22.2073 129.2 21.9353 128.952C21.6713 128.704 21.3153 128.58 20.8673 128.58C20.4113 128.58 20.0433 128.704 19.7633 128.952C19.4913 129.2 19.3553 129.528 19.3553 129.936C19.3553 130.256 19.4473 130.532 19.6313 130.764C19.8153 130.996 20.0673 131.164 20.3873 131.268L21.7313 131.7C22.2833 131.876 22.7193 132.188 23.0393 132.636C23.3673 133.084 23.5313 133.604 23.5313 134.196C23.5313 134.932 23.2873 135.52 22.7993 135.96C22.3113 136.4 21.6593 136.62 20.8433 136.62ZM28.0386 136.62C27.1906 136.62 26.5146 136.4 26.0106 135.96C25.5066 135.52 25.2546 134.932 25.2546 134.196H26.3346C26.3346 134.636 26.4906 134.992 26.8026 135.264C27.1146 135.528 27.5266 135.66 28.0386 135.66C28.5346 135.66 28.9306 135.528 29.2266 135.264C29.5226 134.992 29.6706 134.636 29.6706 134.196C29.6706 133.852 29.5786 133.552 29.3946 133.296C29.2186 133.032 28.9746 132.852 28.6626 132.756L27.3666 132.348C26.7826 132.164 26.3226 131.86 25.9866 131.436C25.6586 131.012 25.4946 130.52 25.4946 129.96C25.4946 129.248 25.7266 128.68 26.1906 128.256C26.6626 127.832 27.2866 127.62 28.0626 127.62C28.8386 127.62 29.4586 127.832 29.9226 128.256C30.3866 128.68 30.6186 129.248 30.6186 129.96H29.5386C29.5386 129.536 29.4026 129.2 29.1306 128.952C28.8666 128.704 28.5106 128.58 28.0626 128.58C27.6066 128.58 27.2386 128.704 26.9586 128.952C26.6866 129.2 26.5506 129.528 26.5506 129.936C26.5506 130.256 26.6426 130.532 26.8266 130.764C27.0106 130.996 27.2626 131.164 27.5826 131.268L28.9266 131.7C29.4786 131.876 29.9146 132.188 30.2346 132.636C30.5626 133.084 30.7266 133.604 30.7266 134.196C30.7266 134.932 30.4826 135.52 29.9946 135.96C29.5066 136.4 28.8546 136.62 28.0386 136.62ZM35.0539 136.62C34.5259 136.62 34.0619 136.516 33.6619 136.308C33.2699 136.092 32.9659 135.796 32.7499 135.42C32.5339 135.044 32.4259 134.604 32.4259 134.1H33.5059C33.5059 134.588 33.6419 134.972 33.9139 135.252C34.1939 135.524 34.5779 135.66 35.0659 135.66C35.5619 135.66 35.9459 135.516 36.2179 135.228C36.4899 134.94 36.6259 134.564 36.6259 134.1V133.5C36.6259 133.004 36.4899 132.62 36.2179 132.348C35.9459 132.076 35.5619 131.94 35.0659 131.94H34.1179V131.004L36.2059 128.724H32.7859V127.74H37.4299V128.748L35.3779 130.992C36.0899 131.048 36.6539 131.3 37.0699 131.748C37.4939 132.196 37.7059 132.78 37.7059 133.5V134.1C37.7059 134.604 37.5939 135.044 37.3699 135.42C37.1539 135.796 36.8459 136.092 36.4459 136.308C36.0459 136.516 35.5819 136.62 35.0539 136.62ZM39.6813 137.82L43.9413 126.54H45.0813L40.8213 137.82H39.6813ZM49.6246 136.62C48.7766 136.62 48.1006 136.4 47.5966 135.96C47.0926 135.52 46.8406 134.932 46.8406 134.196H47.9206C47.9206 134.636 48.0766 134.992 48.3886 135.264C48.7006 135.528 49.1126 135.66 49.6246 135.66C50.1206 135.66 50.5166 135.528 50.8126 135.264C51.1086 134.992 51.2566 134.636 51.2566 134.196C51.2566 133.852 51.1646 133.552 50.9806 133.296C50.8046 133.032 50.5606 132.852 50.2486 132.756L48.9526 132.348C48.3686 132.164 47.9086 131.86 47.5726 131.436C47.2446 131.012 47.0806 130.52 47.0806 129.96C47.0806 129.248 47.3126 128.68 47.7766 128.256C48.2486 127.832 48.8726 127.62 49.6486 127.62C50.4246 127.62 51.0446 127.832 51.5086 128.256C51.9726 128.68 52.2046 129.248 52.2046 129.96H51.1246C51.1246 129.536 50.9886 129.2 50.7166 128.952C50.4526 128.704 50.0966 128.58 49.6486 128.58C49.1926 128.58 48.8246 128.704 48.5446 128.952C48.2726 129.2 48.1366 129.528 48.1366 129.936C48.1366 130.256 48.2286 130.532 48.4126 130.764C48.5966 130.996 48.8486 131.164 49.1686 131.268L50.5126 131.7C51.0646 131.876 51.5006 132.188 51.8206 132.636C52.1486 133.084 52.3126 133.604 52.3126 134.196C52.3126 134.932 52.0686 135.52 51.5806 135.96C51.0926 136.4 50.4406 136.62 49.6246 136.62ZM53.7719 136.5L56.0519 127.74H57.5039L59.7719 136.5H58.6799L58.1039 134.172H55.4519L54.8759 136.5H53.7719ZM55.6679 133.26H57.8759L57.2039 130.56C57.0759 130.048 56.9759 129.62 56.9039 129.276C56.8319 128.932 56.7879 128.708 56.7719 128.604C56.7559 128.708 56.7119 128.932 56.6399 129.276C56.5679 129.62 56.4679 130.044 56.3399 130.548L55.6679 133.26ZM64.0152 136.62C63.1672 136.62 62.4912 136.4 61.9872 135.96C61.4832 135.52 61.2312 134.932 61.2312 134.196H62.3112C62.3112 134.636 62.4672 134.992 62.7792 135.264C63.0912 135.528 63.5032 135.66 64.0152 135.66C64.5112 135.66 64.9072 135.528 65.2032 135.264C65.4992 134.992 65.6472 134.636 65.6472 134.196C65.6472 133.852 65.5552 133.552 65.3712 133.296C65.1952 133.032 64.9512 132.852 64.6392 132.756L63.3432 132.348C62.7592 132.164 62.2992 131.86 61.9632 131.436C61.6352 131.012 61.4712 130.52 61.4712 129.96C61.4712 129.248 61.7032 128.68 62.1672 128.256C62.6392 127.832 63.2632 127.62 64.0392 127.62C64.8152 127.62 65.4352 127.832 65.8992 128.256C66.3632 128.68 66.5952 129.248 66.5952 129.96H65.5152C65.5152 129.536 65.3792 129.2 65.1072 128.952C64.8432 128.704 64.4872 128.58 64.0392 128.58C63.5832 128.58 63.2152 128.704 62.9352 128.952C62.6632 129.2 62.5272 129.528 62.5272 129.936C62.5272 130.256 62.6192 130.532 62.8032 130.764C62.9872 130.996 63.2392 131.164 63.5592 131.268L64.9032 131.7C65.4552 131.876 65.8912 132.188 66.2112 132.636C66.5392 133.084 66.7032 133.604 66.7032 134.196C66.7032 134.932 66.4592 135.52 65.9712 135.96C65.4832 136.4 64.8312 136.62 64.0152 136.62ZM71.2105 136.62C70.3625 136.62 69.6865 136.4 69.1825 135.96C68.6785 135.52 68.4265 134.932 68.4265 134.196H69.5065C69.5065 134.636 69.6625 134.992 69.9745 135.264C70.2865 135.528 70.6985 135.66 71.2105 135.66C71.7065 135.66 72.1025 135.528 72.3985 135.264C72.6945 134.992 72.8425 134.636 72.8425 134.196C72.8425 133.852 72.7505 133.552 72.5665 133.296C72.3905 133.032 72.1465 132.852 71.8345 132.756L70.5385 132.348C69.9545 132.164 69.4945 131.86 69.1585 131.436C68.8305 131.012 68.6665 130.52 68.6665 129.96C68.6665 129.248 68.8985 128.68 69.3625 128.256C69.8345 127.832 70.4585 127.62 71.2345 127.62C72.0105 127.62 72.6305 127.832 73.0945 128.256C73.5585 128.68 73.7905 129.248 73.7905 129.96H72.7105C72.7105 129.536 72.5745 129.2 72.3025 128.952C72.0385 128.704 71.6825 128.58 71.2345 128.58C70.7785 128.58 70.4105 128.704 70.1305 128.952C69.8585 129.2 69.7225 129.528 69.7225 129.936C69.7225 130.256 69.8145 130.532 69.9985 130.764C70.1825 130.996 70.4345 131.164 70.7545 131.268L72.0985 131.7C72.6505 131.876 73.0865 132.188 73.4065 132.636C73.7345 133.084 73.8985 133.604 73.8985 134.196C73.8985 134.932 73.6545 135.52 73.1665 135.96C72.6785 136.4 72.0265 136.62 71.2105 136.62Z" fill="#DDDDDD"/>
<rect y="80" width="92" height="25" rx="12.5" fill="#F4322C"/>
<path d="M11.104 96.5V87.74H13.924C14.74 87.74 15.388 87.976 15.868 88.448C16.356 88.912 16.6 89.536 16.6 90.32C16.6 91.104 16.356 91.732 15.868 92.204C15.388 92.668 14.74 92.9 13.924 92.9H12.184V96.5H11.104ZM12.184 91.928H13.924C14.396 91.928 14.772 91.784 15.052 91.496C15.34 91.2 15.484 90.808 15.484 90.32C15.484 89.824 15.34 89.432 15.052 89.144C14.772 88.856 14.396 88.712 13.924 88.712H12.184V91.928ZM18.3113 96.5V87.74H19.3913V91.484H22.1993V87.74H23.2793V96.5H22.1993V92.468H19.3913V96.5H18.3113ZM25.4946 96.5V87.74H28.3146C29.1306 87.74 29.7786 87.976 30.2586 88.448C30.7466 88.912 30.9906 89.536 30.9906 90.32C30.9906 91.104 30.7466 91.732 30.2586 92.204C29.7786 92.668 29.1306 92.9 28.3146 92.9H26.5746V96.5H25.4946ZM26.5746 91.928H28.3146C28.7866 91.928 29.1626 91.784 29.4426 91.496C29.7306 91.2 29.8746 90.808 29.8746 90.32C29.8746 89.824 29.7306 89.432 29.4426 89.144C29.1626 88.856 28.7866 88.712 28.3146 88.712H26.5746V91.928ZM33.5659 98.42L34.5259 94.688H36.0859L34.5259 98.42H33.5659ZM46.8886 96.5V87.74H48.3046L49.2406 90.572C49.3286 90.828 49.4006 91.084 49.4566 91.34C49.5206 91.588 49.5686 91.78 49.6006 91.916C49.6326 91.78 49.6806 91.588 49.7446 91.34C49.8086 91.084 49.8806 90.824 49.9606 90.56L50.8486 87.74H52.2646V96.5H51.2086V92.36C51.2086 91.648 51.2406 90.948 51.3046 90.26C51.3686 89.572 51.4406 88.912 51.5206 88.28L50.0926 92.66H49.0606L47.6206 88.28C47.7086 88.888 47.7846 89.524 47.8486 90.188C47.9126 90.852 47.9446 91.576 47.9446 92.36V96.5H46.8886ZM55.3199 98.66L56.2919 96.092L53.7719 89.9H54.9479L56.5559 93.98C56.6119 94.116 56.6639 94.28 56.7119 94.472C56.7679 94.656 56.8119 94.812 56.8439 94.94C56.8759 94.812 56.9199 94.656 56.9759 94.472C57.0319 94.28 57.0879 94.116 57.1439 93.98L58.6439 89.9H59.7719L56.4479 98.66H55.3199ZM64.0152 96.62C63.1672 96.62 62.4912 96.4 61.9872 95.96C61.4832 95.52 61.2312 94.932 61.2312 94.196H62.3112C62.3112 94.636 62.4672 94.992 62.7792 95.264C63.0912 95.528 63.5032 95.66 64.0152 95.66C64.5112 95.66 64.9072 95.528 65.2032 95.264C65.4992 94.992 65.6472 94.636 65.6472 94.196C65.6472 93.852 65.5552 93.552 65.3712 93.296C65.1952 93.032 64.9512 92.852 64.6392 92.756L63.3432 92.348C62.7592 92.164 62.2992 91.86 61.9632 91.436C61.6352 91.012 61.4712 90.52 61.4712 89.96C61.4712 89.248 61.7032 88.68 62.1672 88.256C62.6392 87.832 63.2632 87.62 64.0392 87.62C64.8152 87.62 65.4352 87.832 65.8992 88.256C66.3632 88.68 66.5952 89.248 66.5952 89.96H65.5152C65.5152 89.536 65.3792 89.2 65.1072 88.952C64.8432 88.704 64.4872 88.58 64.0392 88.58C63.5832 88.58 63.2152 88.704 62.9352 88.952C62.6632 89.2 62.5272 89.528 62.5272 89.936C62.5272 90.256 62.6192 90.532 62.8032 90.764C62.9872 90.996 63.2392 91.164 63.5592 91.268L64.9032 91.7C65.4552 91.876 65.8912 92.188 66.2112 92.636C66.5392 93.084 66.7032 93.604 66.7032 94.196C66.7032 94.932 66.4592 95.52 65.9712 95.96C65.4832 96.4 64.8312 96.62 64.0152 96.62ZM72.5785 98.66V96.74L72.6025 95.24H72.5665C72.5105 95.664 72.3225 96 72.0025 96.248C71.6825 96.496 71.2745 96.62 70.7785 96.62C70.1145 96.62 69.5865 96.4 69.1945 95.96C68.8105 95.52 68.6185 94.92 68.6185 94.16V92.228C68.6185 91.468 68.8145 90.872 69.2065 90.44C69.5985 90 70.1225 89.78 70.7785 89.78C71.2745 89.78 71.6825 89.904 72.0025 90.152C72.3225 90.392 72.5105 90.728 72.5665 91.16H72.5785V89.9H73.6585V98.66H72.5785ZM71.1385 95.684C71.5865 95.684 71.9385 95.544 72.1945 95.264C72.4505 94.984 72.5785 94.596 72.5785 94.1V92.3C72.5785 91.804 72.4505 91.416 72.1945 91.136C71.9385 90.856 71.5865 90.716 71.1385 90.716C70.6825 90.716 70.3265 90.852 70.0705 91.124C69.8225 91.396 69.6985 91.788 69.6985 92.3V94.1C69.6985 94.612 69.8225 95.004 70.0705 95.276C70.3265 95.548 70.6825 95.684 71.1385 95.684ZM79.3178 96.5C78.7338 96.5 78.2658 96.332 77.9138 95.996C77.5698 95.652 77.3978 95.2 77.3978 94.64V88.724H75.1178V87.74H78.4778V94.64C78.4778 94.912 78.5538 95.128 78.7058 95.288C78.8578 95.44 79.0618 95.516 79.3178 95.516H81.3578V96.5H79.3178Z" fill="#DDDDDD"/>
<rect y="160" width="56" height="25" rx="12.5" fill="#F4322C"/>
<path d="M11.116 176.5V167.74H12.196V171.484H15.004V167.74H16.084V176.5H15.004V172.468H12.196V176.5H11.116ZM20.2553 176.5V168.724H17.8553V167.74H23.7353V168.724H21.3353V176.5H20.2553ZM25.3026 176.5V167.74H26.7186L27.6546 170.572C27.7426 170.828 27.8146 171.084 27.8706 171.34C27.9346 171.588 27.9826 171.78 28.0146 171.916C28.0466 171.78 28.0946 171.588 28.1586 171.34C28.2226 171.084 28.2946 170.824 28.3746 170.56L29.2626 167.74H30.6786V176.5H29.6226V172.36C29.6226 171.648 29.6546 170.948 29.7186 170.26C29.7826 169.572 29.8546 168.912 29.9346 168.28L28.5066 172.66H27.4746L26.0346 168.28C26.1226 168.888 26.1986 169.524 26.2626 170.188C26.3266 170.852 26.3586 171.576 26.3586 172.36V176.5H25.3026ZM33.1459 176.5V167.74H34.2259V175.516H38.1859V176.5H33.1459ZM42.3573 176.62C41.6453 176.62 41.0613 176.436 40.6053 176.068C40.1493 175.7 39.8813 175.204 39.8013 174.58H40.8813C40.9213 174.924 41.0693 175.192 41.3253 175.384C41.5813 175.568 41.9293 175.66 42.3693 175.66C42.8733 175.66 43.2493 175.524 43.4973 175.252C43.7533 174.98 43.8813 174.596 43.8813 174.1V173.248C43.8813 172.752 43.7533 172.368 43.4973 172.096C43.2493 171.824 42.8773 171.688 42.3813 171.688C42.0693 171.688 41.7973 171.772 41.5653 171.94C41.3333 172.1 41.1653 172.316 41.0613 172.588H39.9813L40.0413 167.74H44.6493V168.724H41.0853L41.0493 171.64H41.0973C41.1693 171.36 41.3453 171.14 41.6253 170.98C41.9133 170.82 42.2733 170.74 42.7053 170.74C43.4173 170.732 43.9693 170.952 44.3613 171.4C44.7613 171.84 44.9613 172.456 44.9613 173.248V174.1C44.9613 174.876 44.7333 175.492 44.2773 175.948C43.8213 176.396 43.1813 176.62 42.3573 176.62Z" fill="#DDDDDD"/>
</svg>
