<svg width="275" height="275" viewBox="0 0 275 275" fill="none" xmlns="http://www.w3.org/2000/svg">
<path d="M30.0329 275C20.3838 275 12.9057 272.848 7.59867 268.543C2.53288 263.985 -5.62551e-06 257.654 -5.17926e-06 249.551C-4.71907e-06 241.195 2.6535 234.738 7.96052 230.18C13.5088 225.368 21.1075 222.963 30.7566 222.963C46.4364 222.963 60.5482 219.164 73.0921 211.568C85.8772 203.971 95.7675 193.715 102.763 180.801C110 167.887 113.618 153.58 113.618 137.88C113.618 121.674 110 106.987 102.763 93.819C95.5263 80.6515 85.7566 70.3959 73.4539 63.0525C61.1513 55.709 47.5219 52.0373 32.5658 52.0373C22.6754 52.0373 14.8355 49.7583 9.04605 45.2002C3.4978 40.389 0.723674 33.6786 0.723675 25.069C0.723675 17.2191 3.25659 11.1418 8.32238 6.83701C13.6294 2.27899 20.8662 -1.12233e-05 30.0329 -1.07079e-05C54.8794 -9.31075e-06 77.4342 6.20395 97.6974 18.6119C117.961 30.7666 133.882 47.4793 145.461 68.75C157.281 89.7675 163.191 112.811 163.191 137.88C163.191 163.202 157.281 186.372 145.461 207.39C133.882 228.154 117.961 244.613 97.6974 256.768C77.4342 268.923 54.8794 275 30.0329 275ZM141.842 249.171C141.842 242.587 144.134 237.017 148.717 232.459C153.3 227.647 158.728 225.242 165 225.242L221.809 225.242L221.809 165.608C221.809 156.998 224.342 149.908 229.408 144.337C234.474 138.766 240.866 135.981 248.586 135.981C256.305 136.234 262.577 139.146 267.401 144.717C272.467 150.035 275 156.872 275 165.228L275 273.861L165 273.86C158.728 273.86 153.3 271.455 148.717 266.644C144.134 261.579 141.842 255.755 141.842 249.171Z" fill="#F4322C"/>
</svg>
