<svg width="164" height="385" viewBox="0 0 164 385" fill="none" xmlns="http://www.w3.org/2000/svg">
<rect x="100" width="64" height="25" rx="12.5" fill="#F4322C"/>
<path d="M111.104 16.5V7.74H113.372C113.94 7.74 114.428 7.848 114.836 8.064C115.252 8.28 115.572 8.584 115.796 8.976C116.028 9.368 116.144 9.832 116.144 10.368V13.86C116.144 14.396 116.028 14.864 115.796 15.264C115.572 15.656 115.252 15.96 114.836 16.176C114.428 16.392 113.94 16.5 113.372 16.5H111.104ZM112.184 15.54H113.372C113.9 15.54 114.312 15.392 114.608 15.096C114.912 14.8 115.064 14.388 115.064 13.86V10.368C115.064 9.848 114.912 9.44 114.608 9.144C114.312 8.848 113.9 8.7 113.372 8.7H112.184V15.54ZM120.795 16.596C119.995 16.596 119.363 16.372 118.899 15.924C118.443 15.468 118.215 14.852 118.215 14.076V12.324C118.215 11.54 118.443 10.924 118.899 10.476C119.363 10.028 119.995 9.804 120.795 9.804C121.595 9.804 122.223 10.028 122.679 10.476C123.143 10.924 123.375 11.536 123.375 12.312V14.076C123.375 14.852 123.143 15.468 122.679 15.924C122.223 16.372 121.595 16.596 120.795 16.596ZM120.795 15.636C121.267 15.636 121.635 15.504 121.899 15.24C122.163 14.976 122.295 14.588 122.295 14.076V12.324C122.295 11.812 122.163 11.424 121.899 11.16C121.635 10.896 121.267 10.764 120.795 10.764C120.331 10.764 119.963 10.896 119.691 11.16C119.427 11.424 119.295 11.812 119.295 12.324V14.076C119.295 14.588 119.427 14.976 119.691 15.24C119.963 15.504 120.331 15.636 120.795 15.636ZM125.531 16.5V7.74H126.611V12.624H127.883L129.803 9.9H131.039L128.819 13.044L131.075 16.5H129.815L127.895 13.56H126.611V16.5H125.531ZM132.726 16.5V7.74H133.806V12.624H135.078L136.998 9.9H138.234L136.014 13.044L138.27 16.5H137.01L135.09 13.56H133.806V16.5H132.726ZM142.381 16.62C141.861 16.62 141.405 16.516 141.013 16.308C140.629 16.1 140.329 15.808 140.113 15.432C139.905 15.048 139.801 14.604 139.801 14.1V12.3C139.801 11.788 139.905 11.344 140.113 10.968C140.329 10.592 140.629 10.3 141.013 10.092C141.405 9.884 141.861 9.78 142.381 9.78C142.901 9.78 143.353 9.884 143.737 10.092C144.129 10.3 144.429 10.592 144.637 10.968C144.853 11.344 144.961 11.788 144.961 12.3V13.464H140.857V14.1C140.857 14.62 140.989 15.02 141.253 15.3C141.517 15.572 141.893 15.708 142.381 15.708C142.797 15.708 143.133 15.636 143.389 15.492C143.645 15.34 143.801 15.116 143.857 14.82H144.937C144.865 15.372 144.593 15.812 144.121 16.14C143.657 16.46 143.077 16.62 142.381 16.62ZM140.857 12.648H143.905V12.3C143.905 11.78 143.773 11.38 143.509 11.1C143.253 10.82 142.877 10.68 142.381 10.68C141.893 10.68 141.517 10.82 141.253 11.1C140.989 11.38 140.857 11.78 140.857 12.3V12.648ZM147.285 16.5V9.9H148.365V11.16H148.377C148.433 10.72 148.613 10.38 148.917 10.14C149.221 9.9 149.625 9.78 150.129 9.78C150.817 9.78 151.365 10 151.773 10.44C152.181 10.872 152.385 11.46 152.385 12.204V12.66H151.305V12.3C151.305 11.796 151.177 11.408 150.921 11.136C150.665 10.856 150.293 10.716 149.805 10.716C148.845 10.716 148.365 11.244 148.365 12.3V16.5H147.285Z" fill="#DDDDDD"/>
<rect x="93" y="80" width="71" height="25" rx="12.5" fill="#F4322C"/>
<path d="M106.648 96.62C105.8 96.62 105.124 96.4 104.62 95.96C104.116 95.52 103.864 94.932 103.864 94.196H104.944C104.944 94.636 105.1 94.992 105.412 95.264C105.724 95.528 106.136 95.66 106.648 95.66C107.144 95.66 107.54 95.528 107.836 95.264C108.132 94.992 108.28 94.636 108.28 94.196C108.28 93.852 108.188 93.552 108.004 93.296C107.828 93.032 107.584 92.852 107.272 92.756L105.976 92.348C105.392 92.164 104.932 91.86 104.596 91.436C104.268 91.012 104.104 90.52 104.104 89.96C104.104 89.248 104.336 88.68 104.8 88.256C105.272 87.832 105.896 87.62 106.672 87.62C107.448 87.62 108.068 87.832 108.532 88.256C108.996 88.68 109.228 89.248 109.228 89.96H108.148C108.148 89.536 108.012 89.2 107.74 88.952C107.476 88.704 107.12 88.58 106.672 88.58C106.216 88.58 105.848 88.704 105.568 88.952C105.296 89.2 105.16 89.528 105.16 89.936C105.16 90.256 105.252 90.532 105.436 90.764C105.62 90.996 105.872 91.164 106.192 91.268L107.536 91.7C108.088 91.876 108.524 92.188 108.844 92.636C109.172 93.084 109.336 93.604 109.336 94.196C109.336 94.932 109.092 95.52 108.604 95.96C108.116 96.4 107.464 96.62 106.648 96.62ZM111.395 96.5V87.74H116.435V88.724H112.463V91.436H116.015V92.396H112.463V95.516H116.435V96.5H111.395ZM117.991 96.5L120.271 87.74H121.723L123.991 96.5H122.899L122.323 94.172H119.671L119.095 96.5H117.991ZM119.887 93.26H122.095L121.423 90.56C121.295 90.048 121.195 89.62 121.123 89.276C121.051 88.932 121.007 88.708 120.991 88.604C120.975 88.708 120.931 88.932 120.859 89.276C120.787 89.62 120.687 90.044 120.559 90.548L119.887 93.26ZM125.486 97.82L129.746 86.54H130.886L126.626 97.82H125.486ZM135.429 96.62C134.581 96.62 133.905 96.4 133.401 95.96C132.897 95.52 132.645 94.932 132.645 94.196H133.725C133.725 94.636 133.881 94.992 134.193 95.264C134.505 95.528 134.917 95.66 135.429 95.66C135.925 95.66 136.321 95.528 136.617 95.264C136.913 94.992 137.061 94.636 137.061 94.196C137.061 93.852 136.969 93.552 136.785 93.296C136.609 93.032 136.365 92.852 136.053 92.756L134.757 92.348C134.173 92.164 133.713 91.86 133.377 91.436C133.049 91.012 132.885 90.52 132.885 89.96C132.885 89.248 133.117 88.68 133.581 88.256C134.053 87.832 134.677 87.62 135.453 87.62C136.229 87.62 136.849 87.832 137.313 88.256C137.777 88.68 138.009 89.248 138.009 89.96H136.929C136.929 89.536 136.793 89.2 136.521 88.952C136.257 88.704 135.901 88.58 135.453 88.58C134.997 88.58 134.629 88.704 134.349 88.952C134.077 89.2 133.941 89.528 133.941 89.936C133.941 90.256 134.033 90.532 134.217 90.764C134.401 90.996 134.653 91.164 134.973 91.268L136.317 91.7C136.869 91.876 137.305 92.188 137.625 92.636C137.953 93.084 138.117 93.604 138.117 94.196C138.117 94.932 137.873 95.52 137.385 95.96C136.897 96.4 136.245 96.62 135.429 96.62ZM140.177 96.5V87.74H145.217V88.724H141.245V91.436H144.797V92.396H141.245V95.516H145.217V96.5H140.177ZM149.772 96.62C148.988 96.62 148.368 96.396 147.912 95.948C147.456 95.5 147.228 94.884 147.228 94.1V90.14C147.228 89.356 147.456 88.74 147.912 88.292C148.368 87.844 148.988 87.62 149.772 87.62C150.556 87.62 151.176 87.844 151.632 88.292C152.088 88.732 152.316 89.344 152.316 90.128V94.1C152.316 94.884 152.088 95.5 151.632 95.948C151.176 96.396 150.556 96.62 149.772 96.62ZM149.772 95.648C150.244 95.648 150.604 95.516 150.852 95.252C151.108 94.98 151.236 94.596 151.236 94.1V90.14C151.236 89.644 151.108 89.264 150.852 89C150.604 88.728 150.244 88.592 149.772 88.592C149.308 88.592 148.948 88.728 148.692 89C148.436 89.264 148.308 89.644 148.308 90.14V94.1C148.308 94.596 148.436 94.98 148.692 95.252C148.948 95.516 149.308 95.648 149.772 95.648Z" fill="#DDDDDD"/>
<rect y="160" width="164" height="25" rx="12.5" fill="#F4322C"/>
<path d="M11.104 176.5V167.74H13.924C14.74 167.74 15.388 167.976 15.868 168.448C16.356 168.912 16.6 169.536 16.6 170.32C16.6 171.104 16.356 171.732 15.868 172.204C15.388 172.668 14.74 172.9 13.924 172.9H12.184V176.5H11.104ZM12.184 171.928H13.924C14.396 171.928 14.772 171.784 15.052 171.496C15.34 171.2 15.484 170.808 15.484 170.32C15.484 169.824 15.34 169.432 15.052 169.144C14.772 168.856 14.396 168.712 13.924 168.712H12.184V171.928ZM20.7953 176.62C20.2753 176.62 19.8193 176.516 19.4273 176.308C19.0433 176.1 18.7433 175.808 18.5273 175.432C18.3193 175.048 18.2153 174.604 18.2153 174.1V172.3C18.2153 171.788 18.3193 171.344 18.5273 170.968C18.7433 170.592 19.0433 170.3 19.4273 170.092C19.8193 169.884 20.2753 169.78 20.7953 169.78C21.3153 169.78 21.7673 169.884 22.1513 170.092C22.5433 170.3 22.8433 170.592 23.0513 170.968C23.2673 171.344 23.3753 171.788 23.3753 172.3V173.464H19.2713V174.1C19.2713 174.62 19.4033 175.02 19.6673 175.3C19.9313 175.572 20.3073 175.708 20.7953 175.708C21.2113 175.708 21.5473 175.636 21.8033 175.492C22.0593 175.34 22.2153 175.116 22.2713 174.82H23.3513C23.2793 175.372 23.0073 175.812 22.5353 176.14C22.0713 176.46 21.4913 176.62 20.7953 176.62ZM19.2713 172.648H22.3193V172.3C22.3193 171.78 22.1873 171.38 21.9233 171.1C21.6673 170.82 21.2913 170.68 20.7953 170.68C20.3073 170.68 19.9313 170.82 19.6673 171.1C19.4033 171.38 19.2713 171.78 19.2713 172.3V172.648ZM25.6986 176.5V169.9H26.7786V171.16H26.7906C26.8466 170.72 27.0266 170.38 27.3306 170.14C27.6346 169.9 28.0386 169.78 28.5426 169.78C29.2306 169.78 29.7786 170 30.1866 170.44C30.5946 170.872 30.7986 171.46 30.7986 172.204V172.66H29.7186V172.3C29.7186 171.796 29.5906 171.408 29.3346 171.136C29.0786 170.856 28.7066 170.716 28.2186 170.716C27.2586 170.716 26.7786 171.244 26.7786 172.3V176.5H25.6986ZM34.2259 176.5V171.544H32.3059V170.56H34.2259V169.42C34.2259 168.9 34.3899 168.492 34.7179 168.196C35.0459 167.892 35.4979 167.74 36.0739 167.74H38.0059V168.724H36.0739C35.5619 168.724 35.3059 168.956 35.3059 169.42V170.56H38.0059V171.544H35.3059V176.5H34.2259ZM42.3813 176.596C41.5813 176.596 40.9493 176.372 40.4853 175.924C40.0293 175.468 39.8013 174.852 39.8013 174.076V172.324C39.8013 171.54 40.0293 170.924 40.4853 170.476C40.9493 170.028 41.5813 169.804 42.3813 169.804C43.1813 169.804 43.8093 170.028 44.2653 170.476C44.7293 170.924 44.9613 171.536 44.9613 172.312V174.076C44.9613 174.852 44.7293 175.468 44.2653 175.924C43.8093 176.372 43.1813 176.596 42.3813 176.596ZM42.3813 175.636C42.8533 175.636 43.2213 175.504 43.4853 175.24C43.7493 174.976 43.8813 174.588 43.8813 174.076V172.324C43.8813 171.812 43.7493 171.424 43.4853 171.16C43.2213 170.896 42.8533 170.764 42.3813 170.764C41.9173 170.764 41.5493 170.896 41.2773 171.16C41.0133 171.424 40.8813 171.812 40.8813 172.324V174.076C40.8813 174.588 41.0133 174.976 41.2773 175.24C41.5493 175.504 41.9173 175.636 42.3813 175.636ZM47.2846 176.5V169.9H48.3646V171.16H48.3766C48.4326 170.72 48.6126 170.38 48.9166 170.14C49.2206 169.9 49.6246 169.78 50.1286 169.78C50.8166 169.78 51.3646 170 51.7726 170.44C52.1806 170.872 52.3846 171.46 52.3846 172.204V172.66H51.3046V172.3C51.3046 171.796 51.1766 171.408 50.9206 171.136C50.6646 170.856 50.2926 170.716 49.8046 170.716C48.8446 170.716 48.3646 171.244 48.3646 172.3V176.5H47.2846ZM53.8919 176.5V169.9H54.8399V170.692H54.9119C54.9679 170.42 55.0919 170.2 55.2839 170.032C55.4839 169.864 55.7279 169.78 56.0159 169.78C56.2799 169.78 56.5079 169.864 56.6999 170.032C56.8919 170.192 57.0279 170.412 57.1079 170.692H57.1799C57.2359 170.42 57.3639 170.2 57.5639 170.032C57.7639 169.864 58.0119 169.78 58.3079 169.78C58.7079 169.78 59.0319 169.94 59.2799 170.26C59.5279 170.572 59.6519 170.98 59.6519 171.484V176.5H58.6559V171.472C58.6559 171.192 58.5919 170.98 58.4639 170.836C58.3439 170.684 58.1679 170.608 57.9359 170.608C57.7039 170.608 57.5239 170.684 57.3959 170.836C57.2679 170.98 57.2039 171.188 57.2039 171.46V176.5H56.3399V171.472C56.3399 171.192 56.2719 170.98 56.1359 170.836C56.0079 170.684 55.8279 170.608 55.5959 170.608C55.3719 170.608 55.1959 170.684 55.0679 170.836C54.9479 170.98 54.8879 171.188 54.8879 171.46V176.5H53.8919ZM63.3912 176.62C62.6952 176.62 62.1472 176.444 61.7472 176.092C61.3472 175.732 61.1472 175.248 61.1472 174.64C61.1472 174.024 61.3472 173.54 61.7472 173.188C62.1472 172.836 62.6872 172.66 63.3672 172.66H65.4072V172C65.4072 171.6 65.2832 171.288 65.0352 171.064C64.7952 170.84 64.4592 170.728 64.0272 170.728C63.6432 170.728 63.3192 170.812 63.0552 170.98C62.7912 171.148 62.6272 171.368 62.5632 171.64H61.4832C61.5232 171.272 61.6552 170.948 61.8792 170.668C62.1112 170.388 62.4112 170.172 62.7792 170.02C63.1552 169.86 63.5712 169.78 64.0272 169.78C64.7872 169.78 65.3872 169.976 65.8272 170.368C66.2672 170.76 66.4872 171.292 66.4872 171.964V176.5H65.4312V175.24H65.4192C65.3712 175.664 65.1632 176 64.7952 176.248C64.4352 176.496 63.9672 176.62 63.3912 176.62ZM63.6552 175.768C64.1672 175.768 64.5872 175.64 64.9152 175.384C65.2432 175.128 65.4072 174.8 65.4072 174.4V173.464H63.3912C63.0312 173.464 62.7472 173.564 62.5392 173.764C62.3312 173.964 62.2272 174.236 62.2272 174.58C62.2272 174.948 62.3512 175.24 62.5992 175.456C62.8552 175.664 63.2072 175.768 63.6552 175.768ZM68.6665 176.5V169.9H69.7465V171.16H69.7585C69.8145 170.72 69.9945 170.38 70.2985 170.14C70.6025 169.9 71.0065 169.78 71.5105 169.78C72.1745 169.78 72.7025 169.984 73.0945 170.392C73.4865 170.8 73.6825 171.356 73.6825 172.06V176.5H72.6025V172.18C72.6025 171.708 72.4745 171.348 72.2185 171.1C71.9705 170.844 71.6305 170.716 71.1985 170.716C70.7505 170.716 70.3945 170.852 70.1305 171.124C69.8745 171.396 69.7465 171.788 69.7465 172.3V176.5H68.6665ZM78.4058 176.62C77.6058 176.62 76.9658 176.396 76.4858 175.948C76.0138 175.5 75.7778 174.884 75.7778 174.1V172.3C75.7778 171.516 76.0138 170.9 76.4858 170.452C76.9658 170.004 77.6058 169.78 78.4058 169.78C79.1658 169.78 79.7778 169.984 80.2418 170.392C80.7058 170.8 80.9498 171.356 80.9738 172.06H79.8938C79.8698 171.636 79.7258 171.312 79.4618 171.088C79.2058 170.856 78.8538 170.74 78.4058 170.74C77.9338 170.74 77.5578 170.876 77.2778 171.148C76.9978 171.412 76.8578 171.792 76.8578 172.288V174.1C76.8578 174.596 76.9978 174.98 77.2778 175.252C77.5578 175.524 77.9338 175.66 78.4058 175.66C78.8538 175.66 79.2058 175.544 79.4618 175.312C79.7258 175.08 79.8698 174.756 79.8938 174.34H80.9738C80.9498 175.044 80.7058 175.6 80.2418 176.008C79.7778 176.416 79.1658 176.62 78.4058 176.62ZM85.5531 176.62C85.0331 176.62 84.5771 176.516 84.1851 176.308C83.8011 176.1 83.5011 175.808 83.2851 175.432C83.0771 175.048 82.9731 174.604 82.9731 174.1V172.3C82.9731 171.788 83.0771 171.344 83.2851 170.968C83.5011 170.592 83.8011 170.3 84.1851 170.092C84.5771 169.884 85.0331 169.78 85.5531 169.78C86.0731 169.78 86.5251 169.884 86.9091 170.092C87.3011 170.3 87.6011 170.592 87.8091 170.968C88.0251 171.344 88.1331 171.788 88.1331 172.3V173.464H84.0291V174.1C84.0291 174.62 84.1611 175.02 84.4251 175.3C84.6891 175.572 85.0651 175.708 85.5531 175.708C85.9691 175.708 86.3051 175.636 86.5611 175.492C86.8171 175.34 86.9731 175.116 87.0291 174.82H88.1091C88.0371 175.372 87.7651 175.812 87.2931 176.14C86.8291 176.46 86.2491 176.62 85.5531 176.62ZM84.0291 172.648H87.0771V172.3C87.0771 171.78 86.9451 171.38 86.6811 171.1C86.4251 170.82 86.0491 170.68 85.5531 170.68C85.0651 170.68 84.6891 170.82 84.4251 171.1C84.1611 171.38 84.0291 171.78 84.0291 172.3V172.648ZM97.5438 176.5V167.74H102.584V168.724H98.6118V171.436H102.164V172.396H98.6118V175.516H102.584V176.5H97.5438ZM104.643 176.5V169.9H105.723V171.16H105.735C105.791 170.72 105.971 170.38 106.275 170.14C106.579 169.9 106.983 169.78 107.487 169.78C108.151 169.78 108.679 169.984 109.071 170.392C109.463 170.8 109.659 171.356 109.659 172.06V176.5H108.579V172.18C108.579 171.708 108.451 171.348 108.195 171.1C107.947 170.844 107.607 170.716 107.175 170.716C106.727 170.716 106.371 170.852 106.107 171.124C105.851 171.396 105.723 171.788 105.723 172.3V176.5H104.643ZM112.666 178.66V177.676H114.766C115.414 177.676 115.738 177.364 115.738 176.74V175.9L115.762 174.7H115.738C115.698 175.124 115.518 175.46 115.198 175.708C114.886 175.956 114.482 176.08 113.986 176.08C113.306 176.08 112.77 175.86 112.378 175.42C111.986 174.972 111.79 174.372 111.79 173.62V172.228C111.79 171.476 111.986 170.88 112.378 170.44C112.77 170 113.306 169.78 113.986 169.78C114.482 169.78 114.886 169.904 115.198 170.152C115.518 170.4 115.698 170.736 115.738 171.16H115.75V169.9H116.818V176.74C116.818 177.332 116.634 177.8 116.266 178.144C115.906 178.488 115.402 178.66 114.754 178.66H112.666ZM114.31 175.144C114.758 175.144 115.11 175.004 115.366 174.724C115.622 174.444 115.75 174.056 115.75 173.56V172.3C115.75 171.804 115.622 171.416 115.366 171.136C115.11 170.856 114.758 170.716 114.31 170.716C113.854 170.716 113.498 170.852 113.242 171.124C112.994 171.396 112.87 171.788 112.87 172.3V173.56C112.87 174.072 112.994 174.464 113.242 174.736C113.498 175.008 113.854 175.144 114.31 175.144ZM118.95 176.5V175.516H121.29V170.884H119.19V169.9H122.37V175.516H124.59V176.5H118.95ZM121.71 168.712C121.446 168.712 121.238 168.644 121.086 168.508C120.934 168.372 120.858 168.188 120.858 167.956C120.858 167.716 120.934 167.528 121.086 167.392C121.238 167.248 121.446 167.176 121.71 167.176C121.974 167.176 122.182 167.248 122.334 167.392C122.486 167.528 122.562 167.716 122.562 167.956C122.562 168.188 122.486 168.372 122.334 168.508C122.182 168.644 121.974 168.712 121.71 168.712ZM126.229 176.5V169.9H127.309V171.16H127.321C127.377 170.72 127.557 170.38 127.861 170.14C128.165 169.9 128.569 169.78 129.073 169.78C129.737 169.78 130.265 169.984 130.657 170.392C131.049 170.8 131.245 171.356 131.245 172.06V176.5H130.165V172.18C130.165 171.708 130.037 171.348 129.781 171.1C129.533 170.844 129.193 170.716 128.761 170.716C128.313 170.716 127.957 170.852 127.693 171.124C127.437 171.396 127.309 171.788 127.309 172.3V176.5H126.229ZM135.92 176.62C135.4 176.62 134.944 176.516 134.552 176.308C134.168 176.1 133.868 175.808 133.652 175.432C133.444 175.048 133.34 174.604 133.34 174.1V172.3C133.34 171.788 133.444 171.344 133.652 170.968C133.868 170.592 134.168 170.3 134.552 170.092C134.944 169.884 135.4 169.78 135.92 169.78C136.44 169.78 136.892 169.884 137.276 170.092C137.668 170.3 137.968 170.592 138.176 170.968C138.392 171.344 138.5 171.788 138.5 172.3V173.464H134.396V174.1C134.396 174.62 134.528 175.02 134.792 175.3C135.056 175.572 135.432 175.708 135.92 175.708C136.336 175.708 136.672 175.636 136.928 175.492C137.184 175.34 137.34 175.116 137.396 174.82H138.476C138.404 175.372 138.132 175.812 137.66 176.14C137.196 176.46 136.616 176.62 135.92 176.62ZM134.396 172.648H137.444V172.3C137.444 171.78 137.312 171.38 137.048 171.1C136.792 170.82 136.416 170.68 135.92 170.68C135.432 170.68 135.056 170.82 134.792 171.1C134.528 171.38 134.396 171.78 134.396 172.3V172.648ZM143.116 176.62C142.596 176.62 142.14 176.516 141.748 176.308C141.364 176.1 141.064 175.808 140.848 175.432C140.64 175.048 140.536 174.604 140.536 174.1V172.3C140.536 171.788 140.64 171.344 140.848 170.968C141.064 170.592 141.364 170.3 141.748 170.092C142.14 169.884 142.596 169.78 143.116 169.78C143.636 169.78 144.088 169.884 144.472 170.092C144.864 170.3 145.164 170.592 145.372 170.968C145.588 171.344 145.696 171.788 145.696 172.3V173.464H141.592V174.1C141.592 174.62 141.724 175.02 141.988 175.3C142.252 175.572 142.628 175.708 143.116 175.708C143.532 175.708 143.868 175.636 144.124 175.492C144.38 175.34 144.536 175.116 144.592 174.82H145.672C145.6 175.372 145.328 175.812 144.856 176.14C144.392 176.46 143.812 176.62 143.116 176.62ZM141.592 172.648H144.64V172.3C144.64 171.78 144.508 171.38 144.244 171.1C143.988 170.82 143.612 170.68 143.116 170.68C142.628 170.68 142.252 170.82 141.988 171.1C141.724 171.38 141.592 171.78 141.592 172.3V172.648ZM148.019 176.5V169.9H149.099V171.16H149.111C149.167 170.72 149.347 170.38 149.651 170.14C149.955 169.9 150.359 169.78 150.863 169.78C151.551 169.78 152.099 170 152.507 170.44C152.915 170.872 153.119 171.46 153.119 172.204V172.66H152.039V172.3C152.039 171.796 151.911 171.408 151.655 171.136C151.399 170.856 151.027 170.716 150.539 170.716C149.579 170.716 149.099 171.244 149.099 172.3V176.5H148.019Z" fill="#DDDDDD"/>
<rect x="93" y="40" width="71" height="25" rx="12.5" fill="#F4322C"/>
<path d="M106.648 56.62C105.848 56.62 105.216 56.396 104.752 55.948C104.288 55.5 104.056 54.884 104.056 54.1V50.14C104.056 49.356 104.288 48.74 104.752 48.292C105.216 47.844 105.848 47.62 106.648 47.62C107.432 47.62 108.056 47.848 108.52 48.304C108.984 48.752 109.216 49.364 109.216 50.14H108.136C108.136 49.644 108.004 49.264 107.74 49C107.484 48.728 107.12 48.592 106.648 48.592C106.176 48.592 105.804 48.724 105.532 48.988C105.268 49.252 105.136 49.632 105.136 50.128V54.1C105.136 54.596 105.268 54.98 105.532 55.252C105.804 55.516 106.176 55.648 106.648 55.648C107.12 55.648 107.484 55.516 107.74 55.252C108.004 54.98 108.136 54.596 108.136 54.1H109.216C109.216 54.876 108.984 55.492 108.52 55.948C108.056 56.396 107.432 56.62 106.648 56.62ZM112.343 58.66L113.315 56.092L110.795 49.9H111.971L113.579 53.98C113.635 54.116 113.687 54.28 113.735 54.472C113.791 54.656 113.835 54.812 113.867 54.94C113.899 54.812 113.943 54.656 113.999 54.472C114.055 54.28 114.111 54.116 114.167 53.98L115.667 49.9H116.795L113.471 58.66H112.343ZM118.507 58.66V49.9H119.587V51.16H119.599C119.655 50.728 119.843 50.392 120.163 50.152C120.491 49.904 120.903 49.78 121.399 49.78C122.063 49.78 122.591 50 122.983 50.44C123.383 50.872 123.583 51.468 123.583 52.228V54.16C123.583 54.92 123.383 55.52 122.983 55.96C122.591 56.4 122.063 56.62 121.399 56.62C120.903 56.62 120.495 56.496 120.175 56.248C119.855 56 119.663 55.664 119.599 55.24H119.563L119.587 56.74V58.66H118.507ZM121.039 55.684C121.495 55.684 121.851 55.548 122.107 55.276C122.371 55.004 122.503 54.612 122.503 54.1V52.3C122.503 51.788 122.371 51.396 122.107 51.124C121.851 50.852 121.495 50.716 121.039 50.716C120.599 50.716 120.247 50.856 119.983 51.136C119.719 51.416 119.587 51.804 119.587 52.3V54.1C119.587 54.596 119.719 54.984 119.983 55.264C120.247 55.544 120.599 55.684 121.039 55.684ZM125.894 56.5V49.9H126.974V51.16H126.986C127.042 50.72 127.222 50.38 127.526 50.14C127.83 49.9 128.234 49.78 128.738 49.78C129.426 49.78 129.974 50 130.382 50.44C130.79 50.872 130.994 51.46 130.994 52.204V52.66H129.914V52.3C129.914 51.796 129.786 51.408 129.53 51.136C129.274 50.856 128.902 50.716 128.414 50.716C127.454 50.716 126.974 51.244 126.974 52.3V56.5H125.894ZM135.381 56.62C134.861 56.62 134.405 56.516 134.013 56.308C133.629 56.1 133.329 55.808 133.113 55.432C132.905 55.048 132.801 54.604 132.801 54.1V52.3C132.801 51.788 132.905 51.344 133.113 50.968C133.329 50.592 133.629 50.3 134.013 50.092C134.405 49.884 134.861 49.78 135.381 49.78C135.901 49.78 136.353 49.884 136.737 50.092C137.129 50.3 137.429 50.592 137.637 50.968C137.853 51.344 137.961 51.788 137.961 52.3V53.464H133.857V54.1C133.857 54.62 133.989 55.02 134.253 55.3C134.517 55.572 134.893 55.708 135.381 55.708C135.797 55.708 136.133 55.636 136.389 55.492C136.645 55.34 136.801 55.116 136.857 54.82H137.937C137.865 55.372 137.593 55.812 137.121 56.14C136.657 56.46 136.077 56.62 135.381 56.62ZM133.857 52.648H136.905V52.3C136.905 51.78 136.773 51.38 136.509 51.1C136.253 50.82 135.877 50.68 135.381 50.68C134.893 50.68 134.517 50.82 134.253 51.1C133.989 51.38 133.857 51.78 133.857 52.3V52.648ZM142.373 56.596C141.693 56.596 141.137 56.44 140.705 56.128C140.273 55.816 140.057 55.388 140.057 54.844H141.161C141.161 55.092 141.277 55.288 141.509 55.432C141.749 55.568 142.045 55.636 142.397 55.636H142.901C143.325 55.636 143.641 55.552 143.849 55.384C144.057 55.208 144.161 54.976 144.161 54.688C144.161 54.408 144.061 54.188 143.861 54.028C143.669 53.86 143.389 53.748 143.021 53.692L142.133 53.548C141.477 53.436 140.993 53.228 140.681 52.924C140.369 52.62 140.213 52.2 140.213 51.664C140.213 51.064 140.405 50.604 140.789 50.284C141.181 49.964 141.741 49.804 142.469 49.804H142.925C143.597 49.804 144.133 49.956 144.533 50.26C144.941 50.556 145.145 50.952 145.145 51.448H144.041C144.041 51.24 143.937 51.076 143.729 50.956C143.529 50.828 143.253 50.764 142.901 50.764H142.445C142.069 50.764 141.777 50.844 141.569 51.004C141.369 51.156 141.269 51.376 141.269 51.664C141.269 52.144 141.609 52.44 142.289 52.552L143.177 52.696C143.889 52.808 144.405 53.016 144.725 53.32C145.053 53.624 145.217 54.064 145.217 54.64C145.217 55.248 145.021 55.728 144.629 56.08C144.245 56.424 143.661 56.596 142.877 56.596H142.373ZM149.568 56.596C148.888 56.596 148.332 56.44 147.9 56.128C147.468 55.816 147.252 55.388 147.252 54.844H148.356C148.356 55.092 148.472 55.288 148.704 55.432C148.944 55.568 149.24 55.636 149.592 55.636H150.096C150.52 55.636 150.836 55.552 151.044 55.384C151.252 55.208 151.356 54.976 151.356 54.688C151.356 54.408 151.256 54.188 151.056 54.028C150.864 53.86 150.584 53.748 150.216 53.692L149.328 53.548C148.672 53.436 148.188 53.228 147.876 52.924C147.564 52.62 147.408 52.2 147.408 51.664C147.408 51.064 147.6 50.604 147.984 50.284C148.376 49.964 148.936 49.804 149.664 49.804H150.12C150.792 49.804 151.328 49.956 151.728 50.26C152.136 50.556 152.34 50.952 152.34 51.448H151.236C151.236 51.24 151.132 51.076 150.924 50.956C150.724 50.828 150.448 50.764 150.096 50.764H149.64C149.264 50.764 148.972 50.844 148.764 51.004C148.564 51.156 148.464 51.376 148.464 51.664C148.464 52.144 148.804 52.44 149.484 52.552L150.372 52.696C151.084 52.808 151.6 53.016 151.92 53.32C152.248 53.624 152.412 54.064 152.412 54.64C152.412 55.248 152.216 55.728 151.824 56.08C151.44 56.424 150.856 56.596 150.072 56.596H149.568Z" fill="#DDDDDD"/>
<rect x="93" y="120" width="71" height="25" rx="12.5" fill="#F4322C"/>
<path d="M104.116 136.5V127.74H105.196V131.484H108.004V127.74H109.084V136.5H108.004V132.468H105.196V136.5H104.116ZM113.795 136.596C112.995 136.596 112.363 136.372 111.899 135.924C111.443 135.468 111.215 134.852 111.215 134.076V132.324C111.215 131.54 111.443 130.924 111.899 130.476C112.363 130.028 112.995 129.804 113.795 129.804C114.595 129.804 115.223 130.028 115.679 130.476C116.143 130.924 116.375 131.536 116.375 132.312V134.076C116.375 134.852 116.143 135.468 115.679 135.924C115.223 136.372 114.595 136.596 113.795 136.596ZM113.795 135.636C114.267 135.636 114.635 135.504 114.899 135.24C115.163 134.976 115.295 134.588 115.295 134.076V132.324C115.295 131.812 115.163 131.424 114.899 131.16C114.635 130.896 114.267 130.764 113.795 130.764C113.331 130.764 112.963 130.896 112.691 131.16C112.427 131.424 112.295 131.812 112.295 132.324V134.076C112.295 134.588 112.427 134.976 112.691 135.24C112.963 135.504 113.331 135.636 113.795 135.636ZM120.787 136.596C120.107 136.596 119.551 136.44 119.119 136.128C118.687 135.816 118.471 135.388 118.471 134.844H119.575C119.575 135.092 119.691 135.288 119.923 135.432C120.163 135.568 120.459 135.636 120.811 135.636H121.315C121.739 135.636 122.055 135.552 122.263 135.384C122.471 135.208 122.575 134.976 122.575 134.688C122.575 134.408 122.475 134.188 122.275 134.028C122.083 133.86 121.803 133.748 121.435 133.692L120.547 133.548C119.891 133.436 119.407 133.228 119.095 132.924C118.783 132.62 118.627 132.2 118.627 131.664C118.627 131.064 118.819 130.604 119.203 130.284C119.595 129.964 120.155 129.804 120.883 129.804H121.339C122.011 129.804 122.547 129.956 122.947 130.26C123.355 130.556 123.559 130.952 123.559 131.448H122.455C122.455 131.24 122.351 131.076 122.143 130.956C121.943 130.828 121.667 130.764 121.315 130.764H120.859C120.483 130.764 120.191 130.844 119.983 131.004C119.783 131.156 119.683 131.376 119.683 131.664C119.683 132.144 120.023 132.44 120.703 132.552L121.591 132.696C122.303 132.808 122.819 133.016 123.139 133.32C123.467 133.624 123.631 134.064 123.631 134.64C123.631 135.248 123.435 135.728 123.043 136.08C122.659 136.424 122.075 136.596 121.291 136.596H120.787ZM128.906 136.5C128.362 136.5 127.926 136.344 127.598 136.032C127.27 135.712 127.106 135.288 127.106 134.76V130.884H125.246V129.9H127.106V128.04H128.186V129.9H130.826V130.884H128.186V134.76C128.186 134.984 128.25 135.168 128.378 135.312C128.514 135.448 128.69 135.516 128.906 135.516H130.706V136.5H128.906ZM132.801 136.5V135.516H135.141V130.884H133.041V129.9H136.221V135.516H138.441V136.5H132.801ZM135.561 128.712C135.297 128.712 135.089 128.644 134.937 128.508C134.785 128.372 134.709 128.188 134.709 127.956C134.709 127.716 134.785 127.528 134.937 127.392C135.089 127.248 135.297 127.176 135.561 127.176C135.825 127.176 136.033 127.248 136.185 127.392C136.337 127.528 136.413 127.716 136.413 127.956C136.413 128.188 136.337 128.372 136.185 128.508C136.033 128.644 135.825 128.712 135.561 128.712ZM140.081 136.5V129.9H141.161V131.16H141.173C141.229 130.72 141.409 130.38 141.713 130.14C142.017 129.9 142.421 129.78 142.925 129.78C143.589 129.78 144.117 129.984 144.509 130.392C144.901 130.8 145.097 131.356 145.097 132.06V136.5H144.017V132.18C144.017 131.708 143.889 131.348 143.633 131.1C143.385 130.844 143.045 130.716 142.613 130.716C142.165 130.716 141.809 130.852 141.545 131.124C141.289 131.396 141.161 131.788 141.161 132.3V136.5H140.081ZM148.104 138.66V137.676H150.204C150.852 137.676 151.176 137.364 151.176 136.74V135.9L151.2 134.7H151.176C151.136 135.124 150.956 135.46 150.636 135.708C150.324 135.956 149.92 136.08 149.424 136.08C148.744 136.08 148.208 135.86 147.816 135.42C147.424 134.972 147.228 134.372 147.228 133.62V132.228C147.228 131.476 147.424 130.88 147.816 130.44C148.208 130 148.744 129.78 149.424 129.78C149.92 129.78 150.324 129.904 150.636 130.152C150.956 130.4 151.136 130.736 151.176 131.16H151.188V129.9H152.256V136.74C152.256 137.332 152.072 137.8 151.704 138.144C151.344 138.488 150.84 138.66 150.192 138.66H148.104ZM149.748 135.144C150.196 135.144 150.548 135.004 150.804 134.724C151.06 134.444 151.188 134.056 151.188 133.56V132.3C151.188 131.804 151.06 131.416 150.804 131.136C150.548 130.856 150.196 130.716 149.748 130.716C149.292 130.716 148.936 130.852 148.68 131.124C148.432 131.396 148.308 131.788 148.308 132.3V133.56C148.308 134.072 148.432 134.464 148.68 134.736C148.936 135.008 149.292 135.144 149.748 135.144Z" fill="#DDDDDD"/>
<rect x="64" y="360" width="100" height="25" rx="12.5" fill="#F4322C"/>
<path d="M74.6 376.5L76.88 367.74H78.332L80.6 376.5H79.508L78.932 374.172H76.28L75.704 376.5H74.6ZM76.496 373.26H78.704L78.032 370.56C77.904 370.048 77.804 369.62 77.732 369.276C77.66 368.932 77.616 368.708 77.6 368.604C77.584 368.708 77.54 368.932 77.468 369.276C77.396 369.62 77.296 370.044 77.168 370.548L76.496 373.26ZM82.2993 376.5V367.74H85.1193C85.9353 367.74 86.5833 367.976 87.0633 368.448C87.5513 368.912 87.7953 369.536 87.7953 370.32C87.7953 371.104 87.5513 371.732 87.0633 372.204C86.5833 372.668 85.9353 372.9 85.1193 372.9H83.3793V376.5H82.2993ZM83.3793 371.928H85.1193C85.5913 371.928 85.9673 371.784 86.2473 371.496C86.5353 371.2 86.6793 370.808 86.6793 370.32C86.6793 369.824 86.5353 369.432 86.2473 369.144C85.9673 368.856 85.5913 368.712 85.1193 368.712H83.3793V371.928ZM89.6506 376.5V375.516H91.4386V368.724H89.6506V367.74H94.3306V368.724H92.5426V375.516H94.3306V376.5H89.6506ZM106.429 376.62C105.629 376.62 104.997 376.396 104.533 375.948C104.069 375.5 103.837 374.884 103.837 374.1V370.14C103.837 369.356 104.069 368.74 104.533 368.292C104.997 367.844 105.629 367.62 106.429 367.62C107.213 367.62 107.837 367.848 108.301 368.304C108.765 368.752 108.997 369.364 108.997 370.14H107.917C107.917 369.644 107.785 369.264 107.521 369C107.265 368.728 106.901 368.592 106.429 368.592C105.957 368.592 105.585 368.724 105.313 368.988C105.049 369.252 104.917 369.632 104.917 370.128V374.1C104.917 374.596 105.049 374.98 105.313 375.252C105.585 375.524 105.957 375.66 106.429 375.66C106.901 375.66 107.265 375.524 107.521 375.252C107.785 374.98 107.917 374.596 107.917 374.1V373.02H106.141V372.036H108.997V374.1C108.997 374.876 108.765 375.492 108.301 375.948C107.837 376.396 107.213 376.62 106.429 376.62ZM113.001 376.62C112.305 376.62 111.757 376.444 111.357 376.092C110.957 375.732 110.757 375.248 110.757 374.64C110.757 374.024 110.957 373.54 111.357 373.188C111.757 372.836 112.297 372.66 112.977 372.66H115.017V372C115.017 371.6 114.893 371.288 114.645 371.064C114.405 370.84 114.069 370.728 113.637 370.728C113.253 370.728 112.929 370.812 112.665 370.98C112.401 371.148 112.237 371.368 112.173 371.64H111.093C111.133 371.272 111.265 370.948 111.489 370.668C111.721 370.388 112.021 370.172 112.389 370.02C112.765 369.86 113.181 369.78 113.637 369.78C114.397 369.78 114.997 369.976 115.437 370.368C115.877 370.76 116.097 371.292 116.097 371.964V376.5H115.041V375.24H115.029C114.981 375.664 114.773 376 114.405 376.248C114.045 376.496 113.577 376.62 113.001 376.62ZM113.265 375.768C113.777 375.768 114.197 375.64 114.525 375.384C114.853 375.128 115.017 374.8 115.017 374.4V373.464H113.001C112.641 373.464 112.357 373.564 112.149 373.764C111.941 373.964 111.837 374.236 111.837 374.58C111.837 374.948 111.961 375.24 112.209 375.456C112.465 375.664 112.817 375.768 113.265 375.768ZM121.492 376.5C120.948 376.5 120.512 376.344 120.184 376.032C119.856 375.712 119.692 375.288 119.692 374.76V370.884H117.832V369.9H119.692V368.04H120.772V369.9H123.412V370.884H120.772V374.76C120.772 374.984 120.836 375.168 120.964 375.312C121.1 375.448 121.276 375.516 121.492 375.516H123.292V376.5H121.492ZM127.967 376.62C127.447 376.62 126.991 376.516 126.599 376.308C126.215 376.1 125.915 375.808 125.699 375.432C125.491 375.048 125.387 374.604 125.387 374.1V372.3C125.387 371.788 125.491 371.344 125.699 370.968C125.915 370.592 126.215 370.3 126.599 370.092C126.991 369.884 127.447 369.78 127.967 369.78C128.487 369.78 128.939 369.884 129.323 370.092C129.715 370.3 130.015 370.592 130.223 370.968C130.439 371.344 130.547 371.788 130.547 372.3V373.464H126.443V374.1C126.443 374.62 126.575 375.02 126.839 375.3C127.103 375.572 127.479 375.708 127.967 375.708C128.383 375.708 128.719 375.636 128.975 375.492C129.231 375.34 129.387 375.116 129.443 374.82H130.523C130.451 375.372 130.179 375.812 129.707 376.14C129.243 376.46 128.663 376.62 127.967 376.62ZM126.443 372.648H129.491V372.3C129.491 371.78 129.359 371.38 129.095 371.1C128.839 370.82 128.463 370.68 127.967 370.68C127.479 370.68 127.103 370.82 126.839 371.1C126.575 371.38 126.443 371.78 126.443 372.3V372.648ZM133.039 376.5L131.983 369.9H132.919L133.579 374.58C133.603 374.756 133.627 374.948 133.651 375.156C133.675 375.356 133.691 375.524 133.699 375.66H133.747C133.763 375.524 133.783 375.356 133.807 375.156C133.831 374.948 133.859 374.756 133.891 374.58L134.623 369.9H135.703L136.435 374.58C136.467 374.756 136.495 374.948 136.519 375.156C136.551 375.356 136.571 375.524 136.579 375.66H136.627C136.643 375.524 136.663 375.356 136.687 375.156C136.719 374.948 136.747 374.756 136.771 374.58L137.455 369.9H138.342L137.239 376.5H136.051L135.343 371.94C135.311 371.716 135.279 371.492 135.247 371.268C135.215 371.044 135.191 370.868 135.175 370.74H135.127C135.119 370.868 135.099 371.044 135.067 371.268C135.043 371.492 135.011 371.716 134.971 371.94L134.227 376.5H133.039ZM141.782 376.62C141.086 376.62 140.538 376.444 140.138 376.092C139.738 375.732 139.538 375.248 139.538 374.64C139.538 374.024 139.738 373.54 140.138 373.188C140.538 372.836 141.078 372.66 141.758 372.66H143.798V372C143.798 371.6 143.674 371.288 143.426 371.064C143.186 370.84 142.85 370.728 142.418 370.728C142.034 370.728 141.71 370.812 141.446 370.98C141.182 371.148 141.018 371.368 140.954 371.64H139.874C139.914 371.272 140.046 370.948 140.27 370.668C140.502 370.388 140.802 370.172 141.17 370.02C141.546 369.86 141.962 369.78 142.418 369.78C143.178 369.78 143.778 369.976 144.218 370.368C144.658 370.76 144.878 371.292 144.878 371.964V376.5H143.822V375.24H143.81C143.762 375.664 143.554 376 143.186 376.248C142.826 376.496 142.358 376.62 141.782 376.62ZM142.046 375.768C142.558 375.768 142.978 375.64 143.306 375.384C143.634 375.128 143.798 374.8 143.798 374.4V373.464H141.782C141.422 373.464 141.138 373.564 140.93 373.764C140.722 373.964 140.618 374.236 140.618 374.58C140.618 374.948 140.742 375.24 140.99 375.456C141.246 375.664 141.598 375.768 142.046 375.768ZM148.101 378.66L149.073 376.092L146.553 369.9H147.729L149.337 373.98C149.393 374.116 149.445 374.28 149.493 374.472C149.549 374.656 149.593 374.812 149.625 374.94C149.657 374.812 149.701 374.656 149.757 374.472C149.813 374.28 149.869 374.116 149.925 373.98L151.425 369.9H152.553L149.229 378.66H148.101Z" fill="#DDDDDD"/>
<rect x="50" y="320" width="114" height="25" rx="12.5" fill="#F4322C"/>
<path d="M60.912 336.5V327.74H62.328L63.264 330.572C63.352 330.828 63.424 331.084 63.48 331.34C63.544 331.588 63.592 331.78 63.624 331.916C63.656 331.78 63.704 331.588 63.768 331.34C63.832 331.084 63.904 330.824 63.984 330.56L64.872 327.74H66.288V336.5H65.232V332.36C65.232 331.648 65.264 330.948 65.328 330.26C65.392 329.572 65.464 328.912 65.544 328.28L64.116 332.66H63.084L61.644 328.28C61.732 328.888 61.808 329.524 61.872 330.188C61.936 330.852 61.968 331.576 61.968 332.36V336.5H60.912ZM68.2153 336.5V335.516H70.5553V330.884H68.4553V329.9H71.6353V335.516H73.8553V336.5H68.2153ZM70.9753 328.712C70.7113 328.712 70.5033 328.644 70.3513 328.508C70.1993 328.372 70.1233 328.188 70.1233 327.956C70.1233 327.716 70.1993 327.528 70.3513 327.392C70.5033 327.248 70.7113 327.176 70.9753 327.176C71.2393 327.176 71.4473 327.248 71.5993 327.392C71.7513 327.528 71.8273 327.716 71.8273 327.956C71.8273 328.188 71.7513 328.372 71.5993 328.508C71.4473 328.644 71.2393 328.712 70.9753 328.712ZM78.0386 336.62C77.2386 336.62 76.5986 336.396 76.1186 335.948C75.6466 335.5 75.4106 334.884 75.4106 334.1V332.3C75.4106 331.516 75.6466 330.9 76.1186 330.452C76.5986 330.004 77.2386 329.78 78.0386 329.78C78.7986 329.78 79.4106 329.984 79.8746 330.392C80.3386 330.8 80.5826 331.356 80.6066 332.06H79.5266C79.5026 331.636 79.3586 331.312 79.0946 331.088C78.8386 330.856 78.4866 330.74 78.0386 330.74C77.5666 330.74 77.1906 330.876 76.9106 331.148C76.6306 331.412 76.4906 331.792 76.4906 332.288V334.1C76.4906 334.596 76.6306 334.98 76.9106 335.252C77.1906 335.524 77.5666 335.66 78.0386 335.66C78.4866 335.66 78.8386 335.544 79.0946 335.312C79.3586 335.08 79.5026 334.756 79.5266 334.34H80.6066C80.5826 335.044 80.3386 335.6 79.8746 336.008C79.4106 336.416 78.7986 336.62 78.0386 336.62ZM82.8939 336.5V329.9H83.9739V331.16H83.9859C84.0419 330.72 84.2219 330.38 84.5259 330.14C84.8299 329.9 85.2339 329.78 85.7379 329.78C86.4259 329.78 86.9739 330 87.3819 330.44C87.7899 330.872 87.9939 331.46 87.9939 332.204V332.66H86.9139V332.3C86.9139 331.796 86.7859 331.408 86.5299 331.136C86.2739 330.856 85.9019 330.716 85.4139 330.716C84.4539 330.716 83.9739 331.244 83.9739 332.3V336.5H82.8939ZM92.3813 336.596C91.5813 336.596 90.9493 336.372 90.4853 335.924C90.0293 335.468 89.8013 334.852 89.8013 334.076V332.324C89.8013 331.54 90.0293 330.924 90.4853 330.476C90.9493 330.028 91.5813 329.804 92.3813 329.804C93.1813 329.804 93.8093 330.028 94.2653 330.476C94.7293 330.924 94.9613 331.536 94.9613 332.312V334.076C94.9613 334.852 94.7293 335.468 94.2653 335.924C93.8093 336.372 93.1813 336.596 92.3813 336.596ZM92.3813 335.636C92.8533 335.636 93.2213 335.504 93.4853 335.24C93.7493 334.976 93.8813 334.588 93.8813 334.076V332.324C93.8813 331.812 93.7493 331.424 93.4853 331.16C93.2213 330.896 92.8533 330.764 92.3813 330.764C91.9173 330.764 91.5493 330.896 91.2773 331.16C91.0133 331.424 90.8813 331.812 90.8813 332.324V334.076C90.8813 334.588 91.0133 334.976 91.2773 335.24C91.5493 335.504 91.9173 335.636 92.3813 335.636ZM99.3726 336.596C98.6926 336.596 98.1366 336.44 97.7046 336.128C97.2726 335.816 97.0566 335.388 97.0566 334.844H98.1606C98.1606 335.092 98.2766 335.288 98.5086 335.432C98.7486 335.568 99.0446 335.636 99.3966 335.636H99.9006C100.325 335.636 100.641 335.552 100.849 335.384C101.057 335.208 101.161 334.976 101.161 334.688C101.161 334.408 101.061 334.188 100.861 334.028C100.669 333.86 100.389 333.748 100.021 333.692L99.1326 333.548C98.4766 333.436 97.9926 333.228 97.6806 332.924C97.3686 332.62 97.2126 332.2 97.2126 331.664C97.2126 331.064 97.4046 330.604 97.7886 330.284C98.1806 329.964 98.7406 329.804 99.4686 329.804H99.9246C100.597 329.804 101.133 329.956 101.533 330.26C101.941 330.556 102.145 330.952 102.145 331.448H101.041C101.041 331.24 100.937 331.076 100.729 330.956C100.529 330.828 100.253 330.764 99.9006 330.764H99.4446C99.0686 330.764 98.7766 330.844 98.5686 331.004C98.3686 331.156 98.2686 331.376 98.2686 331.664C98.2686 332.144 98.6086 332.44 99.2886 332.552L100.177 332.696C100.889 332.808 101.405 333.016 101.725 333.32C102.053 333.624 102.217 334.064 102.217 334.64C102.217 335.248 102.021 335.728 101.629 336.08C101.245 336.424 100.661 336.596 99.8766 336.596H99.3726ZM106.772 336.62C106.252 336.62 105.796 336.516 105.404 336.308C105.02 336.1 104.72 335.808 104.504 335.432C104.296 335.048 104.192 334.604 104.192 334.1V332.3C104.192 331.788 104.296 331.344 104.504 330.968C104.72 330.592 105.02 330.3 105.404 330.092C105.796 329.884 106.252 329.78 106.772 329.78C107.292 329.78 107.744 329.884 108.128 330.092C108.52 330.3 108.82 330.592 109.028 330.968C109.244 331.344 109.352 331.788 109.352 332.3V333.464H105.248V334.1C105.248 334.62 105.38 335.02 105.644 335.3C105.908 335.572 106.284 335.708 106.772 335.708C107.188 335.708 107.524 335.636 107.78 335.492C108.036 335.34 108.192 335.116 108.248 334.82H109.328C109.256 335.372 108.984 335.812 108.512 336.14C108.048 336.46 107.468 336.62 106.772 336.62ZM105.248 332.648H108.296V332.3C108.296 331.78 108.164 331.38 107.9 331.1C107.644 330.82 107.268 330.68 106.772 330.68C106.284 330.68 105.908 330.82 105.644 331.1C105.38 331.38 105.248 331.78 105.248 332.3V332.648ZM111.675 336.5V329.9H112.755V331.16H112.767C112.823 330.72 113.003 330.38 113.307 330.14C113.611 329.9 114.015 329.78 114.519 329.78C115.207 329.78 115.755 330 116.163 330.44C116.571 330.872 116.775 331.46 116.775 332.204V332.66H115.695V332.3C115.695 331.796 115.567 331.408 115.311 331.136C115.055 330.856 114.683 330.716 114.195 330.716C113.235 330.716 112.755 331.244 112.755 332.3V336.5H111.675ZM120.455 336.5L118.163 329.9H119.279L120.815 334.34C120.903 334.604 120.979 334.86 121.043 335.108C121.107 335.348 121.155 335.536 121.187 335.672C121.227 335.536 121.275 335.348 121.331 335.108C121.387 334.86 121.459 334.604 121.547 334.34L123.035 329.9H124.163L121.871 336.5H120.455ZM125.778 336.5V335.516H128.118V330.884H126.018V329.9H129.198V335.516H131.418V336.5H125.778ZM128.538 328.712C128.274 328.712 128.066 328.644 127.914 328.508C127.762 328.372 127.686 328.188 127.686 327.956C127.686 327.716 127.762 327.528 127.914 327.392C128.066 327.248 128.274 327.176 128.538 327.176C128.802 327.176 129.01 327.248 129.162 327.392C129.314 327.528 129.39 327.716 129.39 327.956C129.39 328.188 129.314 328.372 129.162 328.508C129.01 328.644 128.802 328.712 128.538 328.712ZM135.601 336.62C134.801 336.62 134.161 336.396 133.681 335.948C133.209 335.5 132.973 334.884 132.973 334.1V332.3C132.973 331.516 133.209 330.9 133.681 330.452C134.161 330.004 134.801 329.78 135.601 329.78C136.361 329.78 136.973 329.984 137.437 330.392C137.901 330.8 138.145 331.356 138.169 332.06H137.089C137.065 331.636 136.921 331.312 136.657 331.088C136.401 330.856 136.049 330.74 135.601 330.74C135.129 330.74 134.753 330.876 134.473 331.148C134.193 331.412 134.053 331.792 134.053 332.288V334.1C134.053 334.596 134.193 334.98 134.473 335.252C134.753 335.524 135.129 335.66 135.601 335.66C136.049 335.66 136.401 335.544 136.657 335.312C136.921 335.08 137.065 334.756 137.089 334.34H138.169C138.145 335.044 137.901 335.6 137.437 336.008C136.973 336.416 136.361 336.62 135.601 336.62ZM142.748 336.62C142.228 336.62 141.772 336.516 141.38 336.308C140.996 336.1 140.696 335.808 140.48 335.432C140.272 335.048 140.168 334.604 140.168 334.1V332.3C140.168 331.788 140.272 331.344 140.48 330.968C140.696 330.592 140.996 330.3 141.38 330.092C141.772 329.884 142.228 329.78 142.748 329.78C143.268 329.78 143.72 329.884 144.104 330.092C144.496 330.3 144.796 330.592 145.004 330.968C145.22 331.344 145.328 331.788 145.328 332.3V333.464H141.224V334.1C141.224 334.62 141.356 335.02 141.62 335.3C141.884 335.572 142.26 335.708 142.748 335.708C143.164 335.708 143.5 335.636 143.756 335.492C144.012 335.34 144.168 335.116 144.224 334.82H145.304C145.232 335.372 144.96 335.812 144.488 336.14C144.024 336.46 143.444 336.62 142.748 336.62ZM141.224 332.648H144.272V332.3C144.272 331.78 144.14 331.38 143.876 331.1C143.62 330.82 143.244 330.68 142.748 330.68C142.26 330.68 141.884 330.82 141.62 331.1C141.356 331.38 141.224 331.78 141.224 332.3V332.648ZM149.74 336.596C149.06 336.596 148.504 336.44 148.072 336.128C147.64 335.816 147.424 335.388 147.424 334.844H148.528C148.528 335.092 148.644 335.288 148.876 335.432C149.116 335.568 149.412 335.636 149.764 335.636H150.268C150.692 335.636 151.008 335.552 151.216 335.384C151.424 335.208 151.528 334.976 151.528 334.688C151.528 334.408 151.428 334.188 151.228 334.028C151.036 333.86 150.756 333.748 150.388 333.692L149.5 333.548C148.844 333.436 148.36 333.228 148.048 332.924C147.736 332.62 147.58 332.2 147.58 331.664C147.58 331.064 147.772 330.604 148.156 330.284C148.548 329.964 149.108 329.804 149.836 329.804H150.292C150.964 329.804 151.5 329.956 151.9 330.26C152.308 330.556 152.512 330.952 152.512 331.448H151.408C151.408 331.24 151.304 331.076 151.096 330.956C150.896 330.828 150.62 330.764 150.268 330.764H149.812C149.436 330.764 149.144 330.844 148.936 331.004C148.736 331.156 148.636 331.376 148.636 331.664C148.636 332.144 148.976 332.44 149.656 332.552L150.544 332.696C151.256 332.808 151.772 333.016 152.092 333.32C152.42 333.624 152.584 334.064 152.584 334.64C152.584 335.248 152.388 335.728 151.996 336.08C151.612 336.424 151.028 336.596 150.244 336.596H149.74Z" fill="#DDDDDD"/>
<rect x="64" y="200" width="100" height="25" rx="12.5" fill="#F4322C"/>
<path d="M77.06 216.5V208.724H74.66V207.74H80.54V208.724H78.14V216.5H77.06ZM84.2193 216.62C83.5233 216.62 82.9753 216.444 82.5753 216.092C82.1753 215.732 81.9753 215.248 81.9753 214.64C81.9753 214.024 82.1753 213.54 82.5753 213.188C82.9753 212.836 83.5153 212.66 84.1953 212.66H86.2353V212C86.2353 211.6 86.1113 211.288 85.8633 211.064C85.6233 210.84 85.2873 210.728 84.8553 210.728C84.4713 210.728 84.1473 210.812 83.8833 210.98C83.6193 211.148 83.4553 211.368 83.3913 211.64H82.3113C82.3513 211.272 82.4833 210.948 82.7073 210.668C82.9393 210.388 83.2393 210.172 83.6073 210.02C83.9833 209.86 84.3993 209.78 84.8553 209.78C85.6153 209.78 86.2153 209.976 86.6553 210.368C87.0953 210.76 87.3153 211.292 87.3153 211.964V216.5H86.2593V215.24H86.2473C86.1993 215.664 85.9913 216 85.6233 216.248C85.2633 216.496 84.7953 216.62 84.2193 216.62ZM84.4833 215.768C84.9953 215.768 85.4153 215.64 85.7433 215.384C86.0713 215.128 86.2353 214.8 86.2353 214.4V213.464H84.2193C83.8593 213.464 83.5753 213.564 83.3673 213.764C83.1593 213.964 83.0553 214.236 83.0553 214.58C83.0553 214.948 83.1793 215.24 83.4273 215.456C83.6833 215.664 84.0353 215.768 84.4833 215.768ZM89.4106 216.5V215.516H91.7506V210.884H89.6506V209.9H92.8306V215.516H95.0506V216.5H89.4106ZM92.1706 208.712C91.9066 208.712 91.6986 208.644 91.5466 208.508C91.3946 208.372 91.3186 208.188 91.3186 207.956C91.3186 207.716 91.3946 207.528 91.5466 207.392C91.6986 207.248 91.9066 207.176 92.1706 207.176C92.4346 207.176 92.6426 207.248 92.7946 207.392C92.9466 207.528 93.0226 207.716 93.0226 207.956C93.0226 208.188 92.9466 208.372 92.7946 208.508C92.6426 208.644 92.4346 208.712 92.1706 208.712ZM100.146 216.5C99.5619 216.5 99.0939 216.332 98.7419 215.996C98.3979 215.652 98.2259 215.2 98.2259 214.64V208.724H95.9459V207.74H99.3059V214.64C99.3059 214.912 99.3819 215.128 99.5339 215.288C99.6859 215.44 99.8899 215.516 100.146 215.516H102.186V216.5H100.146ZM104.257 216.5L103.201 209.9H104.137L104.797 214.58C104.821 214.756 104.845 214.948 104.869 215.156C104.893 215.356 104.909 215.524 104.917 215.66H104.965C104.981 215.524 105.001 215.356 105.025 215.156C105.049 214.948 105.077 214.756 105.109 214.58L105.841 209.9H106.921L107.653 214.58C107.685 214.756 107.713 214.948 107.737 215.156C107.769 215.356 107.789 215.524 107.797 215.66H107.845C107.861 215.524 107.881 215.356 107.905 215.156C107.937 214.948 107.965 214.756 107.989 214.58L108.673 209.9H109.561L108.457 216.5H107.269L106.561 211.94C106.529 211.716 106.497 211.492 106.465 211.268C106.433 211.044 106.409 210.868 106.393 210.74H106.345C106.337 210.868 106.317 211.044 106.285 211.268C106.261 211.492 106.229 211.716 106.189 211.94L105.445 216.5H104.257ZM110.997 216.5V215.516H113.337V210.884H111.237V209.9H114.417V215.516H116.637V216.5H110.997ZM113.757 208.712C113.493 208.712 113.285 208.644 113.133 208.508C112.981 208.372 112.905 208.188 112.905 207.956C112.905 207.716 112.981 207.528 113.133 207.392C113.285 207.248 113.493 207.176 113.757 207.176C114.021 207.176 114.229 207.248 114.381 207.392C114.533 207.528 114.609 207.716 114.609 207.956C114.609 208.188 114.533 208.372 114.381 208.508C114.229 208.644 114.021 208.712 113.757 208.712ZM118.276 216.5V209.9H119.356V211.16H119.368C119.424 210.72 119.604 210.38 119.908 210.14C120.212 209.9 120.616 209.78 121.12 209.78C121.784 209.78 122.312 209.984 122.704 210.392C123.096 210.8 123.292 211.356 123.292 212.06V216.5H122.212V212.18C122.212 211.708 122.084 211.348 121.828 211.1C121.58 210.844 121.24 210.716 120.808 210.716C120.36 210.716 120.004 210.852 119.74 211.124C119.484 211.396 119.356 211.788 119.356 212.3V216.5H118.276ZM127.583 216.62C126.927 216.62 126.395 216.4 125.987 215.96C125.587 215.52 125.387 214.924 125.387 214.172V212.24C125.387 211.48 125.587 210.88 125.987 210.44C126.387 210 126.919 209.78 127.583 209.78C128.079 209.78 128.487 209.904 128.807 210.152C129.127 210.4 129.315 210.736 129.371 211.16H129.407L129.383 209.66V207.74H130.463V216.5H129.383V215.24H129.371C129.315 215.672 129.127 216.012 128.807 216.26C128.487 216.5 128.079 216.62 127.583 216.62ZM127.943 215.684C128.391 215.684 128.743 215.544 128.999 215.264C129.255 214.984 129.383 214.596 129.383 214.1V212.3C129.383 211.804 129.255 211.416 128.999 211.136C128.743 210.856 128.391 210.716 127.943 210.716C127.487 210.716 127.127 210.852 126.863 211.124C126.599 211.396 126.467 211.788 126.467 212.3V214.1C126.467 214.612 126.599 215.004 126.863 215.276C127.127 215.548 127.487 215.684 127.943 215.684ZM135.211 216.62C134.411 216.62 133.771 216.396 133.291 215.948C132.819 215.5 132.583 214.884 132.583 214.1V212.3C132.583 211.516 132.819 210.9 133.291 210.452C133.771 210.004 134.411 209.78 135.211 209.78C135.971 209.78 136.583 209.984 137.047 210.392C137.511 210.8 137.755 211.356 137.779 212.06H136.699C136.675 211.636 136.531 211.312 136.267 211.088C136.011 210.856 135.659 210.74 135.211 210.74C134.739 210.74 134.363 210.876 134.083 211.148C133.803 211.412 133.663 211.792 133.663 212.288V214.1C133.663 214.596 133.803 214.98 134.083 215.252C134.363 215.524 134.739 215.66 135.211 215.66C135.659 215.66 136.011 215.544 136.267 215.312C136.531 215.08 136.675 214.756 136.699 214.34H137.779C137.755 215.044 137.511 215.6 137.047 216.008C136.583 216.416 135.971 216.62 135.211 216.62ZM142.154 216.596C141.474 216.596 140.918 216.44 140.486 216.128C140.054 215.816 139.838 215.388 139.838 214.844H140.942C140.942 215.092 141.058 215.288 141.29 215.432C141.53 215.568 141.826 215.636 142.178 215.636H142.682C143.106 215.636 143.422 215.552 143.63 215.384C143.838 215.208 143.942 214.976 143.942 214.688C143.942 214.408 143.842 214.188 143.642 214.028C143.45 213.86 143.17 213.748 142.802 213.692L141.914 213.548C141.258 213.436 140.774 213.228 140.462 212.924C140.15 212.62 139.994 212.2 139.994 211.664C139.994 211.064 140.186 210.604 140.57 210.284C140.962 209.964 141.522 209.804 142.25 209.804H142.706C143.378 209.804 143.914 209.956 144.314 210.26C144.722 210.556 144.926 210.952 144.926 211.448H143.822C143.822 211.24 143.718 211.076 143.51 210.956C143.31 210.828 143.034 210.764 142.682 210.764H142.226C141.85 210.764 141.558 210.844 141.35 211.004C141.15 211.156 141.05 211.376 141.05 211.664C141.05 212.144 141.39 212.44 142.07 212.552L142.958 212.696C143.67 212.808 144.186 213.016 144.506 213.32C144.834 213.624 144.998 214.064 144.998 214.64C144.998 215.248 144.802 215.728 144.41 216.08C144.026 216.424 143.442 216.596 142.658 216.596H142.154ZM149.349 216.596C148.669 216.596 148.113 216.44 147.681 216.128C147.249 215.816 147.033 215.388 147.033 214.844H148.137C148.137 215.092 148.253 215.288 148.485 215.432C148.725 215.568 149.021 215.636 149.373 215.636H149.877C150.301 215.636 150.617 215.552 150.825 215.384C151.033 215.208 151.137 214.976 151.137 214.688C151.137 214.408 151.037 214.188 150.837 214.028C150.645 213.86 150.365 213.748 149.997 213.692L149.109 213.548C148.453 213.436 147.969 213.228 147.657 212.924C147.345 212.62 147.189 212.2 147.189 211.664C147.189 211.064 147.381 210.604 147.765 210.284C148.157 209.964 148.717 209.804 149.445 209.804H149.901C150.573 209.804 151.109 209.956 151.509 210.26C151.917 210.556 152.121 210.952 152.121 211.448H151.017C151.017 211.24 150.913 211.076 150.705 210.956C150.505 210.828 150.229 210.764 149.877 210.764H149.421C149.045 210.764 148.753 210.844 148.545 211.004C148.345 211.156 148.245 211.376 148.245 211.664C148.245 212.144 148.585 212.44 149.265 212.552L150.153 212.696C150.865 212.808 151.381 213.016 151.701 213.32C152.029 213.624 152.193 214.064 152.193 214.64C152.193 215.248 151.997 215.728 151.605 216.08C151.221 216.424 150.637 216.596 149.853 216.596H149.349Z" fill="#DDDDDD"/>
<rect x="79" y="280" width="85" height="25" rx="12.5" fill="#F4322C"/>
<path d="M90.116 296.5V287.74H92.6C93.4 287.74 94.024 287.94 94.472 288.34C94.928 288.74 95.156 289.296 95.156 290.008C95.156 290.488 95.04 290.892 94.808 291.22C94.576 291.54 94.252 291.756 93.836 291.868C94.308 292.004 94.68 292.264 94.952 292.648C95.224 293.024 95.36 293.496 95.36 294.064C95.36 294.816 95.128 295.412 94.664 295.852C94.208 296.284 93.58 296.5 92.78 296.5H90.116ZM91.172 291.472H92.588C93.052 291.472 93.416 291.348 93.68 291.1C93.952 290.852 94.088 290.516 94.088 290.092C94.088 289.668 93.956 289.332 93.692 289.084C93.428 288.836 93.064 288.712 92.6 288.712H91.172V291.472ZM91.172 295.528H92.66C93.164 295.528 93.56 295.396 93.848 295.132C94.144 294.86 94.292 294.492 94.292 294.028C94.292 293.548 94.144 293.16 93.848 292.864C93.56 292.56 93.164 292.408 92.66 292.408H91.172V295.528ZM99.7953 296.596C98.9953 296.596 98.3633 296.372 97.8993 295.924C97.4433 295.468 97.2153 294.852 97.2153 294.076V292.324C97.2153 291.54 97.4433 290.924 97.8993 290.476C98.3633 290.028 98.9953 289.804 99.7953 289.804C100.595 289.804 101.223 290.028 101.679 290.476C102.143 290.924 102.375 291.536 102.375 292.312V294.076C102.375 294.852 102.143 295.468 101.679 295.924C101.223 296.372 100.595 296.596 99.7953 296.596ZM99.7953 295.636C100.267 295.636 100.635 295.504 100.899 295.24C101.163 294.976 101.295 294.588 101.295 294.076V292.324C101.295 291.812 101.163 291.424 100.899 291.16C100.635 290.896 100.267 290.764 99.7953 290.764C99.3313 290.764 98.9633 290.896 98.6913 291.16C98.4273 291.424 98.2953 291.812 98.2953 292.324V294.076C98.2953 294.588 98.4273 294.976 98.6913 295.24C98.9633 295.504 99.3313 295.636 99.7953 295.636ZM106.991 296.596C106.191 296.596 105.559 296.372 105.095 295.924C104.639 295.468 104.411 294.852 104.411 294.076V292.324C104.411 291.54 104.639 290.924 105.095 290.476C105.559 290.028 106.191 289.804 106.991 289.804C107.791 289.804 108.419 290.028 108.875 290.476C109.339 290.924 109.571 291.536 109.571 292.312V294.076C109.571 294.852 109.339 295.468 108.875 295.924C108.419 296.372 107.791 296.596 106.991 296.596ZM106.991 295.636C107.463 295.636 107.831 295.504 108.095 295.24C108.359 294.976 108.491 294.588 108.491 294.076V292.324C108.491 291.812 108.359 291.424 108.095 291.16C107.831 290.896 107.463 290.764 106.991 290.764C106.527 290.764 106.159 290.896 105.887 291.16C105.623 291.424 105.491 291.812 105.491 292.324V294.076C105.491 294.588 105.623 294.976 105.887 295.24C106.159 295.504 106.527 295.636 106.991 295.636ZM114.906 296.5C114.362 296.5 113.926 296.344 113.598 296.032C113.27 295.712 113.106 295.288 113.106 294.76V290.884H111.246V289.9H113.106V288.04H114.186V289.9H116.826V290.884H114.186V294.76C114.186 294.984 114.25 295.168 114.378 295.312C114.514 295.448 114.69 295.516 114.906 295.516H116.706V296.5H114.906ZM121.177 296.596C120.497 296.596 119.941 296.44 119.509 296.128C119.077 295.816 118.861 295.388 118.861 294.844H119.965C119.965 295.092 120.081 295.288 120.313 295.432C120.553 295.568 120.849 295.636 121.201 295.636H121.705C122.129 295.636 122.445 295.552 122.653 295.384C122.861 295.208 122.965 294.976 122.965 294.688C122.965 294.408 122.865 294.188 122.665 294.028C122.473 293.86 122.193 293.748 121.825 293.692L120.937 293.548C120.281 293.436 119.797 293.228 119.485 292.924C119.173 292.62 119.017 292.2 119.017 291.664C119.017 291.064 119.209 290.604 119.593 290.284C119.985 289.964 120.545 289.804 121.273 289.804H121.729C122.401 289.804 122.937 289.956 123.337 290.26C123.745 290.556 123.949 290.952 123.949 291.448H122.845C122.845 291.24 122.741 291.076 122.533 290.956C122.333 290.828 122.057 290.764 121.705 290.764H121.249C120.873 290.764 120.581 290.844 120.373 291.004C120.173 291.156 120.073 291.376 120.073 291.664C120.073 292.144 120.413 292.44 121.093 292.552L121.981 292.696C122.693 292.808 123.209 293.016 123.529 293.32C123.857 293.624 124.021 294.064 124.021 294.64C124.021 295.248 123.825 295.728 123.433 296.08C123.049 296.424 122.465 296.596 121.681 296.596H121.177ZM129.297 296.5C128.753 296.5 128.317 296.344 127.989 296.032C127.661 295.712 127.497 295.288 127.497 294.76V290.884H125.637V289.9H127.497V288.04H128.577V289.9H131.217V290.884H128.577V294.76C128.577 294.984 128.641 295.168 128.769 295.312C128.905 295.448 129.081 295.516 129.297 295.516H131.097V296.5H129.297ZM133.48 296.5V289.9H134.56V291.16H134.572C134.628 290.72 134.808 290.38 135.112 290.14C135.416 289.9 135.82 289.78 136.324 289.78C137.012 289.78 137.56 290 137.968 290.44C138.376 290.872 138.58 291.46 138.58 292.204V292.66H137.5V292.3C137.5 291.796 137.372 291.408 137.116 291.136C136.86 290.856 136.488 290.716 136 290.716C135.04 290.716 134.56 291.244 134.56 292.3V296.5H133.48ZM142.391 296.62C141.695 296.62 141.147 296.444 140.747 296.092C140.347 295.732 140.147 295.248 140.147 294.64C140.147 294.024 140.347 293.54 140.747 293.188C141.147 292.836 141.687 292.66 142.367 292.66H144.407V292C144.407 291.6 144.283 291.288 144.035 291.064C143.795 290.84 143.459 290.728 143.027 290.728C142.643 290.728 142.319 290.812 142.055 290.98C141.791 291.148 141.627 291.368 141.563 291.64H140.483C140.523 291.272 140.655 290.948 140.879 290.668C141.111 290.388 141.411 290.172 141.779 290.02C142.155 289.86 142.571 289.78 143.027 289.78C143.787 289.78 144.387 289.976 144.827 290.368C145.267 290.76 145.487 291.292 145.487 291.964V296.5H144.431V295.24H144.419C144.371 295.664 144.163 296 143.795 296.248C143.435 296.496 142.967 296.62 142.391 296.62ZM142.655 295.768C143.167 295.768 143.587 295.64 143.915 295.384C144.243 295.128 144.407 294.8 144.407 294.4V293.464H142.391C142.031 293.464 141.747 293.564 141.539 293.764C141.331 293.964 141.227 294.236 141.227 294.58C141.227 294.948 141.351 295.24 141.599 295.456C141.855 295.664 142.207 295.768 142.655 295.768ZM147.679 298.66V289.9H148.759V291.16H148.771C148.827 290.728 149.015 290.392 149.335 290.152C149.663 289.904 150.075 289.78 150.571 289.78C151.235 289.78 151.763 290 152.155 290.44C152.555 290.872 152.755 291.468 152.755 292.228V294.16C152.755 294.92 152.555 295.52 152.155 295.96C151.763 296.4 151.235 296.62 150.571 296.62C150.075 296.62 149.667 296.496 149.347 296.248C149.027 296 148.835 295.664 148.771 295.24H148.735L148.759 296.74V298.66H147.679ZM150.211 295.684C150.667 295.684 151.023 295.548 151.279 295.276C151.543 295.004 151.675 294.612 151.675 294.1V292.3C151.675 291.788 151.543 291.396 151.279 291.124C151.023 290.852 150.667 290.716 150.211 290.716C149.771 290.716 149.419 290.856 149.155 291.136C148.891 291.416 148.759 291.804 148.759 292.3V294.1C148.759 294.596 148.891 294.984 149.155 295.264C149.419 295.544 149.771 295.684 150.211 295.684Z" fill="#DDDDDD"/>
<rect x="57" y="240" width="107" height="25" rx="12.5" fill="#F4322C"/>
<path d="M69.856 256.5L67.6 247.74H68.704L70.204 253.704C70.308 254.12 70.392 254.504 70.456 254.856C70.528 255.208 70.58 255.476 70.612 255.66C70.644 255.476 70.696 255.208 70.768 254.856C70.848 254.496 70.94 254.108 71.044 253.692L72.484 247.74H73.6L71.332 256.5H69.856ZM75.2153 256.5V255.516H77.5553V250.884H75.4553V249.9H78.6353V255.516H80.8553V256.5H75.2153ZM77.9753 248.712C77.7113 248.712 77.5033 248.644 77.3513 248.508C77.1993 248.372 77.1233 248.188 77.1233 247.956C77.1233 247.716 77.1993 247.528 77.3513 247.392C77.5033 247.248 77.7113 247.176 77.9753 247.176C78.2393 247.176 78.4473 247.248 78.5993 247.392C78.7513 247.528 78.8273 247.716 78.8273 247.956C78.8273 248.188 78.7513 248.372 78.5993 248.508C78.4473 248.644 78.2393 248.712 77.9753 248.712ZM85.7106 256.5C85.1666 256.5 84.7306 256.344 84.4026 256.032C84.0746 255.712 83.9106 255.288 83.9106 254.76V250.884H82.0506V249.9H83.9106V248.04H84.9906V249.9H87.6306V250.884H84.9906V254.76C84.9906 254.984 85.0546 255.168 85.1826 255.312C85.3186 255.448 85.4946 255.516 85.7106 255.516H87.5106V256.5H85.7106ZM92.1859 256.62C91.6659 256.62 91.2099 256.516 90.8179 256.308C90.4339 256.1 90.1339 255.808 89.9179 255.432C89.7099 255.048 89.6059 254.604 89.6059 254.1V252.3C89.6059 251.788 89.7099 251.344 89.9179 250.968C90.1339 250.592 90.4339 250.3 90.8179 250.092C91.2099 249.884 91.6659 249.78 92.1859 249.78C92.7059 249.78 93.1579 249.884 93.5419 250.092C93.9339 250.3 94.2339 250.592 94.4419 250.968C94.6579 251.344 94.7659 251.788 94.7659 252.3V253.464H90.6619V254.1C90.6619 254.62 90.7939 255.02 91.0579 255.3C91.3219 255.572 91.6979 255.708 92.1859 255.708C92.6019 255.708 92.9379 255.636 93.1939 255.492C93.4499 255.34 93.6059 255.116 93.6619 254.82H94.7419C94.6699 255.372 94.3979 255.812 93.9259 256.14C93.4619 256.46 92.8819 256.62 92.1859 256.62ZM90.6619 252.648H93.7099V252.3C93.7099 251.78 93.5779 251.38 93.3139 251.1C93.0579 250.82 92.6819 250.68 92.1859 250.68C91.6979 250.68 91.3219 250.82 91.0579 251.1C90.7939 251.38 90.6619 251.78 90.6619 252.3V252.648ZM96.6813 257.82L100.941 246.54H102.081L97.8213 257.82H96.6813ZM104.285 256.5L103.277 247.74H104.309L104.969 254.22C104.993 254.484 105.013 254.76 105.029 255.048C105.053 255.328 105.069 255.552 105.077 255.72C105.093 255.552 105.113 255.328 105.137 255.048C105.169 254.76 105.201 254.484 105.233 254.22L106.049 247.74H107.165L107.909 254.22C107.941 254.484 107.973 254.76 108.005 255.048C108.037 255.328 108.061 255.552 108.077 255.72C108.093 255.552 108.109 255.328 108.125 255.048C108.149 254.76 108.177 254.484 108.209 254.22L108.893 247.74H109.877L108.845 256.5H107.489L106.745 249.9C106.713 249.628 106.685 249.364 106.661 249.108C106.637 248.844 106.617 248.64 106.601 248.496C106.585 248.64 106.561 248.844 106.529 249.108C106.505 249.364 106.477 249.628 106.445 249.9L105.641 256.5H104.285ZM113.772 256.62C113.252 256.62 112.796 256.516 112.404 256.308C112.02 256.1 111.72 255.808 111.504 255.432C111.296 255.048 111.192 254.604 111.192 254.1V252.3C111.192 251.788 111.296 251.344 111.504 250.968C111.72 250.592 112.02 250.3 112.404 250.092C112.796 249.884 113.252 249.78 113.772 249.78C114.292 249.78 114.744 249.884 115.128 250.092C115.52 250.3 115.82 250.592 116.028 250.968C116.244 251.344 116.352 251.788 116.352 252.3V253.464H112.248V254.1C112.248 254.62 112.38 255.02 112.644 255.3C112.908 255.572 113.284 255.708 113.772 255.708C114.188 255.708 114.524 255.636 114.78 255.492C115.036 255.34 115.192 255.116 115.248 254.82H116.328C116.256 255.372 115.984 255.812 115.512 256.14C115.048 256.46 114.468 256.62 113.772 256.62ZM112.248 252.648H115.296V252.3C115.296 251.78 115.164 251.38 114.9 251.1C114.644 250.82 114.268 250.68 113.772 250.68C113.284 250.68 112.908 250.82 112.644 251.1C112.38 251.38 112.248 251.78 112.248 252.3V252.648ZM121.351 256.62C120.855 256.62 120.447 256.5 120.127 256.26C119.807 256.012 119.619 255.672 119.563 255.24H119.551V256.5H118.471V247.74H119.551V249.66L119.527 251.16H119.563C119.619 250.736 119.807 250.4 120.127 250.152C120.447 249.904 120.855 249.78 121.351 249.78C122.015 249.78 122.547 250 122.947 250.44C123.347 250.88 123.547 251.48 123.547 252.24V254.172C123.547 254.924 123.347 255.52 122.947 255.96C122.547 256.4 122.015 256.62 121.351 256.62ZM120.991 255.684C121.447 255.684 121.807 255.548 122.071 255.276C122.335 255.004 122.467 254.612 122.467 254.1V252.3C122.467 251.788 122.335 251.396 122.071 251.124C121.807 250.852 121.447 250.716 120.991 250.716C120.551 250.716 120.199 250.856 119.935 251.136C119.679 251.416 119.551 251.804 119.551 252.3V254.1C119.551 254.596 119.679 254.984 119.935 255.264C120.199 255.544 120.551 255.684 120.991 255.684ZM125.679 258.66V249.9H126.759V251.16H126.771C126.827 250.728 127.015 250.392 127.335 250.152C127.663 249.904 128.075 249.78 128.571 249.78C129.235 249.78 129.763 250 130.155 250.44C130.555 250.872 130.755 251.468 130.755 252.228V254.16C130.755 254.92 130.555 255.52 130.155 255.96C129.763 256.4 129.235 256.62 128.571 256.62C128.075 256.62 127.667 256.496 127.347 256.248C127.027 256 126.835 255.664 126.771 255.24H126.735L126.759 256.74V258.66H125.679ZM128.211 255.684C128.667 255.684 129.023 255.548 129.279 255.276C129.543 255.004 129.675 254.612 129.675 254.1V252.3C129.675 251.788 129.543 251.396 129.279 251.124C129.023 250.852 128.667 250.716 128.211 250.716C127.771 250.716 127.419 250.856 127.155 251.136C126.891 251.416 126.759 251.804 126.759 252.3V254.1C126.759 254.596 126.891 254.984 127.155 255.264C127.419 255.544 127.771 255.684 128.211 255.684ZM134.782 256.62C134.086 256.62 133.538 256.444 133.138 256.092C132.738 255.732 132.538 255.248 132.538 254.64C132.538 254.024 132.738 253.54 133.138 253.188C133.538 252.836 134.078 252.66 134.758 252.66H136.798V252C136.798 251.6 136.674 251.288 136.426 251.064C136.186 250.84 135.85 250.728 135.418 250.728C135.034 250.728 134.71 250.812 134.446 250.98C134.182 251.148 134.018 251.368 133.954 251.64H132.874C132.914 251.272 133.046 250.948 133.27 250.668C133.502 250.388 133.802 250.172 134.17 250.02C134.546 249.86 134.962 249.78 135.418 249.78C136.178 249.78 136.778 249.976 137.218 250.368C137.658 250.76 137.878 251.292 137.878 251.964V256.5H136.822V255.24H136.81C136.762 255.664 136.554 256 136.186 256.248C135.826 256.496 135.358 256.62 134.782 256.62ZM135.046 255.768C135.558 255.768 135.978 255.64 136.306 255.384C136.634 255.128 136.798 254.8 136.798 254.4V253.464H134.782C134.422 253.464 134.138 253.564 133.93 253.764C133.722 253.964 133.618 254.236 133.618 254.58C133.618 254.948 133.742 255.24 133.99 255.456C134.246 255.664 134.598 255.768 135.046 255.768ZM142.601 256.62C141.801 256.62 141.161 256.396 140.681 255.948C140.209 255.5 139.973 254.884 139.973 254.1V252.3C139.973 251.516 140.209 250.9 140.681 250.452C141.161 250.004 141.801 249.78 142.601 249.78C143.361 249.78 143.973 249.984 144.437 250.392C144.901 250.8 145.145 251.356 145.169 252.06H144.089C144.065 251.636 143.921 251.312 143.657 251.088C143.401 250.856 143.049 250.74 142.601 250.74C142.129 250.74 141.753 250.876 141.473 251.148C141.193 251.412 141.053 251.792 141.053 252.288V254.1C141.053 254.596 141.193 254.98 141.473 255.252C141.753 255.524 142.129 255.66 142.601 255.66C143.049 255.66 143.401 255.544 143.657 255.312C143.921 255.08 144.065 254.756 144.089 254.34H145.169C145.145 255.044 144.901 255.6 144.437 256.008C143.973 256.416 143.361 256.62 142.601 256.62ZM147.288 256.5V247.74H148.368V252.624H149.64L151.56 249.9H152.796L150.576 253.044L152.832 256.5H151.572L149.652 253.56H148.368V256.5H147.288Z" fill="#DDDDDD"/>
</svg>
