<svg width="692" height="692" viewBox="0 0 692 692" fill="none" xmlns="http://www.w3.org/2000/svg">
<g filter="url(#filter0_d_2453_1793)">
<path d="M138.1 574C119.433 574 104.967 569.836 94.6999 561.508C84.8999 552.691 80 540.444 80 524.768C80 508.602 85.1333 496.11 95.3999 487.293C106.133 477.985 120.833 473.331 139.5 473.331C169.833 473.331 197.133 465.983 221.4 451.287C246.133 436.591 265.267 416.751 278.8 391.768C292.8 366.785 299.8 339.107 299.8 308.735C299.8 277.383 292.8 248.971 278.8 223.497C264.8 198.024 245.9 178.184 222.1 163.978C198.3 149.772 171.933 142.668 143 142.668C123.867 142.668 108.7 138.26 97.4999 129.442C86.7666 120.134 81.4 107.153 81.4 90.4972C81.4 75.3112 86.3 63.5543 96.1 55.2265C106.367 46.4088 120.367 42 138.1 42C186.167 42 229.8 54.0018 269 78.0055C308.2 101.519 339 133.851 361.4 175C384.267 215.659 395.7 260.238 395.7 308.735C395.7 357.722 384.267 402.545 361.4 443.204C339 483.374 308.2 515.215 269 538.729C229.8 562.243 186.167 574 138.1 574ZM354.4 524.033C354.4 511.296 358.833 500.519 367.7 491.702C376.567 482.394 387.067 477.74 399.2 477.74L509.1 477.74L509.1 362.376C509.1 345.72 514 332.004 523.8 321.226C533.6 310.449 545.967 305.061 560.9 305.061C575.833 305.551 587.967 311.184 597.3 321.961C607.1 332.249 612 345.475 612 361.641L612 571.796L399.2 571.796C387.067 571.796 376.567 567.142 367.7 557.834C358.833 548.037 354.4 536.77 354.4 524.033Z" fill="url(#paint0_linear_2453_1793)"/>
</g>
<path d="M138.1 574C119.433 574 104.967 569.836 94.6999 561.508C84.8999 552.691 80 540.444 80 524.768C80 508.602 85.1333 496.11 95.3999 487.293C106.133 477.985 120.833 473.331 139.5 473.331C169.833 473.331 197.133 465.983 221.4 451.287C246.133 436.591 265.267 416.751 278.8 391.768C292.8 366.785 299.8 339.107 299.8 308.735C299.8 277.383 292.8 248.971 278.8 223.497C264.8 198.024 245.9 178.184 222.1 163.978C198.3 149.772 171.933 142.668 143 142.668C123.867 142.668 108.7 138.26 97.4999 129.442C86.7666 120.134 81.4 107.153 81.4 90.4972C81.4 75.3112 86.3 63.5543 96.1 55.2265C106.367 46.4088 120.367 42 138.1 42C186.167 42 229.8 54.0018 269 78.0055C308.2 101.519 339 133.851 361.4 175C384.267 215.659 395.7 260.238 395.7 308.735C395.7 357.722 384.267 402.545 361.4 443.204C339 483.374 308.2 515.215 269 538.729C229.8 562.243 186.167 574 138.1 574ZM354.4 524.033C354.4 511.296 358.833 500.519 367.7 491.702C376.567 482.394 387.067 477.74 399.2 477.74L509.1 477.74L509.1 362.376C509.1 345.72 514 332.004 523.8 321.226C533.6 310.449 545.967 305.061 560.9 305.061C575.833 305.551 587.967 311.184 597.3 321.961C607.1 332.249 612 345.475 612 361.641L612 571.796L399.2 571.796C387.067 571.796 376.567 567.142 367.7 557.834C358.833 548.037 354.4 536.77 354.4 524.033Z" fill="#F4322C"/>
<defs>
<filter id="filter0_d_2453_1793" x="0" y="0" width="692" height="692" filterUnits="userSpaceOnUse" color-interpolation-filters="sRGB">
<feFlood flood-opacity="0" result="BackgroundImageFix"/>
<feColorMatrix in="SourceAlpha" type="matrix" values="0 0 0 0 0 0 0 0 0 0 0 0 0 0 0 0 0 0 127 0" result="hardAlpha"/>
<feOffset dy="38"/>
<feGaussianBlur stdDeviation="40"/>
<feComposite in2="hardAlpha" operator="out"/>
<feColorMatrix type="matrix" values="0 0 0 0 0.956863 0 0 0 0 0.196079 0 0 0 0 0.172549 0 0 0 0.56 0"/>
<feBlend mode="normal" in2="BackgroundImageFix" result="effect1_dropShadow_2453_1793"/>
<feBlend mode="normal" in="SourceGraphic" in2="effect1_dropShadow_2453_1793" result="shape"/>
</filter>
<linearGradient id="paint0_linear_2453_1793" x1="612" y1="308" x2="80" y2="308" gradientUnits="userSpaceOnUse">
<stop stop-color="#FBFCFE"/>
<stop offset="1" stop-color="#F0F0F0"/>
</linearGradient>
</defs>
</svg>
