<svg width="616" height="692" viewBox="0 0 616 692" fill="none" xmlns="http://www.w3.org/2000/svg">
<g filter="url(#filter0_d_2460_1686)">
<path d="M80.0001 513.983C80.0001 499.658 84.6927 488.297 94.0781 479.9C103.957 471.502 117.294 467.304 134.089 467.304H186.696L186.696 135.359L134.089 135.359C117.294 135.359 103.957 131.161 94.078 122.763C84.6927 114.366 80 103.005 80 88.6797C80 74.3548 84.6927 62.9936 94.078 54.5961C103.957 46.1987 117.294 42 134.089 42L288.206 42L288.206 560.663H134.089C117.294 560.663 103.957 556.464 94.0781 548.067C84.6927 539.669 80.0001 528.308 80.0001 513.983ZM321.549 255.393C317.103 245.02 314.88 234.893 314.88 225.014C314.88 214.147 317.35 204.761 322.29 196.858C327.229 188.461 334.639 182.533 344.518 179.075C350.94 176.605 357.114 175.37 363.042 175.37C374.403 175.37 384.776 179.075 394.162 186.485C403.547 193.4 410.709 203.279 415.649 216.123L529.014 493.237C533.46 504.104 535.683 514.477 535.683 524.357C535.683 545.597 525.803 560.663 506.045 569.554C499.623 572.518 493.202 574 486.78 574C476.407 574 466.528 570.295 457.142 562.886C447.757 555.97 440.594 546.091 435.655 533.248L321.549 255.393Z" fill="#F4322C"/>
</g>
<path d="M80.0001 513.983C80.0001 499.658 84.6927 488.297 94.0781 479.9C103.957 471.502 117.294 467.304 134.089 467.304H186.696L186.696 135.359L134.089 135.359C117.294 135.359 103.957 131.161 94.078 122.763C84.6927 114.366 80 103.005 80 88.6797C80 74.3548 84.6927 62.9936 94.078 54.5961C103.957 46.1987 117.294 42 134.089 42L288.206 42L288.206 560.663H134.089C117.294 560.663 103.957 556.464 94.0781 548.067C84.6927 539.669 80.0001 528.308 80.0001 513.983ZM321.549 255.393C317.103 245.02 314.88 234.893 314.88 225.014C314.88 214.147 317.35 204.761 322.29 196.858C327.229 188.461 334.639 182.533 344.518 179.075C350.94 176.605 357.114 175.37 363.042 175.37C374.403 175.37 384.776 179.075 394.162 186.485C403.547 193.4 410.709 203.279 415.649 216.123L529.014 493.237C533.46 504.104 535.683 514.477 535.683 524.357C535.683 545.597 525.803 560.663 506.045 569.554C499.623 572.518 493.202 574 486.78 574C476.407 574 466.528 570.295 457.142 562.886C447.757 555.97 440.594 546.091 435.655 533.248L321.549 255.393Z" fill="url(#paint0_linear_2460_1686)"/>
<path d="M80.0001 513.983C80.0001 499.658 84.6927 488.297 94.0781 479.9C103.957 471.502 117.294 467.304 134.089 467.304H186.696L186.696 135.359L134.089 135.359C117.294 135.359 103.957 131.161 94.078 122.763C84.6927 114.366 80 103.005 80 88.6797C80 74.3548 84.6927 62.9936 94.078 54.5961C103.957 46.1987 117.294 42 134.089 42L288.206 42L288.206 560.663H134.089C117.294 560.663 103.957 556.464 94.0781 548.067C84.6927 539.669 80.0001 528.308 80.0001 513.983ZM321.549 255.393C317.103 245.02 314.88 234.893 314.88 225.014C314.88 214.147 317.35 204.761 322.29 196.858C327.229 188.461 334.639 182.533 344.518 179.075C350.94 176.605 357.114 175.37 363.042 175.37C374.403 175.37 384.776 179.075 394.162 186.485C403.547 193.4 410.709 203.279 415.649 216.123L529.014 493.237C533.46 504.104 535.683 514.477 535.683 524.357C535.683 545.597 525.803 560.663 506.045 569.554C499.623 572.518 493.202 574 486.78 574C476.407 574 466.528 570.295 457.142 562.886C447.757 555.97 440.594 546.091 435.655 533.248L321.549 255.393Z" fill="#F4322C"/>
<defs>
<filter id="filter0_d_2460_1686" x="0" y="0" width="615.683" height="692" filterUnits="userSpaceOnUse" color-interpolation-filters="sRGB">
<feFlood flood-opacity="0" result="BackgroundImageFix"/>
<feColorMatrix in="SourceAlpha" type="matrix" values="0 0 0 0 0 0 0 0 0 0 0 0 0 0 0 0 0 0 127 0" result="hardAlpha"/>
<feOffset dy="38"/>
<feGaussianBlur stdDeviation="40"/>
<feComposite in2="hardAlpha" operator="out"/>
<feColorMatrix type="matrix" values="0 0 0 0 0.956863 0 0 0 0 0.196079 0 0 0 0 0.172549 0 0 0 0.56 0"/>
<feBlend mode="normal" in2="BackgroundImageFix" result="effect1_dropShadow_2460_1686"/>
<feBlend mode="normal" in="SourceGraphic" in2="effect1_dropShadow_2460_1686" result="shape"/>
</filter>
<linearGradient id="paint0_linear_2460_1686" x1="307.841" y1="42" x2="307.841" y2="574" gradientUnits="userSpaceOnUse">
<stop stop-color="#FBFCFE"/>
<stop offset="1" stop-color="#F0F0F0"/>
</linearGradient>
</defs>
</svg>
